<svg xmlns="http://www.w3.org/2000/svg" width="100" height="100"><path fill="#c92d33" d="m20.839-.177 2.095-.02 6.863-.041 2.372-.013q6.217-.03 12.435-.044L57.418-.38l9.878-.038a541 541 0 0 0 4.721-.035l6.627-.017 3.801-.018C87.773.243 92.461 2.642 95.812 7c3.593 4.927 4.442 7.76 4.494 13.937l.026 2.09.04 6.832.026 4.769q.024 4.998.028 9.996l.088 12.763.038 9.853q.006 2.351.038 4.702c.196 15.931.196 15.931-5.59 22.058-5.027 4.99-8.819 6.122-15.839 6.177l-2.095.02q-3.431.028-6.863.041l-2.372.013a4493 4493 0 0 1-12.435.044l-12.814.085-9.878.038a541 541 0 0 0-4.721.035l-6.627.017-3.801.018C12.227 99.757 7.539 97.358 4.187 93 .595 88.073-.253 85.24-.306 79.063l-.026-2.09a891 891 0 0 1-.04-6.832l-.026-4.769q-.025-4.998-.028-9.996l-.088-12.763-.038-9.853a440 440 0 0 0-.038-4.702C-.786 12.127-.786 12.127 5 6c5.027-4.99 8.819-6.122 15.839-6.177"/><path fill="#414141" d="M66.691 26.23C72.472 30.662 76.56 35.75 78 43c1.21 10.009-.235 17.657-6 26-4.774 5.504-10.614 8.586-17.832 9.469-9.353.073-16.73-.599-23.965-7.078C24.027 64.725 20.676 57.145 21 48c1.246-8.588 4.404-15.346 11.25-20.79 10.44-7.245 23.55-7.89 34.441-.98"/><path fill="#f8eeee" d="M65.473 18.559C74.639 23.787 80.526 31.046 84 41c.4 2.58.355 4.396 0 7h-6l-.445-2.125C75.366 36.619 72.2 30.687 64.062 25.5c-7.82-3.92-17.248-4.039-25.562-1.375C31.915 27.652 26.82 31.943 24 39c-.832 2.977-1.475 5.955-2 9h-6c-1.09-8 2.936-14.774 7.535-21.117C34.23 15.059 51.03 12.325 65.473 18.559"/><path fill="#f8efef" d="M16 52h6l.688 3.438c2.04 7.949 5.531 13.616 12.25 18.37C42.247 78.032 49.816 77.666 58 77c3.125-.864 5.405-2.084 8-4l3.188-2.062C74.422 66.346 76.874 58.682 78 52h6c-.465 10.047-3.914 16.58-10.71 23.95-8.047 7.208-17.034 8.546-27.466 8.316C35.684 83.56 28.64 78.51 22 71c-4.158-6.084-5.647-11.7-6-19"/><path fill="#f5f5f5" d="M53 43c2.375 1.625 2.375 1.625 4 4 .612 3.672.487 5.288-1.625 8.375C52.288 57.487 50.672 57.612 47 57c-2.375-1.625-2.375-1.625-4-4-.612-3.672-.487-5.288 1.625-8.375C47.712 42.513 49.328 42.388 53 43"/><path fill="#c55257" d="m37 82 2.035.492c3.51.601 6.841.64 10.403.633l3.87.008c3.331-.12 6.426-.497 9.692-1.133l-1 3-11.375.063-3.273.025-3.125.01-2.889.016C39 85 39 85 37 84z"/><path fill="#b54047" d="M78 48h6v4h-6z"/><path fill="#be4148" d="M16 48h5v4h-5z"/><path fill="#bf4b4f" d="m63 82-1 3h-9c3.514-1.757 6.104-3 10-3"/></svg>