<svg xmlns="http://www.w3.org/2000/svg" viewBox="0 0 269.72 35.09" xmlns:v="https://vecta.io/nano"><path d="M155.19 16.41A10 10 0 0 1 163.04.32h17.82l-1.61 4.35h-14.39a3.05 3.05 0 0 0-2.39 4.75c2.22 3.42 6 5.81 8.37 9.32a9.93 9.93 0 0 1-7.74 16h-19.59l1.61-4.35h15.45a3.11 3.11 0 0 0 2.47-4.72c-2-3.19-5.44-6.27-7.85-9.24zm-18.1 18.36h-9.72L140.06.35h9.72zm47.9 0h-9.75L187.93.35h9.72zm14.73-24A18.64 18.64 0 0 1 216.86.01h6a8.92 8.92 0 0 1 8.46 7.91 11 11 0 0 1-.06 2.24l-.26 1.18a58 58 0 0 1-4.78 13 18.64 18.64 0 0 1-17.15 10.76h-6a8.87 8.87 0 0 1-8.43-7.91 9.5 9.5 0 0 1 .06-2.24c.09-.37.17-.78.26-1.18a54 54 0 0 1 4.75-13zm18.41-7.22a8.54 8.54 0 0 0-7.91 5.52l-6.44 17.52a2.9 2.9 0 0 0-.23 1.32 3.6 3.6 0 0 0 3.31 3.64h.95a8.54 8.54 0 0 0 7.91-5.52l6.42-17.52a2.9 2.9 0 0 0 .23-1.32 3.6 3.6 0 0 0-3.31-3.57zm-103.6 20.43L130.35.33h5.73l-22.12 33a3.32 3.32 0 0 1-2.62 1.47h-5.7L102.94.38h9.72L114.53 24zm127.08-12.55V11l-8.77 23.71h-5L240.59.29h6.27l9.22 23.26L264.68.3h5l-12.75 34.42h-4.6a3.3 3.3 0 0 1-2.85-2l-7.91-21.29z" fill="#6d6e71"/><path d="M50 34.77H39.65L52.37.35H62.7L50.01 34.77zM18.13 13.55h12.31L35.33.28h10.33L33.75 32.59a3.3 3.3 0 0 1-3 2.07h-8.08l6.07-16.46H16.4l-6.07 16.46H0L12.69.24h10.33zm57.05-.32L92.04.28h7.71L82.51 13.55l10.93 21.18h-8.77a.11.11 0 0 0 .09 0 3.33 3.33 0 0 1-3.16-1.84l-6.88-13.34-2.59 2-4.86 13.21H56.94L69.63.34h10.33l-4.78 12.92z" fill="#d71820"/></svg>