<svg xmlns="http://www.w3.org/2000/svg" width="57.9" height="23.5" fill-rule="evenodd"><path fill="#00bcb4" d="M3.7 19.4V16H.1v3.4z"/><path fill="#ec6907" d="M12 3.5V.1H8.5v3.4z"/><path fill="#d7006d" d="M58 4.4h-3.6v3.4H58"/><path fill="#ffce00" d="M46.1 20.2v3.4h3.6v-3.4z"/><path d="M8.385 19.34V7.74h3.6v11.6zm19.3-11.5-6.4 6.8-1.4 1.4h7.7v3.3h-12.6v-3.4l6.7-7 1.3-1.2h-7.8v-3.3h12.5zm2.7 8.2 6.4-6.9 1.4-1.5h-7.8v-3.2h12.6v3.3l-6.7 7.1c-.5.6-1.4 1.3-1.4 1.3h7.9v3.4h-12.4zm15.8 0V4.44h3.5v11.6z"/></svg>