<svg xmlns="http://www.w3.org/2000/svg" viewBox="-376.766 224.13 319.735 319.735" xmlns:v="https://vecta.io/nano"><style><![CDATA[.B{fill:#fff}.C{fill:#262424}.D{stroke-linejoin:round}.E{stroke-width:4.308}.F{stroke-linecap:round}]]></style><circle cx="-216.898" cy="383.998" r="157.933" stroke="#00abeb" stroke-width="3.869" class="B"/><g fill="none" stroke="#fff" class="D E"><g class="F"><use href="#B"/><use href="#C"/><use href="#D"/><use href="#E"/><path d="M-217.753 500.264a92.2 92.2 0 0 1-22.253-2.739c-24.196-6.022-39.792-19.93-39.947-20.072-43.454-29.678-34.109-73.887-31.315-83.854-3.356 1.193-6.264 1.001-8.66-.576-7.736-5.08-7.018-22.934-6.982-23.693 3.708-20.671 19.176-28.942 19.83-29.285 6.232-2.556 10.864-2.848 13.84-.91a6.6 6.6 0 0 1 1.998 2.039c2.784-8.102 10.137-17.123 13.465-20.945a.976.976 0 0 1 1.372-.096.976.976 0 0 1 .096 1.376c-2.862 3.283-12.327 14.672-13.868 23.213a.96.96 0 0 1-1.033.796.97.97 0 0 1-.901-.942c-.005-.096-.119-2.483-2.213-3.827-2.382-1.532-6.511-1.166-11.938 1.056-.069.041-15.203 8.171-18.719 27.735.009.046-.695 17.374 6.122 21.851 2.24 1.468 5.171 1.344 8.705-.384a.976.976 0 0 1 1.344 1.207c-.183.508-17.754 51.03 30.062 83.703.256.219 15.55 13.845 39.298 19.729 21.873 5.427 55.639 5.194 92.281-26.683.407-.366 41.488-38.064 22.294-79.483a.97.97 0 0 1 .453-1.28.974.974 0 0 1 1.294.425c.018.037 1.916 3.621 4.783 3.85 1.865.151 3.864-1.161 5.912-3.905.59-1.276 7.777-17.448 1.993-31.64-3.315-8.134-10.265-14.174-20.662-17.95h0c-.046 0-5.427-1.111-9.08 1.559q-1.49 1.091-2.341 2.835c-.105 3.063-1.202 4.517-1.267 4.6a.96.96 0 0 1-1.125.306.98.98 0 0 1-.613-.992q.228-2.463 1.065-4.371c0-1.01-.119-2.231-.462-3.671-.48-1.029-5.157-10.955-8.5-14.284a.974.974 0 0 1 1.371-1.381c3.758 3.74 8.724 14.48 8.934 14.937q.039.089.064.178.193.809.311 1.541a9.3 9.3 0 0 1 1.422-1.276c4.408-3.21 10.507-1.902 10.763-1.843 11.06 4.014 18.399 10.425 21.928 19.098 6.319 15.523-1.737 32.568-2.085 33.286a.8.8 0 0 1-.096.155c-2.496 3.37-5.075 4.943-7.695 4.764-.96-.078-1.824-.398-2.583-.837 14.599 40.734-24.379 76.475-24.79 76.845-26.502 23.059-51.567 29.835-71.872 29.835m-31.658-39.947c3.877 5.423 12.272 18.165 32.518 18.591 0 0 17.095 2.067 30.062-14.823 0 0-6.904 16.483-30.167 16.483-.001-.001-24.161.228-32.413-20.251m4.782-94.887c5.084 1.664 9.3-.288 12.272-7.626 2.542-6.25.325-13.561-3.393-14.91-3.722-1.395-9.346 1.664-11.696 8.01-2.372 6.333-.95 13.246 2.817 14.526m50.605.96c5.624-1.82 6.442-6.931 5.194-12.816-1.239-5.857-5.066-10.85-10.274-9.574-5.317 1.28-6.186 8.376-4.92 14.233 1.231 5.866 6.265 9.355 10 8.157"/><path d="M-219.829 424.041c.933-2.89 4.787 3.383 11.545-1.116 0 0 7.343 16.757 24.265 20.964 1.07 3.786-32.385 48.945-65.533 2.643-.001 0 23.82-3.873 29.723-22.491m90.941-76.854c-1.422-.882-6.959-3.841-7.306 2.277 0 0 2.336 9.666 12.679 28.732 0 0 3.182 6.09 7.252-1.129 0 0 3.649-6.095-2.181-17.566-.001-.006-3.75-8.94-10.444-12.314m-167.859 8.742c.754-2.323 1.564-7.421-3.987-7.796 0 0-6.552-.85-13.141 13.145 0 0-4.97 14.75.357 18.33 0 0 2.725 1.861 5.002 0 .004.005 5.934-6.78 11.769-23.679m196.81-24.1a.98.98 0 0 1-.786-.398c-7.329-9.935-26.693-26.08-26.889-26.244-1.239-1.234-2.327-1.783-3.356-1.715-1.225.101-1.989 1.138-1.998 1.152a1 1 0 0 1-.123.142c-8.523 8.125-15.523 16.958-18.316 20.895a.974.974 0 1 1-1.587-1.129c2.826-3.987 9.903-12.907 18.504-21.124.288-.37 1.454-1.71 3.333-1.875 1.609-.133 3.246.604 4.856 2.213.736.608 19.67 16.396 27.145 26.523a.973.973 0 0 1-.206 1.363.94.94 0 0 1-.577.197"/><use href="#F"/><path d="M-95.566 360.606a.96.96 0 0 1-.736-.338l-10.685-12.372c-1.838-2.227-9.167-9.208-9.24-9.282l-8.253-6.854c-7.037.85-19.308 5.848-19.432 5.898a.98.98 0 0 1-1.271-.53.976.976 0 0 1 .53-1.271c.535-.219 13.141-5.349 20.378-6.076a.97.97 0 0 1 .718.219l8.619 7.165c.352.334 7.535 7.178 9.432 9.478h0l10.672 12.354a.97.97 0 0 1-.101 1.372.94.94 0 0 1-.631.237m-100.872-66.662c-.091 0-.187-.014-.279-.041-12.83-3.813-25.627-2.035-30.529-1.093-.544.091-1.038-.247-1.138-.773a.974.974 0 0 1 .773-1.138c5.043-.969 18.211-2.803 31.452 1.138a.97.97 0 0 1 .654 1.212.98.98 0 0 1-.933.695"/><use href="#G"/><path d="M-157.281 326.74c-3.772 0-6.671-3.292-6.794-3.429-10.932-16.497-22.788-19.158-27.25-20.159-.741-.165-1.308-.297-1.678-.43-4.289-1.513-4.984-4.723-4.746-6.332-.494-7.425 6.47-12.743 6.767-12.967 4.179-3.626 11.723-2.355 11.856-2.332 13.488 2.044 17.658 7.791 17.832 8.038 15.925 18.444 12.02 30.785 11.847 31.301-2.169 4.234-4.78 6.31-7.834 6.31m-5.249-4.609c.014 0 2.41 2.661 5.249 2.661 2.263 0 4.298-1.724 6.035-5.121h0c-.014 0 3.58-11.764-11.591-29.349-.096-.123-4.024-5.4-16.606-7.311-.073-.009-6.776-1.148-10.319 1.925-.119.091-6.529 5.011-6.04 11.421a.8.8 0 0 1-.014.256c-.046.283-.37 2.912 3.461 4.27.325.114.818.219 1.459.366 4.668 1.048 17.077 3.837 28.366 20.882m-23.255 46.733s-2.611.841-.302 1.751c0 0 9.515 1.207 10.452-9.446.69-3.516-.489-9.428-1.486-9.428.001 0 3.165 14.727-8.664 17.123m-62.694 0s2.611.841.297 1.751c0 0-9.533 1.207-10.443-9.446-.718-3.516.489-9.428 1.472-9.428.005 0-3.154 14.727 8.674 17.123m54.318-18.079c0 1.719-1.422 3.127-3.187 3.127-1.701 0-3.132-1.408-3.132-3.127 0-1.76 1.431-3.159 3.132-3.159 1.761 0 3.187 1.399 3.187 3.159"/><path d="M-194.517 349.519a3.04 3.04 0 0 1-3.031 3.031 3.03 3.03 0 0 1-3.041-3.031 3.04 3.04 0 0 1 3.041-3.05 3.04 3.04 0 0 1 3.031 3.05m-40.817 0c0 1.664-1.381 3.031-3.045 3.031a3.04 3.04 0 0 1-3.045-3.031 3.05 3.05 0 0 1 3.045-3.05 3.06 3.06 0 0 1 3.045 3.05m-11.517 102.024s28.741-15.203 59.791-1.769c0 0 3.137-6.186 3.137-4.929-12.423 23.401-31.85 22.294-31.85 22.294s-20.127 2.986-34.401-20.456z"/></g><ellipse cx="-237.016" cy="453.888" rx="1.852" ry="1.925"/><g class="F"><path d="M-232.554 457.615c0 .654-.512 1.189-1.138 1.189-.64 0-1.157-.535-1.157-1.189 0-.672.517-1.203 1.157-1.203.631 0 1.138.531 1.138 1.203m8.898-12.848s7.832 1.289 7.832 8.577c0 0 .251-9.282 8.363-8.349m-7.636-35.169c-18.705 0-33.921-9.748-33.921-21.727 0-11.956 15.216-21.686 33.921-21.686 18.714 0 33.939 9.73 33.939 21.686.001 11.984-15.225 21.727-33.939 21.727m0-41.465c-17.63 0-31.973 8.856-31.973 19.738 0 10.905 14.343 19.779 31.973 19.779 17.64 0 31.992-8.875 31.992-19.779 0-10.882-14.352-19.738-31.992-19.738"/><use href="#H"/><path d="M-255.556 447.003c-11.961 0-25.133-4.344-33.555-11.06-17.754-14.178-11.545-40.062-11.481-40.322a.99.99 0 0 1 1.015-.736.98.98 0 0 1 .896.878c1.148 11.97 5.72 18.298 13.214 18.298h0c3.379 0 6.086-1.299 6.113-1.312a1 1 0 0 1 .343-.096c3.598-.311 16.99-10.662 25.115-17.544.274-.215.626-.544 1.042-.924 1.948-1.797 3.539-3.169 4.847-3.169.736 0 1.326.434 1.582 1.157 5.651 16.199 31.214 16.387 31.47 16.387.293 0 .567.133.754.357a.98.98 0 0 1 .201.809c-6.57 32.435-28.855 37.277-41.556 37.277m-44.035-44.716c-.654 8.253.119 22.888 11.696 32.138 8.097 6.461 20.794 10.635 32.339 10.635 11.956 0 32.833-4.526 39.412-34.575-5.34-.219-26.51-2.062-32.051-17.475-.809.279-2.62 1.952-3.338 2.615-.462.425-.855.786-1.129 1.001-2.067 1.751-20.397 17.164-25.998 17.955-.681.306-3.429 1.436-6.803 1.436h0c-5.176-.005-11.44-2.561-14.128-13.73m117.007-10.114c.983-1.783 5.679 3.146 6.95 4.138 0 0 11.431 9.451 20.145 14.796 0 0 18.623 9.739 22.852-14.658 0 0 8.568 31.695-15.66 43.267-16.355 9.163-53.989 11.984-63.714-30.291.005.003 20.813-1.602 29.427-17.252m11.453 54.148c-10.041 0-34.209-3.571-41.822-36.674a.97.97 0 0 1 .165-.796.96.96 0 0 1 .709-.393c.201-.014 20.387-1.76 28.645-16.753a1.69 1.69 0 0 1 1.527-.892c1.518 0 3.539 1.724 5.83 3.809.439.402.805.732 1.042.919.133.11 11.499 9.483 20.058 14.732h0c.005 0 3.489 1.774 7.613 1.774 7.325 0 11.956-5.304 13.771-15.765a.966.966 0 0 1 .914-.805c.439-.046.864.274.983.718.087.325 8.495 32.609-16.181 44.401-6.373 3.576-15.088 5.725-23.254 5.725m-39.673-36.042c7.279 29.632 27.922 34.095 39.673 34.095 7.85 0 16.208-2.057 22.363-5.505 17.882-8.545 17.297-28.691 16.035-37.689-3.137 10.466-9.524 12.82-14.631 12.82-4.636 0-8.417-1.948-8.573-2.03-8.733-5.354-20.205-14.814-20.319-14.91-.242-.187-.645-.553-1.134-.992-.956-.869-3.438-3.127-4.412-3.292-7.736 13.886-24.461 16.922-29.002 17.503m-58.282-88.527c-2.03 3.511-5.359 5.075-8.728-3.397 0 0-.576-18.888 11.257-31.009 0 0 8.472-13.241 29.61-5.916 0 0 6.758 3.937 7.878 7.613 0 0 3.932 6.474-2.816 9.579 0 0-12.4 3.091-20.561 7.05-.006-.001-10.453 5.372-16.64 16.08m-3.506 3.795c-2.291 0-4.293-2.236-6.127-6.831a1 1 0 0 1-.069-.329c-.023-.786-.448-19.377 11.467-31.653.649-.96 6.131-8.486 18.371-8.486 3.841 0 7.988.759 12.318 2.263.059.023.119.046.174.078.288.165 6.973 4.101 8.28 8.056.338.604 1.833 3.511.933 6.451-.581 1.897-2.007 3.383-4.238 4.408a1 1 0 0 1-.169.059c-.123.032-12.4 3.114-20.374 6.982-.082.041-10.251 5.368-16.213 15.687-1.253 2.172-2.762 3.315-4.353 3.315m-4.253-7.389c1.399 3.461 2.945 5.441 4.252 5.441.837 0 1.811-.85 2.666-2.336 6.255-10.832 16.593-16.231 17.031-16.455 7.901-3.831 19.446-6.794 20.68-7.105 1.655-.777 2.698-1.843 3.105-3.159.741-2.396-.782-4.97-.796-4.993a1 1 0 0 1-.096-.219c-.814-2.675-5.505-5.916-7.357-7.005-4.092-1.413-7.992-2.126-11.591-2.126-11.687 0-16.588 7.366-16.794 7.677a1 1 0 0 1-.123.151c-10.826 11.095-10.99 28.259-10.977 30.129m47.707 61.089a3.55 3.55 0 0 1-3.548 3.548 3.54 3.54 0 0 1-3.534-3.548 3.525 3.525 0 0 1 3.534-3.548 3.54 3.54 0 0 1 3.548 3.548"/></g></g><g class="C"><use href="#B"/><use href="#C"/><use href="#D"/></g><use href="#E" fill="#ebc2bb"/><g class="C"><path d="M-217.753 500.264a92.2 92.2 0 0 1-22.253-2.739c-24.196-6.022-39.792-19.93-39.947-20.072-43.454-29.678-34.109-73.887-31.315-83.854-3.356 1.193-6.264 1.001-8.66-.576-7.736-5.08-7.018-22.934-6.982-23.693 3.708-20.671 19.176-28.942 19.83-29.285 6.232-2.556 10.864-2.848 13.84-.91a6.6 6.6 0 0 1 1.998 2.039c2.784-8.102 10.137-17.123 13.465-20.945a.976.976 0 0 1 1.372-.096.976.976 0 0 1 .096 1.376c-2.862 3.283-12.327 14.672-13.868 23.213a.96.96 0 0 1-1.033.796.97.97 0 0 1-.901-.942c-.005-.096-.119-2.483-2.213-3.827-2.382-1.532-6.511-1.166-11.938 1.056-.069.041-15.203 8.171-18.719 27.735.009.046-.695 17.374 6.122 21.851 2.24 1.468 5.171 1.344 8.705-.384a.976.976 0 0 1 1.344 1.207c-.183.508-17.754 51.03 30.062 83.703.256.219 15.55 13.845 39.298 19.729 21.873 5.427 55.639 5.194 92.281-26.683.407-.366 41.488-38.064 22.294-79.483a.97.97 0 0 1 .453-1.28.974.974 0 0 1 1.294.425c.018.037 1.916 3.621 4.783 3.85 1.865.151 3.864-1.161 5.912-3.905.59-1.276 7.777-17.448 1.993-31.64-3.315-8.134-10.265-14.174-20.662-17.95-.046 0-5.427-1.111-9.08 1.559q-1.49 1.091-2.341 2.835c-.105 3.063-1.202 4.517-1.267 4.6a.96.96 0 0 1-1.125.306.98.98 0 0 1-.613-.992q.228-2.463 1.065-4.371c0-1.01-.119-2.231-.462-3.671-.48-1.029-5.157-10.955-8.5-14.284a.974.974 0 0 1 1.371-1.381c3.758 3.74 8.724 14.48 8.934 14.937q.039.089.064.178.193.809.311 1.541a9.3 9.3 0 0 1 1.422-1.276c4.408-3.21 10.507-1.902 10.763-1.843 11.06 4.014 18.399 10.425 21.928 19.098 6.319 15.523-1.737 32.568-2.085 33.286a.8.8 0 0 1-.096.155c-2.496 3.37-5.075 4.943-7.695 4.764-.96-.078-1.824-.398-2.583-.837 14.599 40.734-24.379 76.475-24.79 76.845-26.502 23.059-51.567 29.835-71.872 29.835"/><path stroke="#262424" stroke-width=".405" d="M-249.411 460.317c3.877 5.423 12.272 18.165 32.518 18.591 0 0 17.095 2.067 30.062-14.823 0 0-6.904 16.483-30.167 16.483-.001-.001-24.161.228-32.413-20.251z"/><path d="M-244.629 365.43c5.084 1.664 9.3-.288 12.272-7.626 2.542-6.25.325-13.561-3.393-14.91-3.722-1.395-9.346 1.664-11.696 8.01-2.372 6.333-.95 13.246 2.817 14.526m50.605.96c5.624-1.82 6.442-6.931 5.194-12.816-1.239-5.857-5.066-10.85-10.274-9.574-5.317 1.28-6.186 8.376-4.92 14.233 1.231 5.866 6.265 9.355 10 8.157m-25.805 57.651c.933-2.89 4.787 3.383 11.545-1.116 0 0 7.343 16.757 24.265 20.964 1.07 3.786-32.385 48.945-65.533 2.643-.001 0 23.82-3.873 29.723-22.491m90.941-76.854c-1.422-.882-6.959-3.841-7.306 2.277 0 0 2.336 9.666 12.679 28.732 0 0 3.182 6.09 7.252-1.129 0 0 3.649-6.095-2.181-17.566-.001-.006-3.75-8.94-10.444-12.314m-167.859 8.742c.754-2.323 1.564-7.421-3.987-7.796 0 0-6.552-.85-13.141 13.145 0 0-4.97 14.75.357 18.33 0 0 2.725 1.861 5.002 0 .004.005 5.934-6.78 11.769-23.679m196.81-24.1a.98.98 0 0 1-.786-.398c-7.329-9.935-26.693-26.08-26.889-26.244-1.239-1.234-2.327-1.783-3.356-1.715-1.225.101-1.989 1.138-1.998 1.152a1 1 0 0 1-.123.142c-8.523 8.125-15.523 16.958-18.316 20.895a.974.974 0 1 1-1.587-1.129c2.826-3.987 9.903-12.907 18.504-21.124.288-.37 1.454-1.71 3.333-1.875 1.609-.133 3.246.604 4.856 2.213.736.608 19.67 16.396 27.145 26.523a.973.973 0 0 1-.206 1.363.94.94 0 0 1-.577.197"/><use href="#F"/><path d="M-95.566 360.606a.96.96 0 0 1-.736-.338l-10.685-12.372c-1.838-2.227-9.167-9.208-9.24-9.282l-8.253-6.854c-7.037.85-19.308 5.848-19.432 5.898a.98.98 0 0 1-1.271-.53.976.976 0 0 1 .53-1.271c.535-.219 13.141-5.349 20.378-6.076a.97.97 0 0 1 .718.219l8.619 7.165c.352.334 7.535 7.178 9.432 9.478l10.672 12.354a.97.97 0 0 1-.101 1.372.94.94 0 0 1-.631.237m-100.872-66.662c-.091 0-.187-.014-.279-.041-12.83-3.813-25.627-2.035-30.529-1.093-.544.091-1.038-.247-1.138-.773a.974.974 0 0 1 .773-1.138c5.043-.969 18.211-2.803 31.452 1.138a.97.97 0 0 1 .654 1.212.98.98 0 0 1-.933.695"/></g><use href="#G" class="B"/><path d="M-157.281 326.74c-3.772 0-6.671-3.292-6.794-3.429-10.932-16.497-22.788-19.158-27.25-20.159-.741-.165-1.308-.297-1.678-.43-4.289-1.513-4.984-4.723-4.746-6.332-.494-7.425 6.47-12.743 6.767-12.967 4.179-3.626 11.723-2.355 11.856-2.332 13.488 2.044 17.658 7.791 17.832 8.038 15.925 18.444 12.02 30.785 11.847 31.301-2.169 4.234-4.78 6.31-7.834 6.31m-5.249-4.609c.014 0 2.41 2.661 5.249 2.661 2.263 0 4.298-1.724 6.035-5.121-.014 0 3.58-11.764-11.591-29.349-.096-.123-4.024-5.4-16.606-7.311-.073-.009-6.776-1.148-10.319 1.925-.119.091-6.529 5.011-6.04 11.421a.8.8 0 0 1-.014.256c-.046.283-.37 2.912 3.461 4.27.325.114.818.219 1.459.366 4.668 1.048 17.077 3.837 28.366 20.882m-23.255 46.733s-2.611.841-.302 1.751c0 0 9.515 1.207 10.452-9.446.69-3.516-.489-9.428-1.486-9.428.001 0 3.165 14.727-8.664 17.123m-62.694 0s2.611.841.297 1.751c0 0-9.533 1.207-10.443-9.446-.718-3.516.489-9.428 1.472-9.428.005 0-3.154 14.727 8.674 17.123m54.318-18.079c0 1.719-1.422 3.127-3.187 3.127-1.701 0-3.132-1.408-3.132-3.127 0-1.76 1.431-3.159 3.132-3.159 1.761 0 3.187 1.399 3.187 3.159" class="C"/><path d="M-194.517 349.519a3.04 3.04 0 0 1-3.031 3.031 3.03 3.03 0 0 1-3.041-3.031 3.04 3.04 0 0 1 3.041-3.05 3.04 3.04 0 0 1 3.031 3.05m-40.817 0c0 1.664-1.381 3.031-3.045 3.031a3.04 3.04 0 0 1-3.045-3.031 3.05 3.05 0 0 1 3.045-3.05 3.06 3.06 0 0 1 3.045 3.05" class="B"/><path fill="#dcabcb" stroke="#262424" stroke-width=".849" d="M-246.851 451.543s28.741-15.203 59.791-1.769c0 0 3.137-6.186 3.137-4.929-12.423 23.401-31.85 22.294-31.85 22.294s-20.127 2.986-34.401-20.456z"/><g class="B"><ellipse cx="-237.016" cy="453.888" rx="1.852" ry="1.925"/><path d="M-232.554 457.615c0 .654-.512 1.189-1.138 1.189-.64 0-1.157-.535-1.157-1.189 0-.672.517-1.203 1.157-1.203.631 0 1.138.531 1.138 1.203"/></g><path d="M-223.656 444.767s7.832 1.289 7.832 8.577c0 0 .251-9.282 8.363-8.349m-7.636-35.169c-18.705 0-33.921-9.748-33.921-21.727 0-11.956 15.216-21.686 33.921-21.686 18.714 0 33.939 9.73 33.939 21.686.001 11.984-15.225 21.727-33.939 21.727m0-41.465c-17.63 0-31.973 8.856-31.973 19.738 0 10.905 14.343 19.779 31.973 19.779 17.64 0 31.992-8.875 31.992-19.779 0-10.882-14.352-19.738-31.992-19.738" class="C"/><use href="#H" class="B"/><path d="M-255.556 447.003c-11.961 0-25.133-4.344-33.555-11.06-17.754-14.178-11.545-40.062-11.481-40.322a.99.99 0 0 1 1.015-.736.98.98 0 0 1 .896.878c1.148 11.97 5.72 18.298 13.214 18.298 3.379 0 6.086-1.299 6.113-1.312a1 1 0 0 1 .343-.096c3.598-.311 16.99-10.662 25.115-17.544.274-.215.626-.544 1.042-.924 1.948-1.797 3.539-3.169 4.847-3.169.736 0 1.326.434 1.582 1.157 5.651 16.199 31.214 16.387 31.47 16.387.293 0 .567.133.754.357a.98.98 0 0 1 .201.809c-6.57 32.435-28.855 37.277-41.556 37.277m-44.035-44.716c-.654 8.253.119 22.888 11.696 32.138 8.097 6.461 20.794 10.635 32.339 10.635 11.956 0 32.833-4.526 39.412-34.575-5.34-.219-26.51-2.062-32.051-17.475-.809.279-2.62 1.952-3.338 2.615-.462.425-.855.786-1.129 1.001-2.067 1.751-20.397 17.164-25.998 17.955-.681.306-3.429 1.436-6.803 1.436-5.176-.005-11.44-2.561-14.128-13.73" class="C"/><path d="M-182.584 392.173c.983-1.783 5.679 3.146 6.95 4.138 0 0 11.431 9.451 20.145 14.796 0 0 18.623 9.739 22.852-14.658 0 0 8.568 31.695-15.66 43.267-16.355 9.163-53.989 11.984-63.714-30.291.005.003 20.813-1.602 29.427-17.252" class="B"/><path d="M-171.131 446.321c-10.041 0-34.209-3.571-41.822-36.674a.97.97 0 0 1 .165-.796.96.96 0 0 1 .709-.393c.201-.014 20.387-1.76 28.645-16.753a1.69 1.69 0 0 1 1.527-.892c1.518 0 3.539 1.724 5.83 3.809.439.402.805.732 1.042.919.133.11 11.499 9.483 20.058 14.732.005 0 3.489 1.774 7.613 1.774 7.325 0 11.956-5.304 13.771-15.765a.966.966 0 0 1 .914-.805c.439-.046.864.274.983.718.087.325 8.495 32.609-16.181 44.401-6.373 3.576-15.088 5.725-23.254 5.725m-39.673-36.042c7.279 29.632 27.922 34.095 39.673 34.095 7.85 0 16.208-2.057 22.363-5.505 17.882-8.545 17.297-28.691 16.035-37.689-3.137 10.466-9.524 12.82-14.631 12.82-4.636 0-8.417-1.948-8.573-2.03-8.733-5.354-20.205-14.814-20.319-14.91-.242-.187-.645-.553-1.134-.992-.956-.869-3.438-3.127-4.412-3.292-7.736 13.886-24.461 16.922-29.002 17.503" class="C"/><path d="M-269.086 321.752c-2.03 3.511-5.359 5.075-8.728-3.397 0 0-.576-18.888 11.257-31.009 0 0 8.472-13.241 29.61-5.916 0 0 6.758 3.937 7.878 7.613 0 0 3.932 6.474-2.816 9.579 0 0-12.4 3.091-20.561 7.05-.006-.001-10.453 5.372-16.64 16.08" class="B"/><path d="M-272.592 325.547c-2.291 0-4.293-2.236-6.127-6.831a1 1 0 0 1-.069-.329c-.023-.786-.448-19.377 11.467-31.653.649-.96 6.131-8.486 18.371-8.486 3.841 0 7.988.759 12.318 2.263.059.023.119.046.174.078.288.165 6.973 4.101 8.28 8.056.338.604 1.833 3.511.933 6.451-.581 1.897-2.007 3.383-4.238 4.408a1 1 0 0 1-.169.059c-.123.032-12.4 3.114-20.374 6.982-.082.041-10.251 5.368-16.213 15.687-1.253 2.172-2.762 3.315-4.353 3.315m-4.253-7.389c1.399 3.461 2.945 5.441 4.252 5.441.837 0 1.811-.85 2.666-2.336 6.255-10.832 16.593-16.231 17.031-16.455 7.901-3.831 19.446-6.794 20.68-7.105 1.655-.777 2.698-1.843 3.105-3.159.741-2.396-.782-4.97-.796-4.993a1 1 0 0 1-.096-.219c-.814-2.675-5.505-5.916-7.357-7.005-4.092-1.413-7.992-2.126-11.591-2.126-11.687 0-16.588 7.366-16.794 7.677a1 1 0 0 1-.123.151c-10.826 11.095-10.99 28.259-10.977 30.129" class="C"/><path d="M-229.138 379.247c0 1.952-1.582 3.548-3.548 3.548s-3.534-1.6-3.534-3.548a3.525 3.525 0 0 1 3.534-3.548 3.54 3.54 0 0 1 3.548 3.548" class="B"/><path fill="#00abeb" d="M-84.661 505.056c2.364 0 4.677.594 6.931 1.829a12.87 12.87 0 0 1 5.263 5.189c1.253 2.286 1.884 4.622 1.884 7.069 0 2.437-.613 4.778-1.861 7.014a13.13 13.13 0 0 1-5.203 5.217c-2.24 1.225-4.558 1.847-7.014 1.847-2.428 0-4.746-.622-7-1.847-2.231-1.248-3.973-2.99-5.203-5.217-1.257-2.236-1.879-4.577-1.879-7.014 0-2.446.649-4.782 1.902-7.069 1.262-2.259 3.022-3.982 5.263-5.189 2.249-1.235 4.562-1.829 6.917-1.829m0 2.336c-1.971 0-3.914.503-5.747 1.518-1.884 1.015-3.347 2.455-4.412 4.334-1.056 1.902-1.596 3.868-1.596 5.894 0 2.044.53 3.964 1.577 5.825a10.93 10.93 0 0 0 4.348 4.348c1.875 1.047 3.809 1.568 5.834 1.568 2.039 0 3.973-.521 5.839-1.568 1.87-1.038 3.31-2.492 4.353-4.348 1.033-1.861 1.545-3.777 1.545-5.825 0-2.025-.517-3.992-1.564-5.894a11.01 11.01 0 0 0-4.408-4.334c-1.869-1.015-3.794-1.518-5.769-1.518m-6.186 19.515v-15.171h5.244c1.788 0 3.063.169 3.873.411.828.311 1.459.777 1.929 1.472.48.704.713 1.431.713 2.218 0 1.106-.379 2.062-1.202 2.876-.814.809-1.87 1.257-3.205 1.385q.823.315 1.289.782c.622.613 1.385 1.628 2.272 3.041l1.865 2.986h-3.027l-1.344-2.419c-1.07-1.865-1.929-3.05-2.574-3.534-.453-.352-1.088-.521-1.971-.521h-1.459v6.474zm2.409-8.546h3.054c1.422 0 2.423-.21 2.944-.622.54-.434.791-.978.791-1.683 0-.425-.105-.823-.375-1.193a2.34 2.34 0 0 0-1.047-.786c-.457-.165-1.298-.256-2.515-.256h-2.853z"/><circle cx="-216.898" cy="383.998" r="143.576" fill="none" stroke="#27539b" stroke-width="3.095"/><defs ><path id="B" d="M-274.316 330.965a.97.97 0 0 1-.695-.293c-19.537-19.857-29.184-25.266-31.192-26.263-9.588 5.455-25.906 25.956-26.071 26.167a.973.973 0 0 1-1.527-1.207c.7-.882 17.219-21.645 27.104-26.907a.98.98 0 0 1 .818-.046c.389.155 9.807 4.078 32.257 26.894a.974.974 0 0 1-.694 1.655"/><path id="C" d="M-336.96 345.623a.974.974 0 0 1-.621-1.724c27.282-22.482 33.29-23.474 33.885-23.515.114 0 .224.005.334.037 14.38 4.138 24.109 14.485 24.516 14.924a.974.974 0 0 1-1.426 1.326c-.096-.101-9.684-10.287-23.414-14.316-.96.242-7.777 2.547-32.655 23.048a.98.98 0 0 1-.619.22"/><path id="D" d="M-337.957 355.956a.971.971 0 0 1-.558-1.769c23.839-16.794 39.572-23.547 39.728-23.615a.95.95 0 0 1 .663-.037c7.727 2.336 15.952 12.702 16.3 13.141a.974.974 0 1 1-1.532 1.202c-.078-.101-7.937-10.009-14.992-12.377-2.359 1.052-17.274 7.937-39.042 23.268a.97.97 0 0 1-.567.187"/><path id="E" d="M-152.778 325.053c.69-.416 8.587 11.289 9.016 16.794l2.675-.736s4.517-5.912 13.255-.965c0 0 17.758 4.238 19.706 25.65 0 0 1.971 10.169-3.932 22.55 0 0-4.366 7.741-9.743 2.954l-.956 1.838s15.637 29.738-16.35 67.618c0 0-27.493 35.686-79.081 38.073 0 0-38.329 1.701-71.445-31.013 0 0-33.414-26.062-19.738-75.519 0 0-1.267-1.12-2.259-.283 0 0-8.431 4.371-11.417-5.788 0 0-8.033-16.757 3.53-31.859 0 0 9.14-15.495 20.575-14.919 0 0 6.337-1.129 7.608 5.066 0 0 4.092-13.397 14.796-23.094 0 0 4.801 6.044 8.043-.315 0 0 4.38-15.898 36.77-22.824 0 0 3.662-1.116 4.531-5.907 0 0 19.002-3.557 30.57 1.12 0 0-1.541 8.459 6.643 9.158 0 0 14.654.978 26.633 20.022.008-.003 5.353 5.625 10.57 2.379"/><path id="F" d="M-98.03 341.129a.97.97 0 0 1-.677-.274c-10.059-9.748-25.211-19.651-27.977-21.43-10.502 4.796-20.31 11.997-20.41 12.071-.434.32-1.042.229-1.363-.206s-.229-1.042.206-1.363c.101-.078 10.37-7.617 21.247-12.496a.97.97 0 0 1 .919.064c.174.11 17.539 11.11 28.732 21.956a.979.979 0 0 1-.677 1.678"/><path id="G" d="M-192.679 301.803c2.698.96 16.634 1.687 29.335 20.868 0 0 7.325 8.445 12.962-2.551 0 0 4.083-12.116-11.719-30.433 0 0-3.95-5.628-17.201-7.636 0 0-7.183-1.244-11.106 2.149 0 0-6.913 5.194-6.374 12.235.01 0-.689 3.676 4.103 5.368"/><path id="H" d="M-247.34 392.497c-.69-1.966-4.654 2.364-5.921 3.356 0 0-20.447 17.32-25.659 17.772 0 0-18.17 8.843-20.721-17.772 0 0-6.328 25.371 11.142 39.326 17.48 13.941 63.846 22.267 73.553-25.646-.005 0-26.437.042-32.394-17.036"/></defs></svg>