<svg xmlns="http://www.w3.org/2000/svg" width="329" height="96"><path d="M124.78 27.357c28.766-.579 17.862 20.602 20.942 37.381.842.153 3.769.474 4.024 1.459 1.716 6.641-1.04 9.331-7.711 7.246-3.018-.943-3.897-1.974-5.388-4.747-6.634 4.673-10.524 6.282-19.095 5.123-4.154-.562-8.026-2.808-10.495-6.255-1.224-1.734-1.767-4.207-1.812-6.3-.38-17.78 19.02-14.84 30.77-15.24l.045-2.773c.087-7.124-6.643-8.527-12.398-7.955-5.065.504-6.09 2.749-9.004 6.387-1.742.248-5.507.426-7.157-.176-1.809-2.011 1.287-6.598 2.732-8.263 3.692-4.253 9.144-5.513 14.547-5.888zm3.01 38.544c6.425-2.719 8.203-5.585 8.376-12.459-3.314-.369-10.585-.483-13.891-.067-2.583.242-4.721.543-6.52 2.692a5.92 5.92 0 0 0-1.348 4.387 6.21 6.21 0 0 0 2.284 4.238c3.051 2.492 7.533 2.057 11.099 1.208zM238.164 12.55c2.03-.089 5.661-.512 7.239.696 1.086 1.724.492 16.812.764 20.378 1.528-.928 3.051-2.236 4.562-3.265 7.116-4.85 18.351-4.132 23.647 3.114 5.453 7.46 3.42 17.792 3.866 26.43-.047.909.06 1.87-.001 2.773-.613 8.965 2.824 12.808-8.977 10.745-.37-2.374-.269-6.707-.268-9.223l.013-14.467c-.018-8.768-3.141-15.25-13.196-13.471-3.9.762-7.735 4.397-8.741 8.3-2.14 8.299-.53 17.809-1.065 26.343-.249 3.953-4.176 2.909-6.905 2.879-2.551-.028-2.178-2.19-2.275-3.961l.113-56.003c.011-.617.778-.969 1.224-1.267zm-80.957 15.324c1.664-.021 4-.263 5.308.692.34.459.596 1.029.609 1.604.189 8.058-.305 16.182.082 24.234.371 6.688 3.97 11.815 11.2 11.027 2.77-.302 4.99-.91 7.039-2.921 4.374-4.294 3.967-10.701 3.94-16.299l-.112-11.799c-.012-1.521-.218-4.814.851-5.866 1.112-1.095 6.946-.894 8.059.054.79 1.429.446 13.958.435 16.276l.017 17.114c.001 3.251.061 6.408-.258 9.649-.336 3.414-5.768 2.215-8.126 1.671-.465-1.483-.843-3.356-1.193-4.898-3.3 2.563-6.28 4.886-10.505 5.504-10.516 1.538-18.641-3.763-20.13-14.511-.836-5.774-.441-11.871-.469-17.697-.012-2.455-.521-11.728.608-13.307.749-.514 1.733-.476 2.645-.525zm47.53-15.344 1.702-.06c1.284-.041 5.189-.169 5.501.791.975 2.996.589 11.398.629 14.32 5.27.723 11.146-.507 16.169.805 1.072.28.998 6.185-.068 7.416-1.924.814-13.144.609-15.964.639-.726 6.867.094 14.895-.208 21.877-.068 1.557.114 4.215 1.029 5.514 2.618 1.825 6.995 1.31 10.275 1.27 1.199 0 5.238-.142 5.938.699.961 1.153.803 6.428-.318 7.521-2.499 1.088-14.2.415-17.199-.06-10.942-1.735-9.011-13.161-9.005-21.774l.04-21.539c.012-4.923-.3-10.979.144-15.866.079-.871.709-1.158 1.335-1.553M329 49.344c-.376.878-.77 2.88-.91 3.883-1.099 8.346-5.973 17.968-14.827 20.056-24.912 5.875-31.047-17.525-28.844-36.875 1.169-10.267 4.524-20.456 15.124-23.49 12.846-3.677 24.608 2.731 27.685 15.748.671 2.699 1.004 5.543 1.772 8.205zm-32.235 10.529c1.096 1.796 1.714 2.543 3.444 3.754 5.839 3.482 12.532 2.22 15.951-3.855 3.763-6.688 3.879-15.837 3.043-23.307-.043-.341-.356-.821-.606-1.043-2.549 2.072-20.549 22.007-21.832 24.451m2.528-14.27 9.728-10.817c1.881-2.06 5.836-6.23 7.157-8.426-2.698-4.765-6.318-5.968-11.611-5.466-11.331 1.275-11.698 18.936-10.929 27.516.059.661.193 1.53.705 1.991 1.073-.15 4.039-3.824 4.95-4.797zM30.82 0h5.014c.882 1.113 1.114 1.475 1.02 2.958-1.3 20.451-13.963 36.358-35.079 38.529L0 40.113v-27.35c.517-.697 1.471-2.792 2.107-3.324C6.909 5.43 16.393 3.556 22.41 1.886 25.042 1.155 28.413.882 30.82 0m12.484 0h4.868c2.247 1.05 5.331 1.207 7.777 1.736 5.637 1.22 13.242 3.186 18.324 5.854 2.001 1.051 3.64 2.569 4.315 4.787.692 2.273.687 22.628.42 25.968-.063.795-.202 1.52-.582 2.232-.404.416-1.05.848-1.655.801-14.257-1.118-27.095-11.006-31.789-24.527-1.544-4.249-1.98-8.753-2.799-13.173-.287-1.547.192-2.53 1.123-3.679zm-.773 96c-1.659-3.87 1.193-20.165 2.893-24.354 3.625-8.935 10.592-16.751 19.622-20.451 1.486-.609 12.766-4.559 13.506-2.381.868 2.554-1.372 9.218-2.476 11.947-4.899 11.653-14.135 21.204-23.816 29.048-2.486 2.014-6.305 4.459-8.345 6.191zM0 48.507c4.533-1.217 13.651 2.252 17.662 4.57a37.02 37.02 0 0 1 17.27 22.528c.891 3.34 2.816 17.441 1.813 20.395h-1.482c-1.942-1.755-6.259-4.515-8.678-6.464C16.84 81.682 9.02 73.314 3.417 62.031 1.71 58.594 1.138 53.499 0 51.241z"/></svg>
