<svg xmlns="http://www.w3.org/2000/svg" xml:space="preserve" fill-rule="evenodd" stroke-linecap="round=" stroke-linejoin="round" clip-rule="evenodd" viewBox="0 0 379 114"><path fill="#1F88C0" d="M99.724 45.397c1.202 5.839 1.088 11.6.096 17.129a46 46 0 0 1-5.95 15.71 51 51 0 0 1-3.838 5.502 50 50 0 0 1-4.543 4.93c-4.8 4.539-10.615 8.153-17.363 10.207-5.341 1.676-10.747 2.304-16.018 1.952a44.6 44.6 0 0 1-15.874-4.101l-.483.927a46.3 46.3 0 0 0 16.094 5.577c5.597.847 11.424.675 17.28-.626 7.597-1.775 14.363-5.253 19.9-10.02a43 43 0 0 0 5.256-5.413 42.4 42.4 0 0 0 4.226-6.257c3.007-5.455 4.925-11.53 5.468-17.837.517-5.992-.221-12.161-2.234-18.22zM22.971 85.81c-2.21-2.422-4.186-5.1-5.825-8.036-1.598-2.863-2.87-5.952-3.818-9.227a42 42 0 0 1-.806-4.885c-.667-6.665.412-13.138 2.532-19.168 1.136-3.235 2.65-6.295 4.382-9.23 2.3-3.9 5.034-7.547 8.343-10.704 4.867-4.642 10.771-8.341 17.633-10.456 5.584-1.719 11.243-2.353 16.732-1.844 3.812.351 7.552 1.183 11.059 2.575 3.969 1.576 7.624 3.865 10.916 6.58 3.236 2.67 6.056 5.85 8.43 9.388.312.469.52 1.004.907 1.414.299.311.643.434.994.685L95.87 32c-.087-.445-.08-.823-.266-1.233-.244-.541-.706-.946-1.073-1.408-3.877-4.876-8.666-8.833-14.012-11.812-2.277-1.27-4.658-2.342-7.097-3.27-2.692-1.027-5.462-1.873-8.31-2.467-6.507-1.356-13.378-1.464-20.284.118-7.486 1.714-14.16 5.099-19.63 9.77-3.803 3.252-7.081 7.085-9.52 11.397-1.83 3.237-3.169 6.75-4.06 10.379-1.6 6.535-1.613 13.451-.171 20.353.342 1.634.74 3.262 1.252 4.889a47 47 0 0 0 3.512 9.546 46.8 46.8 0 0 0 5.482 8.643z"/><path fill="none" stroke="#1F88C0" stroke-width="1.05" d="M22 12c0-1.097-.903-2-2-2-.579 0-1.103.251-1.47.649-.328.357-.53.832-.53 1.351 0 1.097.903 2 2 2s2-.903 2-2Z" transform="matrix(-3.37108 -.51457 .51456 -3.3711 159.795 88.455)"/><path fill="#1F88C0" d="M83.877 51.713s1.192-1.112 2.678-2.57c2.612-2.567 6.115-6.153 6.115-6.153l-1.15-1.346s-4.088 2.903-7.032 5.08c-1.67 1.243-2.955 2.248-2.955 2.248z"/><g fill="none" stroke="#22B638" stroke-width="1.89"><path stroke-linecap="butt" stroke-linejoin="miter" d="M9.876 21h8.286a.84.84 0 0 0 .838-.838v-8.324a.84.84 0 0 0-.838-.838H5.838a.84.84 0 0 0-.838.838v4.92" transform="matrix(3.11425 0 0 3.11427 20.035 18.825)"/><path d="M8 11V7c0-2.194 1.806-4 4-4s4 1.806 4 4v4" transform="matrix(3.11425 0 0 3.11427 20.035 18.825)"/></g><path fill="none" stroke="#1F88C0" stroke-width=".98" d="M22 12a2.009 2.009 0 0 0-2-2c-1.097 0-2 .903-2 2s.903 2 2 2 2-.903 2-2Z" transform="scale(5.35536 5.3554)rotate(7.483 -19.748 -92.705)"/><path fill="#1F88C0" d="M54.548 67.4s-6.574 3.92-11.295 6.969a130 130 0 0 0-4.695 3.174l4.191 5.357s1.886-1.621 4.206-3.799c4.094-3.85 9.487-9.286 9.487-9.286z"/><path fill="#2F2F2F" d="M164.019 38.416a25.3 25.3 0 0 0-9.108-2.936c-13.948-1.712-26.664 8.227-28.376 22.174s8.223 26.665 22.171 28.377a25.5 25.5 0 0 0 17.086-3.994l-5.218-7.948c-3.16 2.078-6.936 2.747-10.71 2.504-5.993-.38-11.8-6.199-12.674-14.837-.272-12.245 7.82-17.91 16.563-16.837 2.002.246 3.94.868 5.709 1.834z"/><path fill="#2F2F2F" fill-rule="nonzero" d="M185.464 85.607c-4.61 0-8.468-1.13-11.855-3.388q-4.94-3.387-7.622-9.033c-1.788-3.857-2.729-7.998-2.729-12.608 0-4.799 1.035-9.033 3.011-12.797 2.07-3.857 4.987-6.868 8.75-9.127 3.765-2.164 8.375-3.293 13.644-3.293s9.692 1.13 13.361 3.387q5.505 3.248 8.469 9.033c1.882 3.764 2.917 7.998 2.917 12.609v24.087h-10.821V75.54h-.188a20.7 20.7 0 0 1-3.67 4.987c-1.505 1.505-3.387 2.728-5.551 3.67-2.164.94-4.799 1.41-7.716 1.41m2.917-9.222c2.823 0 5.27-.658 7.433-2.07 2.07-1.41 3.764-3.387 4.893-5.833 1.13-2.353 1.694-5.081 1.694-8.092s-.565-5.74-1.694-8.092q-1.694-3.529-4.799-5.646c-2.07-1.411-4.61-2.07-7.433-2.07-3.01 0-5.551.659-7.715 2.07-2.07 1.412-3.764 3.388-4.893 5.74-1.13 2.446-1.694 5.08-1.694 8.092 0 2.917.565 5.645 1.694 8.092 1.129 2.352 2.728 4.328 4.893 5.74 2.07 1.41 4.61 2.07 7.621 2.07M240.696 85.607c-3.858 0-7.245-.565-10.35-1.882-3.106-1.223-5.74-2.917-7.904-5.27-2.164-2.258-3.858-4.986-4.987-8.186-1.223-3.199-1.788-6.68-1.788-10.538 0-4.893 1.035-9.127 3.011-12.797 1.976-3.575 4.705-6.492 8.186-8.468 3.482-2.07 7.527-3.105 12.044-3.105 2.258 0 4.328.376 6.398 1.035s3.858 1.694 5.458 2.917c1.693 1.317 3.01 2.729 3.951 4.422h.094V15.79h10.821v44.13c0 5.268-1.035 9.879-3.199 13.737-2.07 3.858-4.987 6.774-8.75 8.845-3.67 2.07-8.093 3.105-12.985 3.105m0-9.222q4.093 0 7.339-1.975c2.07-1.412 3.67-3.2 4.893-5.646 1.129-2.352 1.787-5.081 1.787-8.28 0-3.105-.658-5.834-1.787-8.28-1.224-2.353-2.823-4.235-4.987-5.552-2.07-1.411-4.517-2.07-7.34-2.07-2.728 0-5.08.659-7.245 2.07-2.07 1.412-3.763 3.2-4.986 5.646-1.13 2.352-1.788 5.08-1.788 8.186s.658 5.834 1.788 8.28c1.223 2.352 2.916 4.234 5.08 5.551 2.07 1.412 4.517 2.07 7.246 2.07M292.259 85.607c-3.858 0-7.246-.565-10.35-1.882-3.106-1.223-5.74-2.917-7.904-5.27-2.165-2.258-3.858-4.986-4.987-8.186-1.223-3.199-1.788-6.68-1.788-10.538 0-4.893 1.035-9.127 3.01-12.797 1.977-3.575 4.706-6.492 8.187-8.468 3.481-2.07 7.527-3.105 12.044-3.105 2.258 0 4.328.376 6.398 1.035s3.858 1.694 5.457 2.917c1.694 1.317 3.011 2.729 3.952 4.422h.094V15.79h10.821v44.13c0 5.268-1.035 9.879-3.2 13.737-2.07 3.858-4.986 6.774-8.75 8.845-3.67 2.07-8.092 3.105-12.984 3.105m0-9.222q4.093 0 7.339-1.975c2.07-1.412 3.67-3.2 4.893-5.646 1.129-2.352 1.787-5.081 1.787-8.28 0-3.105-.658-5.834-1.787-8.28-1.224-2.353-2.823-4.235-4.987-5.552-2.07-1.411-4.517-2.07-7.34-2.07-2.728 0-5.08.659-7.245 2.07-2.07 1.412-3.763 3.2-4.987 5.646-1.129 2.352-1.787 5.08-1.787 8.186s.658 5.834 1.787 8.28c1.224 2.352 2.917 4.234 5.081 5.551 2.07 1.412 4.517 2.07 7.246 2.07M337.265 100.25l8.122-14.76c-11.493 1.186-14.91-2.317-17.433-4.25q-3.785-2.897-5.876-7.32-2.091-4.422-2.091-9.748V36.491h10.345v27.607q0 3.612 1.596 6.397 1.595 2.785 4.244 4.338t5.768 1.552q3.153 0 5.813-1.562 2.658-1.561 4.262-4.337 1.605-2.776 1.605-6.388V36.49h10.309v27.681c0 3.563-.905 13.077-6.564 21.317-1.817 2.646-7.942 14.76-7.942 14.76zM370.792 27.407V23.19h1.868q.408 0 .742.18a1.35 1.35 0 0 1 .729 1.236q-.002.424-.211.741c-.139.217-.32.38-.549.5l.416.79a.3.3 0 0 0 .085.102c.036.024.072.03.126.03h.356v.64h-.464a.83.83 0 0 1-.44-.121.96.96 0 0 1-.308-.332l-.494-.946q-.055.007-.12.006h-1.0190000000000001v1.392zm.717-2.025h1.061q.233 0 .422-.09a.74.74 0 0 0 .307-.271.76.76 0 0 0 .109-.416.74.74 0 0 0-.115-.422.75.75 0 0 0-.301-.265.9.9 0 0 0-.416-.096h-1.067z"/><circle cx="3866.43" cy="1926.14" r="8.923" fill="none" stroke="#2F2F2F" stroke-linecap="butt" stroke-linejoin="miter" stroke-width="2" transform="matrix(.49701 0 0 .49702 -1549.228 -931.96)"/></svg>
