<svg xmlns="http://www.w3.org/2000/svg" viewBox="0 0 356 121.5"><path fill="#0a8dff" d="M61.82 106.16c-24.99 0-45.32-20.33-45.32-45.33a45.22 45.22 0 0 1 11.84-30.55l11.82 10.79a29.24 29.24 0 0 0-7.66 19.76c0 16.17 13.15 29.33 29.32 29.33S91.15 77 91.15 60.83 77.99 31.5 61.82 31.5V15.51c24.99 0 45.33 20.33 45.33 45.33s-20.33 45.33-45.33 45.33z"/><g fill="#ff9036"><path d="M159.69 49.86c0 2.11-.36 4.07-1.09 5.88s-1.75 3.39-3.07 4.73-2.91 2.39-4.77 3.15-3.92 1.14-6.19 1.14-4.33-.38-6.2-1.14-3.46-1.81-4.79-3.15-2.35-2.92-3.08-4.73-1.09-3.77-1.09-5.88.36-4.07 1.09-5.88 1.75-3.39 3.08-4.72 2.92-2.38 4.79-3.14 3.93-1.14 6.2-1.14 4.33.38 6.19 1.15 3.45 1.82 4.77 3.15 2.34 2.91 3.07 4.72 1.09 3.77 1.09 5.86m-6.92 0c0-1.44-.19-2.74-.56-3.89s-.91-2.13-1.61-2.93-1.56-1.41-2.57-1.84-2.17-.64-3.46-.64-2.47.21-3.49.64-1.88 1.04-2.58 1.84-1.24 1.78-1.61 2.93-.56 2.45-.56 3.89.19 2.76.56 3.91.91 2.13 1.61 2.93 1.56 1.41 2.58 1.83 2.18.63 3.49.63 2.45-.21 3.46-.63a6.9 6.9 0 0 0 2.57-1.83c.7-.8 1.24-1.78 1.61-2.93s.56-2.46.56-3.91m16.92 4.84v9.74h-6.76V35.3h10.28c2.05 0 3.82.24 5.29.73s2.69 1.16 3.64 2.01 1.66 1.86 2.11 3.02.68 2.41.68 3.76c0 1.45-.23 2.79-.7 4a8.1 8.1 0 0 1-2.14 3.12c-.96.87-2.18 1.54-3.65 2.03s-3.22.73-5.23.73zm0-5.1h3.52c1.76 0 3.03-.42 3.8-1.26s1.16-2.01 1.16-3.52c0-.67-.1-1.27-.3-1.82s-.5-1.02-.91-1.41-.92-.7-1.54-.91-1.36-.32-2.21-.32h-3.52z"/><use href="#a"/><path d="M215.35 35.34q.3.045.54.15c.24.105.31.18.46.31s.31.31.5.54l13.84 17.5-.12-1.63-.04-1.49V35.3h5.96v29.14h-3.52q-.78 0-1.32-.24c-.54-.24-.71-.45-1.04-.88l-13.74-17.36.1 1.49.04 1.37v15.62h-5.96V35.3h3.56c.29 0 .54.01.74.04m47.1-.04v5.36h-8.2v23.78h-6.76V40.66h-8.2V35.3zm10.2 29.14h-6.8V35.3h6.8zm21.07-11.74.71 1.68.72-1.71.78-1.61 7.48-14.74c.13-.25.27-.45.41-.59s.3-.24.47-.31.37-.1.59-.1h5.93v29.12h-5.96V47.68l.12-2.64-7.72 14.98c-.24.47-.56.82-.97 1.06s-.87.36-1.39.36h-.92c-.52 0-.98-.12-1.39-.36s-.73-.59-.97-1.06l-7.76-15 .12 1.39.04 1.27v16.76h-5.96V35.32h5.93c.22 0 .42.03.59.1s.33.17.47.31.28.34.41.59l7.5 14.8z"/><use x="127.16" href="#a"/></g><path d="M135.7 85.62v7.04h-1.12V77.09h3.97c1.8 0 3.14.35 4.03 1.04s1.33 1.71 1.33 3.05c0 .59-.1 1.14-.31 1.63s-.5.92-.89 1.29c-.38.37-.85.67-1.39.91s-1.15.39-1.84.47c.18.11.33.26.47.44l5.36 6.73h-.98c-.12 0-.22-.02-.3-.07a.8.8 0 0 1-.25-.22l-4.98-6.31c-.12-.16-.26-.28-.4-.34-.14-.07-.36-.1-.67-.1h-2.03zm0-.83h2.71c.69 0 1.31-.08 1.85-.25.55-.17 1.01-.4 1.39-.71a3 3 0 0 0 .86-1.11c.2-.43.3-.92.3-1.46 0-1.11-.36-1.93-1.09-2.46-.73-.54-1.78-.8-3.17-.8h-2.85v6.8zm20.58-3.25c.62 0 1.19.11 1.71.32s.98.52 1.36.93q.585.615.9 1.5c.315.885.32 1.28.32 2.05 0 .16-.02.27-.07.33s-.12.09-.23.09h-7.9v.21c0 .82.1 1.54.29 2.17.19.62.46 1.15.81 1.57a3.3 3.3 0 0 0 1.28.95c.5.21 1.06.32 1.67.32.55 0 1.03-.06 1.43-.18s.74-.26 1.02-.41.49-.29.65-.41.28-.18.35-.18c.1 0 .17.04.22.11l.29.35c-.18.22-.41.43-.7.62s-.61.35-.97.49-.74.24-1.14.33a6.4 6.4 0 0 1-1.23.12c-.75 0-1.43-.13-2.05-.39s-1.14-.64-1.59-1.14q-.66-.75-1.02-1.83c-.36-1.08-.36-1.55-.36-2.48 0-.78.11-1.51.34-2.17.22-.66.55-1.24.97-1.72s.94-.86 1.55-1.13 1.31-.41 2.08-.41zm.01.78c-.56 0-1.07.09-1.52.26a3.25 3.25 0 0 0-1.16.76c-.33.33-.59.73-.79 1.19s-.33.98-.4 1.55h7.21c0-.59-.08-1.11-.24-1.58s-.39-.86-.68-1.18-.64-.57-1.05-.74-.86-.26-1.36-.26zm13.01-5.66v16h-1.05v-16z"/><use href="#b"/><path d="M195.53 81.72v12.34c0 .38-.05.73-.17 1.06-.11.32-.27.6-.49.84s-.49.42-.81.56c-.33.14-.71.2-1.15.2a3.3 3.3 0 0 1-.57-.05c-.17-.04-.33-.1-.5-.18l.05-.53c0-.09.06-.13.15-.13.06 0 .14.01.25.04s.25.04.43.04q.885 0 1.32-.48c.435-.48.43-.78.43-1.38V81.71h1.04zm.47-3.77c0 .13-.03.25-.08.37-.05.11-.13.21-.21.3a.85.85 0 0 1-.31.21c-.12.05-.24.08-.37.08a.9.9 0 0 1-.37-.08c-.11-.05-.22-.12-.31-.21a1 1 0 0 1-.21-.3.9.9 0 0 1-.08-.37c0-.13.03-.26.08-.38a.85.85 0 0 1 .21-.31c.09-.09.19-.16.31-.21s.24-.08.37-.08a.9.9 0 0 1 .37.08c.12.05.22.12.31.21s.16.19.21.31.08.25.08.38m28.55 12.09c.07 0 .14.03.19.08l.44.47c-.32.34-.67.66-1.06.93a6 6 0 0 1-1.25.7c-.45.19-.95.34-1.49.45s-1.13.16-1.78.16c-1.08 0-2.07-.19-2.96-.57-.9-.38-1.67-.91-2.31-1.61-.64-.69-1.14-1.53-1.5-2.51s-.54-2.08-.54-3.28.18-2.26.56-3.23a7.4 7.4 0 0 1 1.56-2.51 7 7 0 0 1 2.41-1.63c.93-.39 1.97-.58 3.1-.58.56 0 1.08.04 1.55.13a7 7 0 0 1 1.31.36 6 6 0 0 1 1.15.59c.36.24.71.51 1.06.81l-.34.5c-.06.09-.15.13-.27.13-.07 0-.15-.04-.25-.12l-.39-.29-.57-.37c-.22-.13-.49-.26-.8-.37s-.66-.21-1.07-.29-.86-.12-1.38-.12c-.95 0-1.82.16-2.61.49a5.9 5.9 0 0 0-2.05 1.4c-.57.61-1.02 1.34-1.34 2.2s-.48 1.83-.48 2.9.16 2.08.47 2.95.75 1.6 1.31 2.19 1.22 1.06 1.97 1.38 1.58.48 2.47.48c.56 0 1.05-.04 1.49-.11a5.5 5.5 0 0 0 1.21-.33 5.5 5.5 0 0 0 1.02-.54c.32-.21.63-.46.94-.75l.1-.07q.045-.03.12-.03zm8.2 2.62v-16h1.04v6.93c.51-.62 1.08-1.12 1.73-1.49a4.34 4.34 0 0 1 2.18-.56c.6 0 1.13.1 1.59.29s.84.47 1.14.83.53.79.68 1.3.23 1.08.23 1.72v7h-1.04v-7c0-1.03-.23-1.83-.7-2.41s-1.19-.88-2.16-.88c-.72 0-1.39.19-2 .56-.62.37-1.17.88-1.65 1.52v8.21h-1.04zm20.58-11.12c.62 0 1.19.11 1.71.32s.98.52 1.36.93a4.3 4.3 0 0 1 .9 1.5c.22.59.32 1.28.32 2.05 0 .16-.02.27-.07.33s-.12.09-.23.09h-7.9v.21c0 .82.1 1.54.29 2.17.19.62.46 1.15.81 1.57a3.3 3.3 0 0 0 1.28.95c.5.21 1.06.32 1.67.32.55 0 1.03-.06 1.43-.18s.74-.26 1.02-.41a6 6 0 0 0 .65-.41c.16-.12.28-.18.35-.18.1 0 .17.04.22.11l.29.35c-.18.22-.41.43-.7.62s-.61.35-.97.49-.74.24-1.14.33a6.4 6.4 0 0 1-1.23.12c-.75 0-1.43-.13-2.05-.39a4.3 4.3 0 0 1-1.59-1.14q-.66-.75-1.02-1.83c-.36-1.08-.36-1.55-.36-2.48 0-.78.11-1.51.34-2.17.22-.66.55-1.24.97-1.72s.94-.86 1.55-1.13 1.31-.41 2.08-.41zm.01.78c-.56 0-1.07.09-1.52.26a3.25 3.25 0 0 0-1.16.76c-.33.33-.59.73-.79 1.19s-.33.98-.4 1.55h7.21c0-.59-.08-1.11-.24-1.58s-.39-.86-.68-1.18-.64-.57-1.05-.74-.86-.26-1.36-.26zm18.86.86s-.07.07-.1.09c-.03.03-.08.04-.14.04q-.105 0-.3-.15c-.195-.15-.3-.21-.51-.33s-.48-.23-.8-.32c-.32-.1-.71-.15-1.16-.15q-.945 0-1.68.33c-.735.33-.9.54-1.23.96a4.3 4.3 0 0 0-.76 1.52c-.18.59-.26 1.26-.26 2s.09 1.45.27 2.05c.18.59.43 1.09.76 1.5s.73.72 1.2.93.99.32 1.56.32c.53 0 .97-.06 1.33-.19.36-.12.65-.26.88-.41s.42-.28.55-.41c.13-.12.24-.19.32-.19.09 0 .17.04.22.11l.29.35c-.17.22-.38.43-.64.62s-.55.36-.87.5a4.8 4.8 0 0 1-1.05.32c-.38.07-.77.12-1.18.12-.7 0-1.33-.13-1.91-.38s-1.07-.62-1.49-1.1a5.2 5.2 0 0 1-.97-1.76c-.23-.7-.35-1.49-.35-2.38 0-.84.11-1.6.33-2.29s.54-1.28.96-1.78a4.25 4.25 0 0 1 1.55-1.16c.61-.27 1.31-.41 2.11-.41.71 0 1.34.11 1.9.34a4.9 4.9 0 0 1 1.45.92l-.27.37zm14.35 9.48c-.22 0-.36-.1-.41-.31l-.15-1.4-.9.79a5.2 5.2 0 0 1-.93.59c-.32.16-.67.28-1.04.37-.37.08-.79.13-1.23.13-.37 0-.74-.05-1.09-.17q-.525-.165-.93-.51c-.405-.345-.49-.52-.65-.87-.17-.36-.25-.78-.25-1.28 0-.46.13-.89.4-1.29.26-.4.68-.74 1.24-1.03s1.28-.53 2.17-.7 1.95-.28 3.18-.31v-1.14c0-1.01-.22-1.79-.65-2.34-.44-.55-1.08-.82-1.94-.82-.53 0-.98.07-1.35.22s-.68.31-.94.48l-.63.48c-.16.15-.3.22-.41.22-.15 0-.26-.07-.33-.2l-.19-.32c.57-.57 1.17-1 1.8-1.3.63-.29 1.35-.44 2.14-.44.59 0 1.1.09 1.54.28s.8.46 1.09.8c.29.35.51.77.65 1.27s.22 1.05.22 1.66v7.13h-.42zm-4.4-.58a4.8 4.8 0 0 0 1.17-.14 4.3 4.3 0 0 0 .99-.38 4.5 4.5 0 0 0 .85-.59l.78-.74v-2.85c-1.04.03-1.94.11-2.69.24s-1.37.3-1.86.52-.85.48-1.08.79c-.23.3-.35.65-.35 1.04a2.3 2.3 0 0 0 .18.95 1.8 1.8 0 0 0 .48.66 1.9 1.9 0 0 0 .69.38c.26.08.54.12.83.12zm20.43.58c-.18 0-.29-.1-.32-.29l-.11-1.73c-.48.66-1.05 1.18-1.7 1.57s-1.38.58-2.19.58c-1.34 0-2.39-.46-3.14-1.4s-1.13-2.33-1.13-4.19c0-.8.1-1.54.31-2.24q.315-1.035.93-1.8a4.5 4.5 0 0 1 1.5-1.21c.59-.29 1.27-.44 2.04-.44s1.38.14 1.93.41c.54.28 1.01.68 1.41 1.21v-6.49h1.04v16h-.58zm-4.02-.7a3.6 3.6 0 0 0 1.97-.56c.59-.37 1.11-.89 1.58-1.56v-5.77c-.43-.62-.89-1.06-1.41-1.32-.51-.26-1.09-.38-1.74-.38s-1.21.12-1.7.35-.89.57-1.22 1-.57.94-.74 1.54-.25 1.26-.25 1.97c0 1.63.3 2.83.9 3.59s1.46 1.15 2.59 1.15z"/><use x="133.65" href="#b"/><path d="M327.84 92.66V81.71h.55c.12 0 .21.03.27.08.05.05.09.14.09.26l.09 2.31c.35-.89.82-1.58 1.41-2.08s1.31-.75 2.17-.75a4.3 4.3 0 0 1 .91.1 3.6 3.6 0 0 1 .79.3l-.14.73c-.02.12-.1.18-.22.18a.6.6 0 0 1-.19-.04l-.3-.1c-.12-.04-.27-.07-.45-.1s-.38-.04-.6-.04c-.83 0-1.51.26-2.04.77s-.96 1.25-1.29 2.22v7.12h-1.04z"/><defs><path id="a" d="M207.21 35.3v5.2h-11.96v6.8h9.16v5h-9.16v6.94h11.96v5.2h-18.76V35.3z"/><path id="b" d="M181.9 81.54c.78 0 1.49.13 2.11.4s1.14.65 1.57 1.14c.42.49.75 1.08.97 1.78.22.69.33 1.47.33 2.33s-.11 1.63-.33 2.32-.55 1.28-.97 1.77c-.43.49-.95.87-1.57 1.13s-1.32.4-2.11.4-1.49-.13-2.11-.4c-.62-.26-1.14-.64-1.57-1.13s-.76-1.08-.98-1.77-.34-1.46-.34-2.32.11-1.63.34-2.33c.22-.69.55-1.29.98-1.78s.95-.87 1.57-1.14 1.32-.4 2.11-.4m0 10.44c.65 0 1.22-.11 1.71-.34.49-.22.89-.54 1.22-.96s.57-.92.73-1.51.24-1.25.24-1.99-.08-1.39-.24-1.98-.41-1.1-.73-1.52a3.2 3.2 0 0 0-1.22-.97c-.49-.23-1.06-.34-1.71-.34s-1.22.11-1.71.34-.89.55-1.22.97-.57.93-.74 1.52-.25 1.25-.25 1.98.08 1.39.25 1.99c.17.59.41 1.09.74 1.51s.73.74 1.22.96 1.06.34 1.71.34"/></defs></svg>