<?xml version="1.0" encoding="UTF-8"?><svg id="Capa_1" xmlns="http://www.w3.org/2000/svg" xmlns:xlink="http://www.w3.org/1999/xlink" viewBox="0 0 1002 329"><defs><linearGradient id="linear-gradient" x1="691.75" y1="-805" x2="691.75" y2="-710.56" gradientTransform="translate(686.82 855.55) rotate(-76) scale(1.03 .97) skewX(13.21)" gradientUnits="userSpaceOnUse"><stop offset="0" stop-color="#b3de0a"/><stop offset="1" stop-color="#34ca67"/></linearGradient><linearGradient id="linear-gradient-2" x1="641.62" y1="-752.93" x2="741.88" y2="-752.93" xlink:href="#linear-gradient"/></defs><path d="M15.19,74.52c.11,51.51-1.27,190.86.48,208.77,11.78.53,29.82.01,45.8.19,5.92.02,10.75-.05,13.33.04,3.21-.29,3.18,3.05,3.18,5.45.05,5.31,0,15.96.03,21.48.19,1.61-.38,3.87.98,4.76,11.88-5.26,42.31-24.33,52.95-29.77,1.56-.78,2.43-.88,4.32-.93,15.55-.03,48.38,0,58.38-.01,1.03.03,1.93-.03,2.7-.14.35-.08.51-.22.58-.43.14-1.53.05-2.79.07-4.9,0-36.71.01-257.06,0-268.78-.02-.36-.06-.54-.24-.58-.32-.07-1.22.32-3.06.96C145.07,28.36,63.77,56.76,15.2,74.51v.02Z" style="fill:#62748e;"/><path d="M223.14,9.9c-.82-.17-1.07-.17-1.13.43-.01,52.19,0,148.2,0,207.07,0,33,0,57.98,0,62.74.11,1.48,2.27.85,3.37,1.07,4.44.05,11.02.06,15.39,0,.94,0,3.05.07,3.2-.81.07-18.54.03-248.78,0-262.51-.35-1.27-2.99-1.8-4.28-2.35-4.8-1.55-11.61-4.24-16.49-5.61l-.07-.02Z" style="fill:#62748e;"/><path d="M942.18,36.49c39.82,47.67-5.16,142.09-87.73,214.6-35.88,31.75-81.4,59.22-119.85,72.61-.9.32-1.76.63-2.53.91-2.58.94-3.77,1.48-2.84,1.45,49.12-8.1,109.51-40.85,156.73-82.39,83.63-74.58,131.27-169.43,84.14-218.73-26.15-23.83-64.95-21.09-98.9-12.74-2.11.63-5.94,1.37-7.37,2.37-.11.25,1,.26,2.96.14,30.88-2.97,58.07,2.16,75.28,21.68l.1.12Z" style="fill:#5a6e7f;"/><path d="M284.72,75.33c4.08-6.92,9.81-13.15,16.76-17.16,12.22-7.39,30.36-7.06,39.96,3.9,4.91,5.43,7.35,11.79,8.43,19.34.15,1.88.66,3.19-.72,3.52-4.2,0-14.09.27-17.89-.12-1.52-1-1.64-3.52-2.99-5.24-5.5-8.48-18.15-7.23-24.57-.19-7.79,8.02-10.71,21.36-8.87,32.71,2.94,16.54,21.75,17.33,30.12,4.41.82-1.2,1.62-2.64,3.25-2.5,3.52,0,13.5-.02,16.62.01,1.65,0,.61,1.87.28,2.81-1.27,3.13-2.77,6.09-4.46,8.78-9.81,16.51-31.46,25.9-48.99,16.36-21.85-13-18.15-47.33-7.03-66.48l.1-.17Z" style="fill:#363e51;"/><path d="M371.37,141.1c-18.21-12.62-17.11-41.62-10.24-59.74,3.54-9.16,9.53-17.47,17.34-22.61,8.82-5.97,20.43-8.06,30.71-5.2,18.57,5.37,24.13,26.85,22.13,44.17-1.23,15.49-7.8,31.67-20.19,40.71-10.77,8.12-27.78,10.7-39.6,2.77l-.15-.1ZM402.79,120.94c7.34-6.17,10.76-17.03,10.98-26.69.38-8.48-2.33-18.29-11.05-20.82-5.68-1.61-11.99-.29-16.45,3.23-11.48,8.33-16.21,33.29-6.87,44.1,5.61,6.48,16.99,5.78,23.25.3l.14-.12Z" style="fill:#363e51;"/><path d="M455.78,127.96c2.67.2,19.71-.17,23.18.14.14.09.18.25.17.55-.21,1.86-1.77,12.45-2.16,15.25-.1.44-.04.95-.49,1.07-.91.04-1.7.02-2.92.02-7.43,0-28.35,0-35.89,0-1.33,0-2.1.02-2.32-.02-.12-.02-.14-.07-.13-.18.52-3.67,12.59-88.31,13.09-91.62.04-.11.14-.15.49-.17,3.93,0,13.03-.03,16.06-.01.77.04,1.3-.12,1.42.22-.17,1.45-2.22,15.61-4.44,31.23-1.52,11.42-5.41,36.31-6.08,43.5h.03Z" style="fill:#363e51;"/><path d="M533.29,129.17c-2.62-.46-22.48-.04-26.35-.17-.55-.03-.89.17-1.09.69-.85,1.96-5,12.01-6.03,14.42-.26.67-.61.92-1.38.89-2.75.01-13.67,0-16.64,0-.87-.04-1.16.09-1.02-.28,2.16-4.83,37.21-85.88,39.43-90.63,4.92-.24,14.98,0,18.97-.09.96.06,1.34-.14,1.73.16,2.3,15.32,10.61,70.82,13.27,88.65.13.88.23,1.39.29,2.02-.07.21-.3.15-.57.17-1.99,0-14.74.02-17.51,0-.33-.01-.65-.04-.82-.3-.96-4.15-1.35-11.6-2.24-15.47l-.03-.04ZM531.38,111.98c-.76-8.32-2.97-23.3-4.01-32.28-.09-.7-.15-1.18-.18-1.39-.02-.13-.05-.16-.09-.09-.55,1.26-12.78,30.62-13.97,33.48-.22.57.55.28,1.52.36,3.18-.04,13.08.09,16.7-.06l.03-.02Z" style="fill:#363e51;"/><path d="M623.87,91.04c-1.72,2.17-4,4.24-6.43,5.63-1.55.93-3.22,1.38-1.53,2.38,13.37,6.84,10.68,27.39,2.28,36.93-6.16,7.37-15.57,9.49-25.2,9.01-8.13,0-23.62,0-28.56,0-1.89-.01-1.57.12-1.49-.68,1.96-13.51,12.06-85.28,12.91-90.25,8.27-.22,28.05,0,32.25-.07,9.64-.29,18.82,3.98,20.9,13.57,1.74,7.77-.29,17.35-5.01,23.33l-.12.15ZM607.68,115c-.1-6.42-5.34-8.44-11-8-2.98,0-8.14,0-9.85,0-.77-.02-1,.13-1.06.81-.44,3.09-2.56,17.7-2.82,19.72-.03.46.24.45,1.29.46,2,0,6.61,0,9.44,0,8.9.65,13.72-3.72,14.01-12.81v-.18ZM607.56,88.36c4.02-3.71,5.54-13.5-.33-16.44-4.09-1.67-9.68-.66-14.06-.92-1.33.01-1.97-.05-2.18.2-.35.61-.29,1.73-.63,3.68-.61,5.49-2.34,14.34-2.05,16,2.85.33,7.74.02,10.27.12,3.02.12,6.72-.51,8.85-2.52l.13-.11Z" style="fill:#363e51;"/><path d="M650.45,141.1c-18.21-12.62-17.11-41.62-10.24-59.74,3.54-9.16,9.53-17.47,17.34-22.61,8.82-5.97,20.44-8.06,30.71-5.2,18.57,5.37,24.13,26.85,22.13,44.17-1.23,15.49-7.8,31.67-20.19,40.71-10.77,8.12-27.78,10.7-39.6,2.77l-.15-.1ZM681.86,120.94c8.3-7.05,11.53-19.61,10.91-30.45-.42-7.62-3.6-14.84-10.99-17.06-5.68-1.61-11.99-.29-16.45,3.23-11.48,8.33-16.2,33.29-6.87,44.1,5.61,6.48,16.99,5.78,23.25.3l.14-.12Z" style="fill:#363e51;"/><path d="M774.87,60.54c5.68,5.98,6.74,15.23,5.31,23.14-1.72,10.79-8.32,20.75-18.63,24.82-.92.45-1.16.76-.96,1.36,1.5,4.59,10.07,30.69,11.3,34.47.1.35.2.58-.25.64-4.45.07-15.84.02-18.55.03-.95.03-1.11-.19-1.34-1.13-2.52-8.35-7.06-23.42-9.66-32.05-.39-1.13-.23-1.63-1.38-1.74-.82-.09-1.76-.08-2.57-.01-.72.09-.98.19-1.08.76-.92,4.57-4,31.65-5.2,34.1-3.74.23-12.36,0-16.01.08-1.65,0-1.3-.04-1.26-.69,1.76-10.83,11.91-86.56,13.1-90.29,6.74-.08,20.2,0,26.86-.02,7.22-.35,15.73,1.23,20.21,6.41l.12.13ZM762.38,80.46c-.1-6.75-4.86-8.88-10.95-8.46-1.83,0-4.54,0-6.36,0-.76,0-1.35,0-1.73.02-.55.04-.69.1-.77.56-.39,2.65-2.75,19.2-3.12,21.85-.06.52.12.57,1.16.57,1.6,0,5.26,0,7.54,0,9.51.79,14.06-5.27,14.24-14.35v-.19Z" style="fill:#363e51;"/><path d="M830.73,129.17c-2.62-.46-22.48-.04-26.35-.17-.55-.03-.89.17-1.09.69-.85,1.96-5,12.01-6.03,14.42-.26.67-.61.92-1.38.89-2.75.01-13.67,0-16.64,0-.87-.04-1.16.09-1.02-.28,2.16-4.83,37.21-85.88,39.43-90.63,4.92-.24,14.98,0,18.97-.09.96.06,1.34-.14,1.73.16,2.3,15.32,10.61,70.82,13.27,88.65.13.88.23,1.39.29,2.02-.07.21-.3.15-.57.17-1.99,0-14.75.02-17.51,0-.33-.01-.65-.04-.82-.3-.96-4.15-1.35-11.6-2.24-15.47l-.03-.04ZM828.82,111.98c-.76-8.32-2.97-23.3-4.01-32.28-.09-.7-.15-1.18-.18-1.39-.02-.13-.05-.16-.09-.09-.55,1.26-12.77,30.62-13.97,33.48-.22.57.55.28,1.52.36,3.18-.04,13.08.09,16.7-.06l.03-.02Z" style="fill:#363e51;"/><path d="M360.16,199.41l-25.71,47.13h-10.08l-4.22-35.67-19.31,35.67-10,.07-5.78-47.19h9.46l3.44,38.38,20.01-38.38h10l3.6,38.18,19.07-38.18h9.54Z" style="fill:#363e51;"/><path d="M370.79,244.5c-3.49-1.67-6.2-4.02-8.13-7.05-1.93-3.03-2.89-6.46-2.89-10.31,0-5.38,1.39-10.23,4.18-14.54,2.79-4.32,6.64-7.7,11.57-10.14,4.92-2.44,10.43-3.66,16.53-3.66,4.64,0,8.7.84,12.19,2.51,3.49,1.67,6.2,4.01,8.13,7.02,1.93,3.01,2.89,6.43,2.89,10.27,0,5.38-1.4,10.24-4.18,14.58-2.79,4.34-6.64,7.73-11.57,10.17-4.92,2.44-10.46,3.66-16.61,3.66-4.59,0-8.62-.84-12.11-2.51ZM395.52,237.18c3.31-1.9,5.89-4.44,7.74-7.63,1.85-3.19,2.77-6.66,2.77-10.41,0-4.11-1.34-7.36-4.02-9.73-2.68-2.37-6.42-3.56-11.22-3.56-4.27,0-8.06.94-11.37,2.81-3.31,1.88-5.88,4.4-7.7,7.56-1.82,3.17-2.74,6.65-2.74,10.44,0,4.11,1.34,7.37,4.03,9.76,2.68,2.4,6.4,3.59,11.14,3.59,4.27,0,8.06-.95,11.37-2.85Z" style="fill:#363e51;"/><path d="M459.97,202.59c2.81,2.13,4.22,4.88,4.22,8.27,0,.59-.1,1.47-.31,2.64-.62,3.03-2.23,5.81-4.81,8.34-2.58,2.53-6.08,4.25-10.51,5.15l9.46,19.53h-10.63l-8.6-18.85h-6.88l-3.83,18.85h-8.91l9.61-47.13h18.76c5.47,0,9.61,1.06,12.43,3.19ZM454.96,211.54c0-1.94-.72-3.45-2.15-4.51-1.43-1.06-3.61-1.59-6.53-1.59h-9.85l-3.28,16.14h9.85c3.33,0,6-.72,8.01-2.17,2.01-1.45,3.24-3.41,3.71-5.9.16-.68.23-1.33.23-1.97Z" style="fill:#363e51;"/><path d="M490.92,223l19.23,23.53h-11.65l-16.73-21.09-4.3,21.09h-8.91l9.61-47.13h8.91l-4.38,21.5,25.48-21.5h11.18l-28.45,23.6Z" style="fill:#363e51;"/><path d="M528.75,245.62c-2.66-.93-4.77-2.28-6.33-4.07-1.56-1.79-2.34-3.9-2.34-6.34,0-.32.05-.88.16-1.7h8.83c-.21,2.08.49,3.81,2.11,5.19,1.61,1.38,3.93,2.07,6.96,2.07,3.23,0,5.76-.58,7.58-1.73,1.82-1.15,2.74-2.81,2.74-4.98,0-1.31-.46-2.43-1.37-3.36-.91-.93-2.06-1.71-3.44-2.34-1.38-.63-3.3-1.38-5.74-2.24-3.23-1.17-5.81-2.24-7.74-3.19s-3.58-2.26-4.96-3.93c-1.38-1.67-2.07-3.77-2.07-6.31,0-2.8.83-5.25,2.5-7.36,1.67-2.1,3.97-3.72,6.92-4.85,2.94-1.13,6.27-1.7,9.97-1.7s6.89.53,9.57,1.59c2.68,1.06,4.71,2.55,6.1,4.48,1.38,1.92,1.99,4.17,1.84,6.75h-9.38c.21-1.85-.44-3.4-1.95-4.64-1.51-1.24-3.7-1.86-6.57-1.86-3.02,0-5.43.6-7.23,1.8-1.8,1.2-2.7,2.81-2.7,4.85,0,1.27.46,2.36,1.37,3.29.91.93,2.07,1.72,3.48,2.37,1.41.66,3.31,1.44,5.71,2.34,3.23,1.27,5.82,2.4,7.78,3.39s3.63,2.34,5.04,4.03c1.41,1.7,2.11,3.79,2.11,6.27,0,2.62-.83,4.96-2.5,7.02-1.67,2.06-4.01,3.66-7.03,4.81-3.02,1.15-6.49,1.73-10.39,1.73-3.34,0-6.33-.46-8.99-1.39Z" style="fill:#363e51;"/><path d="M606.24,220.22c-1.75,2.12-4.18,3.85-7.31,5.19-3.13,1.33-6.93,2-11.41,2h-9.85l-3.91,19.12h-8.91l9.61-47.13h18.76c5.47,0,9.61,1.05,12.43,3.15,2.81,2.1,4.22,4.85,4.22,8.24,0,.59-.11,1.47-.31,2.64-.47,2.4-1.58,4.66-3.32,6.78ZM596.78,219.28c1.95-1.4,3.17-3.34,3.63-5.83.16-.68.23-1.33.23-1.97,0-1.9-.72-3.38-2.15-4.44-1.43-1.06-3.61-1.59-6.53-1.59h-9.85l-3.2,15.93h9.85c3.39,0,6.06-.7,8.01-2.1Z" style="fill:#363e51;"/><path d="M646.06,236.91h-22.74l-5.86,9.63h-9.3l29.08-47.19h10.32l9.85,47.19h-9.38l-1.95-9.63ZM644.89,230.87l-4.46-22.17-13.44,22.17h17.9Z" style="fill:#363e51;"/><path d="M673.92,210.46c3.21-3.66,7.14-6.52,11.8-8.58,4.66-2.06,9.52-3.08,14.58-3.08,5.78,0,10.69,1.23,14.73,3.7,4.04,2.46,6.6,5.96,7.7,10.48h-10.71c-.99-2.35-2.61-4.12-4.85-5.32-2.24-1.2-5-1.8-8.29-1.8-3.59,0-6.94.7-10.04,2.1-3.1,1.4-5.71,3.39-7.82,5.97-2.11,2.58-3.51,5.56-4.18,8.95-.26,1.49-.39,2.76-.39,3.8,0,4.07,1.41,7.3,4.22,9.7,2.81,2.4,6.57,3.59,11.25,3.59,3.28,0,6.3-.6,9.07-1.8,2.76-1.2,5.08-2.97,6.96-5.32h10.71c-2.97,4.52-6.96,8-11.96,10.44s-10.4,3.66-16.18,3.66c-4.48,0-8.49-.81-12.04-2.44-3.54-1.63-6.3-3.91-8.28-6.85-1.98-2.94-2.97-6.33-2.97-10.17,0-1.45.16-2.98.47-4.61.94-4.61,3.01-8.75,6.21-12.41Z" style="fill:#363e51;"/><path d="M743.52,205.37l-2.89,14.31h18.76l-1.17,5.97h-18.76l-3.05,14.85h21.1l-1.25,6.04h-30.01l9.61-47.19h30.01l-1.25,6.03h-21.1Z" style="fill:#363e51;"/><path d="M191.51,146.13c0,47.93-38.85,95.13-86.78,105.42-47.93,10.3-86.78-20.2-86.78-68.13s38.85-95.13,86.78-105.42c47.93-10.3,86.78,20.21,86.78,68.13Z" style="fill:#fff;"/><path d="M73.01,111.33c-38.19,28.34-50.22,77.24-25.8,105.37,20.91,24.09,62.44,23.84,95.16-.56,5-3.73,9.54-7.8,13.61-12.14,8.89-9.46,6.45-22.54-4.34-24.6l-.27-.05-7.63-1.45c-.09.18-.2.36-.33.54-.17.29-.36.6-.57.9-.22.34-.43.67-.68,1.01-.21.33-.44.67-.67.99-1.82,2.58-3.89,5.05-6.18,7.39-.46.46-.91.9-1.38,1.34-.13.15-.28.28-.43.41-.28.26-.57.52-.86.78-.42.39-.88.78-1.34,1.17-.52.46-1.08.91-1.66,1.35-.41.33-.81.64-1.21.95-.32.25-.64.47-.96.7-.48.36-.95.68-1.44,1.01,0,0-.02.03-.04.03-.57.38-1.13.75-1.7,1.11-.84.54-1.69,1.04-2.54,1.5-.59.34-1.19.67-1.79.98,0,0-.02.02-.04.02-.67.34-1.36.68-2.06,1.01-1.29.59-2.58,1.13-3.89,1.61-.47.2-.95.36-1.43.51-.8.28-1.6.52-2.39.77-.61.18-1.23.36-1.85.49-1.25.33-2.51.59-3.77.78-6.86,1.18-13.56.75-19.48-1.25-1.6-.52-3.15-1.17-4.63-1.96-.49-.24-.98-.52-1.46-.82-.47-.28-.93-.57-1.39-.88-.45-.29-.91-.6-1.33-.95-.02,0-.03,0-.04-.03-.33-.23-.65-.47-.94-.73-.27-.21-.54-.44-.79-.67-.12-.11-.25-.23-.38-.36-.32-.28-.64-.59-.95-.9-.22-.21-.43-.42-.64-.65-.05-.06-.11-.13-.17-.18-.38-.42-.77-.85-1.13-1.3-.09-.1-.16-.2-.24-.29-.19-.23-.38-.46-.56-.7-.11-.15-.22-.29-.33-.46-.11-.15-.23-.31-.34-.47-.33-.49-.67-.99-.96-1.5-.32-.49-.6-.99-.85-1.5-.09-.15-.17-.31-.26-.47-.2-.37-.4-.77-.56-1.18-.11-.23-.22-.44-.31-.67-.18-.44-.36-.9-.53-1.35-.05-.13-.1-.25-.13-.37-.23-.59-.42-1.21-.59-1.83-.2-.64-.37-1.31-.51-1.96-2.55-11.36.77-24.65,8.98-36.02.48-.67.97-1.32,1.48-1.96.48-.62.98-1.24,1.5-1.83.1-.13.21-.25.32-.38.39-.46.8-.91,1.2-1.35.2-.23.42-.44.64-.67.36-.41.75-.8,1.14-1.17.17-.16.32-.32.49-.47.5-.51,1.03-1.01,1.6-1.5.55-.51,1.13-1.01,1.71-1.5.19-.16.39-.33.57-.47.19-.16.37-.31.55-.46.31-.24.61-.47.91-.7.12-.1.24-.2.38-.29.59-.46,1.18-.88,1.78-1.31.08-.05.18-.11.26-.18.32-.23.63-.44.96-.65.47-.31.94-.62,1.4-.9.2-.13.39-.25.56-.36.37-.23.75-.46,1.13-.67.42-.26.86-.51,1.31-.73.02-.03.04-.03.06-.03.59-.34,1.21-.65,1.8-.94.61-.31,1.23-.61,1.83-.88.63-.29,1.25-.57,1.87-.82,1.88-.78,3.75-1.44,5.61-1.96,6.92-2.01,13.83-2.43,20.11-1.26,1.16.2,2.28.46,3.37.78.55.13,1.08.31,1.61.49.67.24,1.34.49,2.01.77.4.15.8.31,1.18.51,1.07.49,2.09,1.03,3.09,1.61.54.33,1.06.67,1.56,1.01.02,0,.03.02.03.02.44.31.88.64,1.3.98.62.46,1.23.96,1.8,1.5.38.36.76.74,1.14,1.11.02,0,.02.04.02.04.3.29.6.62.87.94.3.31.59.65.86.99.14.16.28.33.38.51.13.13.24.28.35.42.17.23.35.47.5.72.13.15.22.28.3.42.26.39.52.78.75,1.17.16.26.33.52.47.78.08.13.16.26.22.41.25.44.48.88.71,1.34,1.12,2.3,1.95,4.74,2.48,7.27.08.41.17.82.23,1.24.06.28.1.57.14.87.04.23.07.46.07.68h.02l8.39-1.47h0c12.16-2.13,20.88-15.66,16.33-25.23-1.91-4.01-4.35-7.79-7.35-11.26-20.84-24.11-62.3-23.95-95.04.35Z" style="fill:url(#linear-gradient);"/><path d="M81,128.34c-24.46,19.58-32.38,51.33-17.68,70.91,14.69,19.57,46.43,19.57,70.89,0,7.21-5.77,12.99-12.62,17.16-19.91l-7.63-1.45c-.09.18-.2.36-.33.54-.17.31-.36.6-.57.9-.22.34-.43.68-.68,1.01-.22.34-.43.67-.67.99-1.82,2.58-3.89,5.05-6.18,7.39-.46.46-.91.9-1.38,1.34-.13.15-.28.28-.43.41-.28.26-.55.52-.86.78-.42.39-.86.78-1.34,1.17-.52.46-1.08.91-1.66,1.35-.39.33-.79.64-1.21.95-.32.25-.64.49-.96.7-.2.16-.42.31-.62.46-.28.2-.55.37-.82.55,0,0-.02.03-.04.03-.55.39-1.12.75-1.7,1.11-.84.54-1.69,1.04-2.54,1.5-.59.36-1.19.67-1.79.98,0,0-.02.02-.04.02-.68.36-1.38.68-2.06,1.01-1.29.59-2.58,1.13-3.89,1.61-.47.18-.95.36-1.43.51-.8.28-1.6.52-2.39.77-.61.18-1.23.34-1.85.49-1.25.31-2.51.57-3.77.78-6.85,1.13-13.57.72-19.48-1.25-1.61-.54-3.16-1.19-4.63-1.96-.49-.26-.98-.52-1.46-.82-.47-.28-.95-.57-1.39-.88-.47-.29-.91-.6-1.33-.95-.02,0-.03,0-.04-.03-.32-.23-.63-.47-.94-.73-.27-.21-.53-.44-.79-.67-.12-.11-.25-.23-.38-.36-.32-.28-.64-.59-.95-.9-.22-.21-.43-.42-.64-.65-.05-.06-.11-.13-.17-.18-.4-.42-.76-.86-1.13-1.3-.09-.1-.16-.2-.24-.29-.31-.38-.61-.77-.89-1.16-.11-.15-.23-.31-.34-.47-.33-.49-.67-.99-.96-1.5-.3-.49-.59-.98-.85-1.5-.09-.15-.17-.31-.26-.47-.2-.37-.38-.78-.56-1.18-.11-.23-.22-.44-.31-.67-.18-.44-.36-.9-.53-1.35-.05-.13-.1-.25-.13-.37-.22-.6-.42-1.21-.59-1.83-.2-.64-.36-1.31-.51-1.96-1.44-6.46,5.66-13.74,12.53-12.83l.58.08c2.89.39,4.86,2.35,5.49,5.05.75,3.28,2.36,6.28,4.95,8.67,6.88,6.41,18.9,6.33,28.88-.23,14.62-9.6,19.19-27.91,9.37-37.5-6.73-6.55-18.71-6.65-28.78-.25-3.78,2.4-6.89,5.4-9.27,8.67-1.98,2.71-4.93,4.66-8.01,5.06l-.62.08c-7.32.91-10.79-6.37-6.13-12.83.48-.67.97-1.32,1.48-1.96.48-.62.97-1.22,1.5-1.83.1-.13.21-.25.32-.38.39-.46.8-.91,1.2-1.35.2-.23.42-.44.64-.67.37-.39.75-.8,1.14-1.17.17-.16.32-.32.49-.47.52-.52,1.05-1.01,1.6-1.5.55-.51,1.13-1.01,1.71-1.5.19-.16.39-.33.57-.47.47-.39.96-.78,1.46-1.16.12-.1.24-.2.38-.29.58-.44,1.17-.88,1.78-1.31.08-.05.18-.11.26-.18.32-.23.63-.44.96-.65.47-.31.94-.62,1.4-.9.2-.13.39-.25.56-.36.38-.23.75-.46,1.13-.67.44-.26.88-.51,1.31-.73.02-.03.04-.03.06-.03.59-.34,1.19-.65,1.8-.94.6-.31,1.23-.61,1.83-.88.63-.29,1.25-.55,1.87-.82,1.85-.77,3.73-1.42,5.61-1.96,6.9-1.97,13.82-2.38,20.11-1.26,1.15.21,2.28.47,3.37.78.55.15,1.08.31,1.61.49.67.24,1.34.49,2.01.77.4.15.8.33,1.18.51,1.07.49,2.09,1.03,3.09,1.61.52.33,1.06.65,1.56,1.01.02,0,.03.02.03.02.44.31.89.62,1.3.98.62.46,1.23.96,1.8,1.5.4.36.78.72,1.14,1.11.02,0,.02.04.02.04.18.18.37.36.55.55.12.11.22.24.33.39.3.31.59.63.86.99.14.16.28.33.38.51.33.38.61.75.86,1.14.13.15.22.28.3.42.28.39.52.78.75,1.17.18.26.33.52.47.78.08.13.16.26.22.41.25.44.48.88.71,1.34,1.12,2.3,1.95,4.74,2.48,7.27.09.41.17.82.23,1.24.06.28.1.57.14.87.04.23.07.46.09.68l8.39-1.47c-.66-6.98-3-13.55-7.18-19.13-14.7-19.56-46.45-19.56-70.89,0Z" style="fill:url(#linear-gradient-2);"/></svg>