<?xml version="1.0" encoding="UTF-8"?>
<svg id="Capa_1" xmlns="http://www.w3.org/2000/svg" version="1.1" xmlns:xlink="http://www.w3.org/1999/xlink" viewBox="0 0 1002 329">
  <!-- Generator: Adobe Illustrator 29.0.0, SVG Export Plug-In . SVG Version: 2.1.0 Build 186)  -->
  <defs>
    <style>
      .st0 {
        fill: url(#linear-gradient2);
      }

      .st1 {
        fill: url(#linear-gradient10);
      }

      .st2 {
        fill: #fff;
      }

      .st3 {
        fill: url(#linear-gradient1);
      }

      .st4 {
        fill: url(#linear-gradient9);
      }

      .st5 {
        fill: url(#linear-gradient18);
      }

      .st6 {
        fill: url(#linear-gradient8);
      }

      .st7 {
        fill: url(#linear-gradient11);
      }

      .st8 {
        fill: url(#linear-gradient16);
      }

      .st9 {
        fill: url(#linear-gradient12);
      }

      .st10 {
        fill: url(#linear-gradient7);
      }

      .st11 {
        fill: url(#linear-gradient4);
      }

      .st12 {
        fill: url(#linear-gradient14);
      }

      .st13 {
        fill: url(#linear-gradient5);
      }

      .st14 {
        fill: url(#linear-gradient3);
      }

      .st15 {
        fill: #363e51;
      }

      .st16 {
        fill: url(#linear-gradient15);
      }

      .st17 {
        fill: url(#linear-gradient17);
      }

      .st18 {
        fill: url(#linear-gradient6);
      }

      .st19 {
        fill: url(#linear-gradient13);
      }

      .st20 {
        fill: url(#linear-gradient);
      }
    </style>
    <linearGradient id="linear-gradient" x1="14.8" y1="162.4" x2="198" y2="162.4" gradientUnits="userSpaceOnUse">
      <stop offset="0" stop-color="#f7ab14"/>
      <stop offset=".2" stop-color="#f07930"/>
      <stop offset=".3" stop-color="#eb4f48"/>
      <stop offset=".5" stop-color="#e83159"/>
      <stop offset=".6" stop-color="#e51f64"/>
      <stop offset=".7" stop-color="#e51968"/>
    </linearGradient>
    <linearGradient id="linear-gradient1" x1="159.4" y1="218.1" x2="332.2" y2="45.4" gradientUnits="userSpaceOnUse">
      <stop offset="0" stop-color="#a31256"/>
      <stop offset=".2" stop-color="#9c1458"/>
      <stop offset=".5" stop-color="#8b1a60"/>
      <stop offset=".8" stop-color="#6f256d"/>
      <stop offset="1" stop-color="#5c2d77"/>
    </linearGradient>
    <linearGradient id="linear-gradient2" x1="838.5" y1="-493" x2="955.2" y2="-493" gradientTransform="translate(2547.1 -2330.3) rotate(140) scale(3.2 1.6)" xlink:href="#linear-gradient"/>
    <linearGradient id="linear-gradient3" x1="95.3" y1="138.7" x2="147" y2="246" gradientTransform="translate(60.8) skewX(-20)" gradientUnits="userSpaceOnUse">
      <stop offset="0" stop-color="#441b7a"/>
      <stop offset=".3" stop-color="#6451a3"/>
      <stop offset="1" stop-color="#2e0d5f"/>
    </linearGradient>
    <linearGradient id="linear-gradient4" x1="124.9" y1="124.5" x2="176.5" y2="231.7" xlink:href="#linear-gradient3"/>
    <linearGradient id="linear-gradient5" x1="122.5" y1="125.6" x2="174.2" y2="232.9" xlink:href="#linear-gradient3"/>
    <linearGradient id="linear-gradient6" x1="114.1" y1="106.6" x2="162.4" y2="209.9" xlink:href="#linear-gradient3"/>
    <linearGradient id="linear-gradient7" x1="126.1" y1="188" x2="138.8" y2="214.5" xlink:href="#linear-gradient3"/>
    <linearGradient id="linear-gradient8" x1="126.9" y1="201.7" x2="137.5" y2="223.7" xlink:href="#linear-gradient3"/>
    <linearGradient id="linear-gradient9" x1="88.2" y1="106.5" x2="143" y2="223.8" xlink:href="#linear-gradient3"/>
    <linearGradient id="linear-gradient10" x1="92.5" y1="127.7" x2="136.4" y2="221.6" xlink:href="#linear-gradient3"/>
    <linearGradient id="linear-gradient11" x1="-3339.2" y1="124.5" x2="-3287.6" y2="231.7" gradientTransform="translate(-3204) rotate(-180) scale(1 -1) skewX(20)" gradientUnits="userSpaceOnUse">
      <stop offset="0" stop-color="#f86e00"/>
      <stop offset=".3" stop-color="#ffbb4a"/>
      <stop offset="1" stop-color="#de5300"/>
    </linearGradient>
    <linearGradient id="linear-gradient12" x1="-3368.8" y1="138.7" x2="-3317.1" y2="246" xlink:href="#linear-gradient11"/>
    <linearGradient id="linear-gradient13" x1="-3341.6" y1="125.6" x2="-3289.9" y2="232.9" xlink:href="#linear-gradient11"/>
    <linearGradient id="linear-gradient14" x1="-3350" y1="108.1" x2="-3300.6" y2="210.7" xlink:href="#linear-gradient11"/>
    <linearGradient id="linear-gradient15" x1="63.3" y1="188" x2="76.1" y2="214.5" gradientTransform="translate(60.8) skewX(-20)" xlink:href="#linear-gradient11"/>
    <linearGradient id="linear-gradient16" x1="64.2" y1="201.7" x2="74.8" y2="223.7" gradientTransform="translate(60.8) skewX(-20)" xlink:href="#linear-gradient11"/>
    <linearGradient id="linear-gradient17" x1="25.4" y1="106.5" x2="80.2" y2="223.8" gradientTransform="translate(60.8) skewX(-20)" xlink:href="#linear-gradient11"/>
    <linearGradient id="linear-gradient18" x1="29.8" y1="127.7" x2="73.7" y2="221.6" gradientTransform="translate(60.8) skewX(-20)" xlink:href="#linear-gradient11"/>
  </defs>
  <g>
    <g>
      <polygon class="st20" points="14.8 73.8 14.8 283.2 77.4 283.1 77.4 315.7 133.5 283 198 283 198 9.1 14.8 73.8"/>
      <polygon class="st3" points="221.9 9.2 221.9 280.6 243.5 280.6 243.5 16.8 221.9 9.2"/>
    </g>
    <g>
      <path class="st15" d="M320.8,49.6c.4.1.5.4.4.8-3.8,21.3-15.5,87.5-16.7,93.7-.6,1.2-1.4.7-3.3.9-4.5,0-13.8,0-18.1,0-2.6,0-1.8-.6-1.5-2.8,2.5-14.1,14.9-84,16.3-91.6.5-1.3,1.3-.9,3.4-1,5.3.1,14.9-.2,19.4.1h0Z"/>
      <path class="st15" d="M405.7,144.7c-4.9.5-12,0-17.6.2-2.1,0-3.4,0-4.2-.3-.9-.3-1.2-.9-1.6-1.7-4.3-8.5-25.1-52.8-27.4-56.2-.8,1.4-1.2,6.5-2.7,13.9-2.6,14.5-6.4,36-7.5,42-.1,1.8-1.4,2.3-3.1,2.3-4.4.1-12.9,0-17.2,0-1.1,0-2.9.2-3.2-.8,1.7-11.2,14.7-83.4,16.4-93.2.4-1.6,1.1-1.2,3.4-1.4,3.5,0,11.6,0,15.8,0,1.9,0,4.3-.3,5.1,1.7,3.9,8,15.9,33.1,21.1,43.9,3.1,6.5,5.4,11.4,6.1,12.6.2.3.3.4.5,0,2.2-11.4,8.9-50.1,10.1-56.3.2-.8.4-1.4,1.2-1.7,4.9-.7,13.5-.1,18.9-.3,2.4,0,3.1.2,3.2.8-2.5,11.9-14.1,86.7-17.3,94.4h-.1Z"/>
      <path class="st15" d="M508.5,50.3c0,2.5-1.2,7.8-1.7,11-.6,3-.5,6.4-4.1,6.4-5.1.2-15,0-19.5,0-1,0-2.1,0-2.9.4-3.4,12.6-11.4,64.1-13.7,74.7-.4,2.7-2.4,1.7-5.9,2-4.3,0-10.9,0-14.2,0-1.8-.1-3.2.3-3.4-1,1-6.9,5.7-31.8,9.2-52.2,1.6-9.2,2.8-16,3.7-20.8.4-2.6,1-3-2.4-3.1-3.8,0-13.8,0-18.5,0-1.9,0-3.8-.3-3.4-2.7.4-3.5,1.6-9.2,2.1-12.4.6-2.2.5-3,2.1-3.2,7.9,0,61.1,0,70.8,0,.8,0,1.5,0,1.7.8h0Z"/>
      <path class="st15" d="M540.2,68.7c-1.8,3.9-2.3,11.4-3.1,15.5,0,1-.3,2.2.4,2.9.9.9,3.8.5,8,.6,6.4,0,15.2,0,19,0,2.3,0,3,1.1,2.6,3.4-.3,2.3-.9,5.4-1.3,7.8-.7,3.7-.9,6.7-5.2,6.3-4.6,0-14.1,0-20.2,0-3.2,0-5.2-.1-6.2.6-.9.6-1.2,1.8-1.6,3.9-.6,3-1.3,7.3-1.9,10.5-.4,3.1-2.1,6.8,2.3,6.5,4.8,0,16,0,23.5,0,4.2.3,6.8-.8,7.7,1.2.3,3.6-1.3,8.9-1.9,13-.4,1.5-.4,3.6-2.1,4-9.7.3-25.2,0-36.6.1-8.6-.1-14.5.2-20.2-.1-.3-.1-.4-.3-.4-.7,1.7-10.5,14.1-79.5,16.3-92.4.2-1.9.5-2.4,2.4-2.3,7.2,0,44.8,0,54,0,2.8,0,2.5,1.1,2,4.4-.3,2.1-.9,5-1.3,7.4-.7,2.9-.3,5.9-3.3,6.4-6.9.3-24.9,0-30.7.2-.8,0-1.6.2-2.1.8h0Z"/>
      <path class="st15" d="M591.4,71.6c10.8-14.9,29-23.8,47.4-23.3,11.1,0,22.6,3.5,29.7,11.1,3.1,2.6,11.5,17.5,5.9,19.6-5,1-11.7.2-17,.5-4.3.2-6.8-1.6-9.8-4.8-2.4-2.3-5.6-3.8-9.1-4.4-9.2-1.6-19.1,1.8-25.4,8.7-8,8.7-11.5,23.2-7.5,34.1,3.4,9.1,13.8,12.3,22.8,11.5,8.9-.2,20-7.3,22.4-15.1,0-1.3-2-1.6-5.4-1.5-5.5,0-13.8,0-18.1,0-1.2,0-2.6,0-3.4-1-1-2.5.3-5.7.6-8.5.8-3.2.4-8.1,4.5-7.6,9.2.1,37.6-.3,46.1.1,1.9.7.8,3,.5,6-.6,3.4-1.4,7.8-1.9,10.9-1,5.5-2.9,8.8-5.9,13.1-11.5,16.1-31.1,25.9-50.8,24.4-40.5-2.5-46-45.4-25.8-73.5l.2-.3Z"/>
      <path class="st15" d="M758.1,56.6c13.6,12.2,6.9,35.4-6.9,44.7-2.7,2-6.3,3.5-9.2,4.9-1.3.7-2,1.3-2,2.3.2,2.5,1.8,4.9,3.3,9.1,3.5,8.6,8.3,20.4,10,24.7.3,1,.9,2.2-.5,2.4-2.5.3-5.2.1-8.3.2-3.9,0-9.3,0-12.8,0-2.7,0-4-.5-4.7-2.9-2.1-5.6-8.1-21.6-10.7-28.7-.2-.6-.4-1.1-.7-1.7-1.5-3.7-6.8-3.2-7.2.7-1.6,7.4-3.9,24.5-5.9,31.5-1.1,1.3-2.3.9-4.4,1.1-2.2,0-5.4,0-8.4,0-3,0-5.8,0-7.5,0-2.6,0-2.8-.3-2.6-1.5,1.7-9.7,14.6-82.8,16.4-92.5.2-.9.3-1.3,1.3-1.4,8.9-.2,26.1,0,33.9,0,8.7-.1,19.7.7,26.6,7l.2.2ZM741.6,77.3c-.6-9.1-9.8-9-17.6-8.9-2.2,0-5.2-.3-7.2.4-.8.4-1,1.2-1.3,2.7-.7,4-1.8,10.1-2.6,14.3-.3,3.3-2.2,6.3,1,6.5,12.2.3,27,1.7,27.7-14.7v-.3Z"/>
      <path class="st15" d="M829.9,128.9c-.6-.7-1.5-.8-2.5-.8-5.7,0-23.7,0-29.7,0-1.3,0-2.5.1-3.4,1.2-2.5,3.3-5.1,9.7-7.2,13.1-1,2-2.9,2.7-5.1,2.6-4.2,0-13,0-17,0-1,0-2,0-2.8-.2-.4-.1-.4-.3-.3-.7,4.2-7.7,45.5-84.8,50.9-94.1.4-.3,1-.4,2.3-.5,6.2,0,14.8,0,21.3,0,4.5-.1,3.6.7,4.2,3.4,3.9,21,12.8,68.8,16.7,89.7,0,.9.5,1.6,0,2.1-.9.4-2.1.3-3.3.3-4.3,0-13.7,0-17.6,0-3.3,0-3.7-2.7-4.1-5.6-.6-3-.9-7.9-2.1-10.3h0ZM827.3,110.2c.7-1.6-.4-4.1-.8-8-1.2-7.7-2.9-18.3-4.1-25.9-.2-1.2-.3-1.5-.9-.6-2.1,4-14.6,28-17.3,33.2-1.4,2.3,2.1,1.4,4.6,1.6,4.6-.2,14.6.4,18.5-.3h0Z"/>
    </g>
    <path class="st0" d="M941.8,37c38.4,45.6-4.1,144.5-94.8,220.7-39.4,33.1-81.4,56.5-119.4,68.6,45.3-7.3,100.2-33.8,150.7-76.2,90.7-76.3,133.1-175.1,94.8-220.7-21.7-25.8-64.7-29.1-114.3-13.2,36-5.8,66.1.6,83.1,20.8Z"/>
  </g>
  <g>
    <path class="st15" d="M319,200c.2,1.2-.3,3.5-.9,4.7-.5,1.1-1.6,1.3-2.8,1.3-4.3,0-14.5,0-18.3,0-1.8-.1-2.5.9-2.8,2.6-.5,2.7-1.6,7-1.9,9.9,0,2.2,3.2,1.3,4.9,1.5,2.7,0,6.5,0,9,0,2.2,0,3.2.3,3.2,2-.2,4.6-3.5,4-7.5,4-3,0-6.6,0-9.4,0-1.8,0-2.4,1-2.7,2.6-.7,3.4-2.3,11.3-3.1,14.8-.3,1.9-1.7,2.6-3.6,2.6-1.3,0-5.8.6-5.8-1,1.1-6.1,5.9-28.5,8.2-39.8.5-2.3.7-3.8,1.2-5.5.1-.2.2-.4.5-.5,5.3-.5,18.1,0,26.9-.2,1.9,0,4.7-.4,4.7.9h0Z"/>
    <path class="st15" d="M335.8,199.2c.5.1.6.5.5,1-.3,1.4-1,4.6-1.8,8.7-1.8,8.8-6.3,30.1-7.5,35.8-.2.9-.6,1.2-1.6,1.2-1.1.1-3.3,0-5,0-2-.1-3.1.3-2.4-2.2,1.9-8.3,7.8-38.6,9.4-44.3.2-.3.7-.4,1.4-.5,1.8,0,4.9-.2,6.8,0h0Z"/>
    <path class="st15" d="M368.8,222.7c0,.6.3,1.2.6,1.7,2.1,4.1,8.5,15.7,10.6,20.2.7,2-4.7,1.2-6,1.3-2.2,0-3.9-.5-4.8-2.5-1.6-2.9-4.9-9.4-6.5-12.2-.4-.7-1-2-1.9-1.4-2.7,2.5-8,8.8-11.9,13-1.8,2-2.6,2.8-4.7,3-2.1.2-4.6.2-6.6,0-1-.1-1.2-.4-.8-.9.5-.7,2-2.1,3.7-3.9,4.6-4.8,9.8-10.3,14.5-15.2.5-.6,1.1-1.1,1.5-1.6,1.6-1.7,1.5-1.9.2-4.4-2.8-5.2-5.9-11.1-8.6-16.2-1.1-2.1-2-3.5-1.6-4.1,1.2-.9,4.6-.5,6.3-.5,2,0,3.5.7,4.4,2.5,1.6,2.9,5,9.4,6.5,12.2.5.7,1,2.1,2,1.3,3.2-3,7.4-8.1,10.6-11.5,1.9-2.1,3.5-4.5,6.2-4.4,1.1,0,7.6-.6,7.2.7-2.7,3.4-12.8,13.5-17.4,18.5-1.1,1.2-3.7,3.6-3.7,4.4h0Z"/>
    <path class="st15" d="M397.6,210.5c10.1-11.6,30.6-16,43.6-6.9,1.8,1.3,7.2,6.8,4.7,8.7-2.3,1.2-8.1.9-10.4-1.3-3-3.2-7.5-5.2-12.1-5-9.8-.3-19.6,5.7-22.3,15.2-2.2,6.6,0,14.6,6.8,17.4,6.1,2.6,14.3,2,20-1.6,2.3-1.5,3.8-3,6.4-3.5,2.3-.3,5.5-.8,7.5.4.7.8-.9,2.4-1.6,3.2-11,11.4-33.4,14.7-44.9,2.6-7.5-8.2-4.8-21.4,2.2-29h.1Z"/>
    <path class="st15" d="M463.1,244.4c-7.9-3.6-12-12.6-10.6-21.1,1.8-15.3,17.3-24.9,31.9-24.5,14.9-.4,26.2,10.2,22.8,25.4-3.6,18.9-27.6,27.6-44,20.2h-.2ZM488.2,237.1c12.6-6.7,15.7-29.2-2-31.1-9.2-1.3-19.1,3.3-22.9,12-3.3,6.9-2.4,17,5.3,20.4,5.7,2.7,14.1,1.9,19.4-1.2h.2Z"/>
    <path class="st15" d="M555.5,245.8c-1.3.3-4.2.3-6.1.1-1.4-.1-2-.3-2.7-1.3-3.6-6.3-15.4-27.3-18.2-32.2-.2-.3-.5-1.1-.8-.7-.3.5-.7,3.2-1.6,7-1.4,6.5-4.1,20-5.3,25.4-.3,1.5-1.2,1.8-3,1.9-1.7,0-4,0-5.1-.1-.9-.2-1-.6-.9-1.3,1.2-6.1,6.2-30.1,8.7-42.1.5-2.1.3-3,2.1-3.2,1.5-.2,3.1-.2,4.6-.1,1.4,0,2.7,0,3.5,1.1,1.8,2.8,4.4,7.7,8,13.9,3.4,5.8,8.3,14.8,10.9,19.1.2.3.4.1.5-.2,1.7-7.5,5.4-26.2,6.5-31.6.2-1.1.6-2,1.9-2.2,1.5-.3,4.7-.3,6.3,0,.9.2,1,.6.9,1.3-1.2,6.1-7.6,37.2-9,43.7-.2.8-.4,1.3-1.2,1.5h-.1Z"/>
    <path class="st15" d="M612.8,200c.1,2.5-1.2,5.2-4.1,5-3.6.2-7.9-.4-11.1.3-.5.3-.6.7-.8,1.4-.3,1.6-1,4.8-1.8,8.6-2.2,10.4-5.4,25.8-6.2,29.5-.3.8-.7,1-1.7,1.1-1.2.2-3.5.1-5.2,0-1.7,0-2.6-.2-2.2-1.7,1.1-5.4,5.9-28.1,7.7-37,.3-1.6.5-2.1-1.4-2.2-2.5-.3-9.6.4-11.6-.5-1.3-.8-.7-3.4,0-4.7.4-.8,1.1-.9,1.9-.9,6,0,29,0,34.8,0,.7,0,1.3,0,1.4.9h0Z"/>
    <path class="st15" d="M653.2,202.6c7.1,5.6,3.4,16.2-3.4,20.5-1.9,1.4-4.5,2.1-6.4,3.2-1,.6-1,1.7-.5,2.7,1.4,3.1,4.9,9.9,6.6,13.6.9,1.9,1.4,2.8.5,3.2-2.2.5-5.3.3-7.8.2-3-.1-3.4-3-4.8-5.8-1.1-2.3-2.2-4.7-3.3-7.1-1.2-2.6-1.7-4.1-3.3-4.6-2.2-.7-5.6-.6-6.1,2.1-.9,3.5-2,9.6-2.7,12.8-.4,2.9-3.4,2.7-5.7,2.7-1.3-.1-3.6.3-3.9-.8,0-1.7.8-4,1.5-7.8,2.8-12.6,6.5-33.4,8.1-37.9,1.1-.6,2.2-.3,3.9-.4,2.6,0,5.5,0,8.1,0,7.4.1,13.5-.6,19.3,3.4h.1ZM647.8,212c-.7-6.2-7.5-6-12.7-6-1.6,0-3.7-.2-5.1.3-.6.3-.9.8-1.2,1.7-.6,2.6-1.4,6.6-2,9.4-.3,1.7-.7,3-.6,3.7.4,1.6,4.8.8,6.2,1,7.1.4,15.3-1.6,15.4-9.9v-.2Z"/>
    <path class="st15" d="M674.2,244.4c-7.9-3.6-12-12.6-10.6-21.1,1.8-15.3,17.3-24.9,31.9-24.5,14.9-.4,26.2,10.2,22.8,25.4-3.6,18.9-27.6,27.6-44,20.2h-.2ZM699.3,237.1c12.6-6.7,15.7-29.2-2-31.1-9.2-1.3-19.1,3.3-22.9,12-3.3,6.9-2.4,17,5.3,20.4,5.7,2.7,14.1,1.9,19.4-1.2h.2Z"/>
    <path class="st15" d="M733.4,240.8c4.1.5,10.4,0,14.9.2,1,0,2.3,0,2.7,1,.4,1.1-.3,3-1.4,3.6-1,.5-2.1.3-3.3.3-3.5,0-9.3,0-14.2,0-3.2,0-6,0-7.6,0-1.8,0-2.3,0-1.9-1.6,1.4-6.4,8.1-38.5,9.3-44.1.3-1.1.9-1.1,2.2-1.2,1.6,0,4.6-.1,6,0,.9.1,1.2.6,1,1.4-.5,2.5-2,9.4-3.5,16.8-1,4.8-2,9.7-2.9,13.9-.9,4.4-1.7,7.7-1.8,9,0,.3,0,.5.3.7h0Z"/>
  </g>
  <path class="st2" d="M183,147.1c0,43.9-35.6,87.2-79.5,96.6-43.9,9.4-79.5-18.5-79.5-62.4s35.6-87.2,79.5-96.6c43.9-9.4,79.5,18.5,79.5,62.4Z"/>
  <g>
    <g>
      <g>
        <polygon class="st14" points="111.5 180.8 111.3 181.2 108.4 189.4 110.7 189.4 113.8 180.8 111.5 180.8"/>
        <path class="st11" d="M166.7,112.1h-4.7l-10.7,29.4-12.7,4.5-9.4-4.5,10.7-29.4h-4.7l-19.6,15.6-6.9,18.9,10,14.3h0l1.5,2.2.8-2.2c.2-.6.2-1.3-.1-1.7l-9.5-13.6,6.2-17,17.8-14.1h1.3l-9.8,27c-.3,1,0,1.8.7,2.2l9.4,4.5c.2.1.5.2.8.2s.6,0,.9-.2l12.7-4.5c1-.4,1.9-1.2,2.3-2.2l9.8-27h1.3l7.5,14.1-6.2,17-19.4,13.6c-.6.4-1.1,1.1-1.4,1.7l-10.4,28.5h2.3l10.4-28.5,20.4-14.3,6.9-18.9-8.3-15.6Z"/>
        <path class="st13" d="M146.7,159.2l19.4-13.6,6.2-17-7.5-14.1h-1.3l-9.8,27c-.3,1-1.2,1.8-2.3,2.2l-12.7,4.5c-.3.1-.6.2-.9.2s-.6,0-.8-.2l-9.4-4.5c-.8-.4-1-1.2-.7-2.2l9.8-27h-1.3l-17.8,14.1-6.2,17,9.5,13.6c.3.4.4,1.1.1,1.7l-.8,2.2,12.4,17.7h-18.9l-3.1,8.5h24.3l10.4-28.5c.2-.6.7-1.3,1.4-1.7Z"/>
        <path class="st18" d="M146.7,159.2l19.4-13.6,6.2-17-7.5-14.1h-1.3l-9.8,27c-.3,1-1.2,1.8-2.3,2.2l-12.7,4.5c-.3.1-.6.2-.9.2s-.6,0-.8-.2l-9.4-4.5c-.8-.4-1-1.2-.7-2.2l9.8-27h-1.3l-17.8,14.1-6.2,17,9.5,13.6c.3.4.4,1.1.1,1.7l-.8,2.2,12.4,17.7h-18.9l-3.1,8.5h24.3l10.4-28.5c.2-.6.7-1.3,1.4-1.7Z"/>
      </g>
      <g>
        <polygon class="st10" points="106.5 194.5 136 194.5 132.9 203 103.4 203 106.5 194.5"/>
        <polygon class="st6" points="101.5 208.3 131 208.3 129.3 212.9 99.8 212.9 101.5 208.3"/>
        <polygon class="st4" points="109.4 194.5 133.2 194.5 130.1 203 106.3 203 109.4 194.5"/>
        <polygon class="st1" points="104.4 208.3 128.1 208.3 126.4 212.9 102.7 212.9 104.4 208.3"/>
      </g>
    </g>
    <g>
      <g>
        <path class="st7" d="M58.3,159.2l-9.5-13.6,6.2-17,17.8-14.1h1.3l-9.8,27c-.3,1,0,1.8.7,2.2l9.4,4.5c.2.1.5.2.8.2s.6,0,.9-.2l12.7-4.5c1-.4,1.9-1.2,2.3-2.2l9.8-27h1.3l7.5,14.1-6.2,17-19.4,13.6c-.6.4-1.1,1.1-1.4,1.7l-.8,2.2,3.1-2.2h0l20.4-14.3,6.9-18.9-8.3-15.6h-4.7l-10.7,29.4-12.7,4.5-9.4-4.5,10.7-29.4h-4.7l-19.6,15.6-6.9,18.9,10,14.3-10.4,28.5h2.3l10.4-28.5c.2-.6.2-1.3-.1-1.7Z"/>
        <polygon class="st9" points="72.3 189.4 74.7 189.4 77.7 181.2 77.8 180.8 75.5 180.8 72.3 189.4"/>
        <path class="st19" d="M56.6,180.8l25.3-17.7.8-2.2c.2-.6.7-1.3,1.4-1.7l19.4-13.6,6.2-17-7.5-14.1h-1.3l-9.8,27c-.3,1-1.2,1.8-2.3,2.2l-12.7,4.5c-.3.1-.6.2-.9.2s-.6,0-.8-.2l-9.4-4.5c-.8-.4-1-1.2-.7-2.2l9.8-27h-1.3l-17.8,14.1-6.2,17,9.5,13.6c.3.4.4,1.1.1,1.7l-10.4,28.5h24.3l3.1-8.5h-18.9Z"/>
        <path class="st12" d="M56.6,180.8l25.3-17.7.8-2.2c.2-.6.7-1.3,1.4-1.7l19.4-13.6,6.2-17-7.5-14.1h-1.3l-9.8,27c-.3,1-1.2,1.8-2.3,2.2l-12.7,4.5c-.3.1-.6.2-.9.2s-.6,0-.8-.2l-9.4-4.5c-.8-.4-1-1.2-.7-2.2l9.8-27h-1.3l-17.8,14.1-6.2,17,9.5,13.6c.3.4.4,1.1.1,1.7l-10.4,28.5h24.3l3.1-8.5h-18.9Z"/>
      </g>
      <g>
        <polygon class="st16" points="43.8 194.5 73.3 194.5 70.2 203 40.7 203 43.8 194.5"/>
        <polygon class="st8" points="38.8 208.3 68.3 208.3 66.6 212.9 37.1 212.9 38.8 208.3"/>
        <polygon class="st17" points="46.7 194.5 70.4 194.5 67.3 203 43.6 203 46.7 194.5"/>
        <polygon class="st5" points="41.6 208.3 65.4 208.3 63.7 212.9 40 212.9 41.6 208.3"/>
      </g>
    </g>
  </g>
</svg>