<svg xmlns="http://www.w3.org/2000/svg" xml:space="preserve" width="800" height="800" viewBox="0 0 32 32"><path fill="#364F6B" d="M27 13h-1V9c0-1.65-1.35-3-3-3H9C7.35 6 6 7.35 6 9v14c0 1.65 1.35 3 3 3h14c1.65 0 3-1.35 3-3v-4h1a1 1 0 0 0 1-1v-4a1 1 0 0 0-1-1m-6.15 6.53c-.18.29-.5.47-.85.47h-2c0 1.1-.9 2-2 2s-2-.9-2-2h-2c-.35 0-.67-.18-.85-.47-.18-.3-.2-.67-.04-.98l.89-1.79V14c0-2.21 1.79-4 4-4s4 1.79 4 4v2.76l.89 1.79c.16.31.14.68-.04.98"/><path fill="#3FC1C9" d="M19.38 4h2.04l-.44-2.2c-.09-.46-.5-.8-.98-.8h-8c-.48 0-.89.34-.98.8L10.58 4zm-6.76 24h-2.04l.44 2.2c.09.46.5.8.98.8h8c.48 0 .89-.34.98-.8l.44-2.2z"/><path fill="#364F6B" d="M18 17v-3c0-1.1-.9-2-2-2s-2 .9-2 2v3c0 .16-.04.31-.11.45l-.27.55h4.76l-.27-.55A1 1 0 0 1 18 17"/></svg>