<svg xmlns="http://www.w3.org/2000/svg" viewBox="0 0 304.8 220.7"><defs><linearGradient id="a" x1="-4217" x2="-4196.6" y1="110" y2="152.3" gradientTransform="matrix(-1 0 -.36397 1 -3919.5 0)" gradientUnits="userSpaceOnUse"><stop offset="0" stop-color="#f86e00"/><stop offset=".3" stop-color="#ffbb4a"/><stop offset="1" stop-color="#de5300"/></linearGradient><linearGradient id="c" x1="-4228.7" x2="-4208.3" y1="115.6" y2="157.9" href="#a"/><linearGradient id="e" x1="-4218" x2="-4197.6" y1="110.4" y2="152.7" href="#a"/><linearGradient id="f" x1="-4221.3" x2="-4201.8" y1="103.5" y2="144" href="#a"/><linearGradient id="g" x1="253.8" x2="258.9" y1="135" y2="145.5" gradientTransform="translate(39.3)skewX(-20)" href="#a"/><linearGradient id="h" x1="254.2" x2="258.4" y1="140.4" y2="149.1" gradientTransform="translate(39.3)skewX(-20)" href="#a"/><linearGradient id="i" x1="238.9" x2="260.5" y1="102.9" y2="149.1" gradientTransform="translate(39.3)skewX(-20)" href="#a"/><linearGradient id="j" x1="240.6" x2="257.9" y1="111.2" y2="148.3" gradientTransform="translate(39.3)skewX(-20)" href="#a"/><path id="b" d="m279.9 123.7 7.6-5.4 2.4-6.7-3-5.6h-.5l-3.9 10.7c-.1.4-.5.7-.9.9l-5 1.8h-.7l-3.7-1.8c-.3-.1-.4-.5-.3-.9l3.9-10.7h-.5l-7 5.6-2.4 6.7 3.7 5.4c.1.2.1.4 0 .7l-.3.9 4.9 7h-7.4l-1.2 3.4h9.6l4.1-11.2c0-.3.3-.5.5-.7z"/><path id="d" d="m244.4 132.2 10-7 .3-.9c0-.3.3-.5.5-.7l7.6-5.4 2.4-6.7-3-5.6h-.5l-3.9 10.7c-.1.4-.5.7-.9.9l-5 1.8h-.7l-3.7-1.8c-.3-.1-.4-.5-.3-.9l3.9-10.7h-.5l-7 5.6-2.4 6.7 3.7 5.4c.1.2.1.4 0 .7l-4.1 11.2h9.6l1.2-3.4h-7.4z"/></defs><path fill="#f3f9ff" d="M82.3 120.1c-33.2 0-60.1-26.9-60.1-60C22.2 26.9 49.1 0 82.3 0c7.9 0 15.7 1.6 23 4.6 22.4 9.3 37.1 31.2 37.1 55.5 0 33.2-26.9 60-60 60zm0-28.5c24.3 0 39.5-26.3 27.4-47.3s-42.5-21.1-54.7 0c-2.8 4.8-4.2 10.2-4.2 15.8 0 17.4 14.1 31.6 31.6 31.6z"/><g fill-rule="evenodd"><path fill="#cdcbdf" d="M83.7 70.4c0 .6-.5 1-1 1-.6 0-1-.5-1-1 0-.6.5-1 1-1 .3 0 .5.1.7.3s.3.5.3.7m0-4.2c0 .6-.5 1-1 1-.6 0-1-.5-1-1.1 0-.4.2-.7.5-.9.5-.3 1.1-.1 1.4.4 0 .2.1.3.1.5Zm0-4.2c0 .6-.5 1-1 1-.6 0-1-.5-1-1.1 0-.4.2-.7.5-.9.5-.3 1.1-.1 1.4.4 0 .2.1.3.1.5Zm0-4.2c0 .6-.5 1-1 1-.6 0-1-.5-1-1.1 0-.4.2-.7.5-.9.5-.3 1.1-.1 1.4.4 0 .2.1.3.1.5Zm0-4.1c0 .6-.5 1-1 1-.6 0-1-.5-1-1.1 0-.4.2-.7.5-.9.4-.2.9-.2 1.3.2.2.2.3.5.3.7m-.1-4.1c0 .4-.3.8-.6 1-.4.2-.8 0-1.1-.2-.4-.4-.4-1.1 0-1.5.2-.2.5-.3.7-.3.6 0 1 .5 1 1m4.2 20.9c0 .6-.5 1-1 1-.6 0-1-.5-1-1.1 0-.4.2-.7.5-.9.4-.2.9-.2 1.3.2.2.2.3.5.3.7m-.1-4.1c0 .6-.5 1-1 1-.6 0-1-.5-1-1 0-.4.2-.7.5-.9.5-.3 1.1-.1 1.4.4 0 .2.1.3.1.5m0-4.2c0 .6-.5 1-1 1-.6 0-1-.5-1-1 0-.4.2-.7.5-.9.5-.3 1.1-.1 1.4.4 0 .2.1.3.1.5m0-4.2c0 .6-.5 1-1 1-.6 0-1-.5-1-1 0-.4.2-.7.5-.9.5-.3 1.1-.1 1.4.4 0 .2.1.3.1.5m0-4.1c0 .6-.5 1-1 1-.6 0-1-.5-1-1.1 0-.4.2-.7.5-.9.5-.3 1.1-.1 1.4.4 0 .2.1.3.1.5Zm0-4.2c0 .6-.5 1-1.1 1-.3 0-.5-.1-.7-.3-.4-.4-.4-1.1 0-1.5s1.1-.4 1.5 0c.2.2.3.5.3.7Zm4.2 20.9c0 .6-.5 1-1 1-.6 0-1-.5-1-1.1 0-.4.2-.7.5-.9.5-.3 1.1-.1 1.4.4 0 .2.1.3.1.5Zm0-4.2c0 .6-.5 1-1 1-.6 0-1-.5-1-1.1 0-.4.2-.7.5-.9.5-.3 1.1-.1 1.4.4 0 .2.1.3.1.5Zm0-4.2c0 .6-.5 1-1 1-.6 0-1-.5-1-1.1 0-.4.2-.7.5-.9.5-.3 1.1-.1 1.4.4 0 .2.1.3.1.5Zm0-4.2c0 .6-.5 1-1 1-.6 0-1-.5-1-1.1 0-.4.2-.7.5-.9.5-.3 1.1-.1 1.4.4 0 .2.1.3.1.5Zm0-4.1c0 .6-.5 1-1 1s-.9-.3-1-.8 0-.9.5-1.2 1.1-.1 1.4.4c0 .2.1.3.1.5Zm0-4.2c0 .6-.5 1-1 1-.6 0-1-.5-1-1v-.4c.2-.4.5-.6 1-.6.6 0 1 .5 1 1m4.2 20.9c0 .6-.5 1-1 1s-.9-.3-1-.8 0-.9.5-1.2 1.1-.1 1.4.4c0 .2.1.3.1.5Zm0-4.2c0 .6-.5 1-1 1-.6 0-1-.5-1-1s.5-1 1-1c.3 0 .5.1.7.3s.3.5.3.7m0-4.2c0 .6-.5 1-1 1-.6 0-1-.5-1-1s.5-1 1-1c.3 0 .5.1.7.3s.3.5.3.7m0-4.2c0 .6-.5 1-1 1-.6 0-1-.5-1-1s.5-1 1-1c.3 0 .5.1.7.3s.3.5.3.7m0-4.1c0 .6-.5 1-1 1-.6 0-1-.5-1-1s.5-1 1-1c.3 0 .5.1.7.3s.3.5.3.7m0-4.2c0 .4-.3.8-.6 1-.4.2-.8 0-1.1-.2-.4-.4-.4-1.1 0-1.5s1.1-.4 1.5 0c.2.2.3.5.3.7Zm4.2 20.9c0 .6-.5 1-1 1-.6 0-1-.5-1-1 0-.6.5-1 1-1 .3 0 .5.1.7.3s.3.5.3.7m0-4.2c0 .6-.5 1-1 1s-.9-.3-1-.8c-.1-.6.2-1.1.7-1.3.4 0 .8 0 1 .3.2.2.3.5.3.7Zm0-4.2c0 .6-.5 1-1 1s-.9-.3-1-.8c-.1-.6.2-1.1.7-1.3.4 0 .8 0 1 .3.2.2.3.5.3.7Zm0-4.2c0 .6-.5 1-1 1s-.9-.3-1-.8c-.1-.6.2-1.1.7-1.3.4 0 .8 0 1 .3.2.2.3.5.3.7Zm0-4.1c0 .6-.5 1-1 1-.6 0-1-.5-1-1 0-.6.5-1 1-1 .3 0 .5.1.7.3s.3.5.3.7m0-4.2c0 .6-.5 1-1 1.1-.3 0-.5-.1-.7-.3-.3-.3-.4-.8-.2-1.1.2-.5.8-.8 1.4-.6.4.2.6.5.6 1Zm4.2 20.9c0 .6-.5 1-1 1-.3 0-.5-.1-.7-.3-.3-.3-.4-.7-.2-1.1.2-.5.8-.8 1.4-.6.1 0 .2.1.3.2.2.2.3.5.3.7Zm0-4.2c0 .6-.5 1-1 1-.3 0-.5-.1-.7-.3-.3-.3-.4-.7-.2-1.1.2-.5.8-.8 1.4-.6.1 0 .2.1.3.2.2.2.3.5.3.7Zm0-4.2c0 .6-.5 1-1 1-.3 0-.5-.1-.7-.3-.3-.3-.4-.7-.2-1.1.2-.5.8-.8 1.4-.6.1 0 .2.1.3.2.2.2.3.5.3.7Zm0-4.2c0 .6-.5 1-1 1-.3 0-.5-.1-.7-.3-.3-.3-.4-.7-.2-1.1.2-.5.8-.8 1.4-.6.1 0 .2.1.3.2.2.2.3.5.3.7Zm0-4.1c0 .6-.5 1-1 1-.3 0-.5-.1-.7-.3-.3-.3-.4-.7-.2-1.1.2-.5.8-.8 1.4-.6.4.2.7.5.6 1Zm0-4.2c0 .4-.2.8-.6 1s-.8 0-1.1-.2c-.4-.4-.4-1.1 0-1.5s1.1-.4 1.5 0c.2.2.3.5.3.7Z"/><path fill="#e7f4fe" d="M36.5 205.8h70.8c.1-27.2-29.3-44.4-53-30.9-11.1 6.3-17.9 18.1-17.8 30.9"/></g><path fill="#f3f9ff" d="M97.7 68.2v117.4c0 1.5 1.3 2.8 2.8 2.8H302c1.5 0 2.8-1.3 2.8-2.8V68.2z"/><path fill="#224380" d="M97.7 57v12.6h207.1V57c0-2.7-2.2-4.8-4.8-4.8H102.5c-2.7 0-4.8 2.2-4.8 4.8"/><path fill="#dae7ff" d="M224.2 163.4h53.5c3.5 0 6.3-2.8 6.3-6.3v-53.4c0-3.5-2.8-6.3-6.3-6.3h-53.5c-1.7 0-3.3.7-4.5 1.9s-1.9 2.8-1.9 4.5v53.4c0 3.5 2.8 6.3 6.3 6.3"/><path fill="#fff" d="M255.1 114.5v22l17.6-11z"/><path fill="#baddfe" d="M178 105h29.2c1.6 0 2.9-1.3 2.9-2.9v-4.8c0-1.6-1.3-2.9-2.9-2.9H178c-1.6 0-2.9 1.3-2.9 2.9v4.8c0 1.6 1.3 2.9 2.9 2.9m-60.1 0h49.7c1.6 0 2.9-1.3 2.9-2.9v-4.8c0-1.6-1.3-2.9-2.9-2.9h-49.7c-1.6 0-2.9 1.3-2.9 2.9v4.8c0 1.6 1.3 2.9 2.9 2.9"/><path fill="#dae7ff" d="M116.6 114.7h91.8c.4 0 .9-.2 1.2-.5.7-.7.7-1.7 0-2.4-.3-.3-.7-.5-1.2-.5h-91.8c-.4 0-.9.2-1.2.5-.7.7-.7 1.7 0 2.4.3.3.7.5 1.2.5m0 9.5h91.8c.4 0 .9-.2 1.2-.5.7-.7.7-1.7 0-2.4-.3-.3-.7-.5-1.2-.5h-91.8c-.9 0-1.7.8-1.7 1.7s.8 1.7 1.7 1.7"/><circle cx="120.3" cy="60.6" r="3.1" fill="#ffcb01"/><circle cx="131.2" cy="60.6" r="3.1" fill="#44d690"/><circle cx="109.4" cy="60.6" r="3.1" fill="#ff8b66"/><g fill-rule="evenodd"><path fill="#1eaf69" d="m47.3 97.4 61.2-25.6 61.2 25.6v59.8c0 28.4-20.4 49.4-61.2 63.2-40.6-16.1-61-37.2-61.1-63.2z"/><path fill="#fff" d="m57 104.8 51.8-21.7 51.8 21.7v50.1c0 24-17.3 41.8-51.8 53.4-34.4-13.6-51.6-31.4-51.7-53.4z"/><path fill="#f1b282" d="M21.2 211.1h5.1v5.1h-5.1z"/><path fill="#102b5e" d="M21 215.9h5.4l3.4 1.1c1.7.6 3.2.9 3.2 2.8 0 .4-.3.8-.7.9H22.2c-.6 0-1.1-.5-1.1-1.1v-3.7Z"/><path fill="#f1b282" d="M5.5 211.1h5.1v5.1H5.5z"/><path fill="#0b224e" d="M27.3 214.2h-6.7l-7.7-68.6 16.8.4z"/><path fill="#102b5e" d="M5.3 215.9h5.4l3.4 1.1c1.7.6 3.2.9 3.2 2.8 0 .4-.3.8-.7.9H6.4c-.6 0-1.1-.5-1.1-1.1z"/><path fill="#221e41" d="m39.2 107.4-13.1 6.7-7.6-8.5 20.7-5.9v7.6Z"/><path fill="#102b5e" d="M11.5 214.2H4.8l2.3-68.6 16.8.4z"/><path fill="#1b90fb" d="M23.3 103.8c5.9.5 9 9.2 9.4 12 .5 3.7-1.3 7.5-1.3 7.5l-1.7 24.9-23.1-2 2.8-33.6c.5-5.5 5.3-9.6 10.8-9.1z"/><path fill="#f1b282" d="M26.7 105.8c-.5 1.8-1.6 2.3-3.2 1.6-1.5-.6-2.6-1.8-3.1-3.4l.7-2.6c-1-2.8-1.2-6.3.5-10.4s5.4-4.4 11.1-.9c-.5 2.5-.2 4.3.8 5.2 1.5 1.4.8 2.2 0 2.3s-1.2.5-1.4 2-1.1 1.5-2.6 1.8c-1 .2-2 1.6-2.8 4.4"/><g fill="#0b224e"><path d="M18.8 98.9c1.4 2.2 2.8 2.7 4.2 1.6 2-1.7 1.5-3 .5-3.4s-1.2-2.5 0-2.8 1.9 1.3 2.3 0-.2-2.7 1.3-2.7 5.2.6 5.9-1.8-1.2-5.4-5.4-5.4-8.1 2.1-9.7 5.7c-1 2.4-.8 5.4.8 8.8"/><path d="M18.8 91.2c-1.8-1-3-.5-3.6 1.4-.9 2.9 1.1 6.8-5.2 7.6s-6.6 6.8-3.3 9.3c-6.5-4.7-8.2-9.2-5.3-13.7 4.4-6.7 8.9-.4 11-5.5s3.9-3.4 7.6 0l-1.2.8Z"/></g><path fill="#1277d7" d="m31.1 129.1-.5-3.4-6.1-9.2-10.7 1.5 15.8 30.3 1.4-19.2Z"/><path fill="#f1b282" d="m25.4 117.9 2.7 6.7c9.4 1.2 16.5 2 21.4 2.2 1.1.1 2.2 0 3.1-.5l.7-1.6c.6 0 1 .5.9 1.1v.8c3.1.2 4.6 1 4.2 2.5s-2.2 2.3-5.6 2.3c-1 0-2-.3-2.9-.7a433 433 0 0 0-22.9 1.2c-2.1.2-4.1-.8-5.2-2.6l-4.3-6.7 7.8-4.8z"/><path fill="#1b90fb" d="m24.3 114.2 3.8 10.5c9.4 1.2 16.5 2 21.4 2.2l.5 3.9c-7.7.2-15.4.6-23 1.2-2 .2-4-.8-5.1-2.4l-8.2-11.8z"/></g><path fill="#78909c" d="M234.1 156c-4 0-7.2-3.2-7.2-7.2V96.4c0-4 3.2-7.2 7.2-7.2h52.4c4 0 7.2 3.2 7.2 7.2v52.4c0 4-3.2 7.2-7.2 7.2z"/><path fill="#455a64" d="m136.2 140.1-13.6-3.7 7-12.2-4.8-4.8-11.7 6.7-4.2-13.3h-6.8L98 125.5l-11.9-6.1-4.8 4.8 6.1 11.9-12.7 4.1v6.8l12.7 4.1-6.1 11.9 4.8 4.8 11.9-6.1 4.1 12.7h6.8l4.1-12.7 11.9 6.1 4.8-4.8-6.4-12.4 13-3.6v-6.8zm-30.8 17.1c-7.6 0-13.7-6.1-13.7-13.7s6.1-13.7 13.7-13.7 13.7 6.1 13.7 13.7-6.1 13.7-13.7 13.7"/><path fill="#78909c" d="M105.4 121.2c-12.3 0-22.3 10-22.3 22.3s10 22.3 22.3 22.3 22.3-10 22.3-22.3-10-22.3-22.3-22.3m0 34.3c-6.6 0-12-5.4-12-12s5.4-12 12-12 12 5.4 12 12-5.4 12-12 12"/><path fill="#bbdefb" d="M107.1 150.4h36v29.1h-36z"/><path fill="#3f51b5" d="m124.4 153.8-6.1 6.1-3.6-3.6-2.4 2.4 6.1 6.1 8.5-8.5-2.4-2.4zm0 11.3-6.1 6.1-3.6-3.6-2.4 2.4 6.1 6.1 8.5-8.5-2.4-2.4zm18.7-14.7v-5.1c0-.9-.8-1.7-1.7-1.7h-32.5c-.9 0-1.7.8-1.7 1.7v5.1h36z"/><g fill="#fff"><path d="m266 132.2-.1.1-1.1 3.3h.9l1.2-3.4zm21.8-27.1H286l-4.2 11.6-5 1.8-3.7-1.8 4.2-11.6h-1.8l-7.7 6.1-2.7 7.5 3.9 5.6.6.9.3-.9v-.7l-3.7-5.4 2.4-6.7 7-5.6h.5l-3.9 10.7q-.15.6.3.9l3.7 1.8h.7l5-1.8c.4-.1.8-.5.9-.9l3.9-10.7h.5l3 5.6-2.4 6.7-7.6 5.4c-.2.2-.4.4-.5.7l-4.1 11.2h.9l4.1-11.2 8-5.6 2.7-7.5-3.3-6.1z"/><use href="#b"/><use href="#b"/><path d="M264.1 137.6h11.6l-1.3 3.3h-11.6zm-2 5.4h11.6l-.7 1.8h-11.6z"/><path d="M265.2 137.6h9.4l-1.3 3.3H264zm-2 5.4h9.4l-.7 1.8h-9.4z"/></g><path fill="url(#a)" d="m245 123.7-3.7-5.4 2.4-6.7 7-5.6h.5l-3.9 10.7q-.15.6.3.9l3.7 1.8h.7l5-1.8c.4-.1.8-.5.9-.9l3.9-10.7h.5l3 5.6-2.4 6.7-7.6 5.4c-.2.2-.4.4-.5.7l-.3.9 1.2-.9 8-5.6 2.7-7.5-3.3-6.1h-1.8l-4.2 11.6-5 1.8-3.7-1.8 4.2-11.6h-1.8l-7.7 6.1-2.7 7.5 3.9 5.6-4.1 11.2h.9l4.1-11.2v-.7z"/><path fill="url(#c)" d="M250.6 135.6h.9l1.2-3.3v-.1h-.9z"/><use fill="url(#e)" href="#d"/><use fill="url(#f)" href="#d"/><path fill="url(#g)" d="M239.3 137.6h11.6l-1.2 3.3h-11.6z"/><path fill="url(#h)" d="M237.3 143H249l-.7 1.8h-11.6z"/><path fill="url(#i)" d="M240.4 137.6h9.4l-1.2 3.3h-9.4z"/><path fill="url(#j)" d="M238.5 143h9.3l-.6 1.8h-9.4z"/></svg>