<svg xmlns="http://www.w3.org/2000/svg" width="304.827" height="220.657" viewBox="75.028 53.704 304.827 220.657"><defs><linearGradient id="c" x1=".067" x2=".933" y1=".25" y2=".75"><stop offset="0" stop-color="#2a48ba"/><stop offset="1" stop-color="#35e4c5"/></linearGradient><clipPath id="d"><path d="M0 0h59.51l11.2 10.324v38.7H52.181v-32.4H17.866v32.4H0zm43.995 49.022H26.054V26.697h17.941Z" clip-rule="evenodd"/></clipPath><filter id="b" width="123" height="123" x="420" y="193" filterUnits="userSpaceOnUse"><feOffset dy="2"/><feGaussianBlur result="A" stdDeviation="2"/><feFlood flood-opacity=".322"/><feComposite in2="A" operator="in"/><feComposite in="SourceGraphic"/></filter><path id="a" d="M191.659 187.435h91.761a1.68 1.68 0 1 0 0-3.362h-91.76a1.68 1.68 0 1 0-.001 3.362"/></defs><path fill="#f3f9ff" d="M157.352 173.798a60.05 60.05 0 1 1 22.966-115.522 60.05 60.05 0 0 1 37.07 55.476c.003 33.16-26.876 60.044-60.036 60.046v.001zm0-28.484c24.297.009 39.492-26.288 27.351-47.335s-42.513-21.058-54.669-.02a31.56 31.56 0 0 0-4.234 15.793c-.002 17.428 14.124 31.558 31.552 31.561z"/><g fill-rule="evenodd"><path fill="#cdcbdf" d="M158.752 124.105a1.046 1.046 0 1 1-.306-.741 1.05 1.05 0 0 1 .306.74m0-4.186c0 .578-.469 1.046-1.046 1.046a1.05 1.05 0 0 1-.525-1.955 1.05 1.05 0 0 1 1.571.908zm0-4.186c0 .578-.469 1.046-1.046 1.046a1.05 1.05 0 0 1-.525-1.955 1.05 1.05 0 0 1 1.571.908zm0-4.186c0 .578-.469 1.046-1.046 1.046a1.05 1.05 0 0 1-.525-1.955 1.05 1.05 0 0 1 1.571.908zm0-4.186c0 .578-.469 1.046-1.046 1.046a1.05 1.05 0 0 1-.525-1.955 1.05 1.05 0 0 1 1.265.168c.196.197.307.463.306.741m0-4.186c.001.424-.254.806-.645.969a1.05 1.05 0 0 1-1.142-.226 1.045 1.045 0 0 1 .741-1.788c.578 0 1.046.469 1.046 1.046zm4.186 20.929c0 .578-.469 1.046-1.046 1.046a1.05 1.05 0 0 1-.525-1.955 1.05 1.05 0 0 1 1.265.168c.196.197.307.463.306.741m0-4.186a1.046 1.046 0 1 1-1.569-.908 1.05 1.05 0 0 1 1.571.909zm0-4.186a1.046 1.046 0 1 1-1.569-.908 1.05 1.05 0 0 1 1.571.909zm0-4.186a1.046 1.046 0 1 1-1.569-.908 1.05 1.05 0 0 1 1.571.909zm0-4.186c0 .578-.469 1.046-1.046 1.046a1.05 1.05 0 0 1-.524-1.955 1.05 1.05 0 0 1 1.571.91zm0-4.186a1.05 1.05 0 0 1-1.788.743 1.047 1.047 0 1 1 1.787-.742zm4.186 20.929c0 .578-.469 1.046-1.046 1.046a1.05 1.05 0 0 1-.524-1.955 1.05 1.05 0 0 1 1.571.91zm0-4.186c0 .578-.469 1.046-1.046 1.046a1.05 1.05 0 0 1-.524-1.955 1.05 1.05 0 0 1 1.571.911zm0-4.186c0 .578-.469 1.046-1.046 1.046a1.05 1.05 0 0 1-.524-1.955 1.05 1.05 0 0 1 1.571.911zm0-4.186c0 .578-.469 1.046-1.046 1.046a1.05 1.05 0 0 1-.524-1.955 1.05 1.05 0 0 1 1.571.911zm0-4.186c0 .578-.469 1.046-1.046 1.046a1.05 1.05 0 0 1-1.013-.776 1.046 1.046 0 0 1 .489-1.178 1.05 1.05 0 0 1 1.57.912zm0-4.186a1.047 1.047 0 1 1-2.015-.397 1.05 1.05 0 0 1 .968-.647c.578 0 1.046.469 1.046 1.046zm4.186 20.929c0 .578-.469 1.046-1.046 1.046a1.05 1.05 0 0 1-1.013-.776 1.046 1.046 0 0 1 .489-1.178 1.05 1.05 0 0 1 1.57.912zm0-4.186a1.046 1.046 0 1 1-.304-.739 1.05 1.05 0 0 1 .305.743zm0-4.186a1.046 1.046 0 1 1-.304-.739 1.05 1.05 0 0 1 .305.743zm0-4.186a1.046 1.046 0 1 1-.304-.739 1.05 1.05 0 0 1 .305.743zm0-4.186a1.046 1.046 0 1 1-.304-.739 1.05 1.05 0 0 1 .305.743zm0-4.186c.002.424-.252.808-.643.971a1.05 1.05 0 0 1-1.143-.224 1.046 1.046 0 1 1 1.785-.743zm4.186 20.929a1.047 1.047 0 1 1-.305-.738 1.05 1.05 0 0 1 .305.743zm0-4.186c0 .578-.469 1.046-1.046 1.046a1.05 1.05 0 0 1-1.014-.776 1.047 1.047 0 0 1 1.755-1.008 1.05 1.05 0 0 1 .304.743zm0-4.186c0 .578-.469 1.046-1.046 1.046a1.05 1.05 0 0 1-1.014-.776 1.047 1.047 0 0 1 1.755-1.008 1.05 1.05 0 0 1 .304.743zm0-4.186c0 .578-.469 1.046-1.046 1.046a1.05 1.05 0 0 1-1.014-.776 1.047 1.047 0 0 1 1.755-1.008 1.05 1.05 0 0 1 .304.743zm0-4.186a1.047 1.047 0 1 1-.305-.737 1.05 1.05 0 0 1 .304.743zm0-4.186a1.047 1.047 0 0 1-1.785.749 1.05 1.05 0 0 1-.229-1.142 1.047 1.047 0 0 1 2.014.399zm4.186 20.929a1.047 1.047 0 0 1-1.787.741 1.05 1.05 0 0 1-.227-1.141 1.047 1.047 0 0 1 1.71-.337 1.05 1.05 0 0 1 .305.744zm0-4.186a1.047 1.047 0 0 1-1.787.741 1.05 1.05 0 0 1-.227-1.141 1.047 1.047 0 0 1 1.711-.337 1.05 1.05 0 0 1 .305.744zm0-4.186a1.047 1.047 0 0 1-1.787.741 1.05 1.05 0 0 1-.227-1.141 1.047 1.047 0 0 1 1.711-.337 1.05 1.05 0 0 1 .305.744zm0-4.186a1.047 1.047 0 0 1-1.787.741 1.05 1.05 0 0 1-.227-1.141 1.047 1.047 0 0 1 1.711-.337 1.05 1.05 0 0 1 .305.744zm0-4.186a1.047 1.047 0 0 1-1.787.741 1.05 1.05 0 0 1-.227-1.141 1.047 1.047 0 0 1 2.015.408zm0-4.186c.003.424-.25.809-.641.973a1.05 1.05 0 0 1-1.144-.222 1.046 1.046 0 1 1 1.785-.743z"/><path fill="#e7f4fe" d="M111.558 259.516h70.799c.112-27.25-29.317-44.403-52.973-30.875a35.4 35.4 0 0 0-17.826 30.875"/></g><path fill="#f3f9ff" d="M172.712 121.876v117.363a2.803 2.803 0 0 0 2.804 2.801h201.536a2.803 2.803 0 0 0 2.804-2.801V121.876z"/><path fill="#224380" d="M172.712 110.658v12.618h207.141v-12.618a4.83 4.83 0 0 0-4.83-4.826h-197.48a4.83 4.83 0 0 0-4.831 4.826"/><path fill="#dae7ff" d="M299.252 217.111h53.49a6.33 6.33 0 0 0 6.335-6.328v-53.446a6.336 6.336 0 0 0-6.336-6.33h-53.49a6.33 6.33 0 0 0-4.478 1.853 6.33 6.33 0 0 0-1.857 4.477v53.446a6.33 6.33 0 0 0 6.336 6.328"/><path fill="#fff" d="M330.094 168.17v21.974l17.598-10.987z"/><path fill="#baddfe" d="M253.014 158.676h29.169a2.92 2.92 0 0 0 2.919-2.916v-4.769a2.92 2.92 0 0 0-2.919-2.916h-29.169a2.917 2.917 0 0 0-2.919 2.916v4.769a2.916 2.916 0 0 0 2.919 2.915m-60.12 0h49.746a2.92 2.92 0 0 0 2.919-2.916v-4.769a2.92 2.92 0 0 0-2.919-2.916h-49.746a2.92 2.92 0 0 0-2.918 2.916v4.769a2.92 2.92 0 0 0 2.918 2.916"/><g fill="#dae7ff"><path d="M191.659 168.382h91.761c.446.001.875-.176 1.191-.491a1.68 1.68 0 0 0-1.191-2.87h-91.76c-.446 0-.873.177-1.189.492a1.68 1.68 0 0 0 1.189 2.87m0 9.526h91.761c.446.001.875-.176 1.191-.491a1.68 1.68 0 0 0-1.191-2.87h-91.76a1.68 1.68 0 1 0-.001 3.361"/><use href="#a"/><use y="9.527" href="#a"/></g><g transform="matrix(.60178 0 0 .60178 16.917 37.572)"><ellipse cx="296.44" cy="127.477" fill="#ffcb01" rx="5.078" ry="5.074"/><ellipse cx="314.518" cy="127.477" fill="#44d690" rx="5.078" ry="5.074"/><ellipse cx="278.362" cy="127.478" fill="#ff8b66" rx="5.078" ry="5.074"/></g><g fill-rule="evenodd"><path fill="#1eaf69" d="m122.336 151.118 61.241-25.636 61.241 25.636v59.757q0 42.546-61.241 63.198-60.948-24.163-61.12-63.198.093 0-.12-59.757"/><path fill="#fff" d="m132.021 158.545 51.841-21.669 51.841 21.669v50.146q0 35.963-51.841 53.421-51.593-20.426-51.738-53.421.077 0-.104-50.146"/><path fill="#8ae6b9" d="m132.021 158.545 51.841-21.669v125.236q-51.593-20.426-51.738-53.421.077 0-.104-50.146"/></g><path fill="#1eaf69" d="m207.547 175.318 7.195 6.198-32.635 37.9-24.853-18.374 5.645-7.635 17.763 13.133 26.886-31.223z"/><g fill-rule="evenodd"><path fill="#f1b282" d="M96.242 264.817h5.132v5.131h-5.132z"/><path fill="#102b5e" d="M96.043 269.565h5.395l3.416 1.14c1.721.61 3.17.859 3.17 2.768a.82.82 0 0 1-.725.889H97.183a1.14 1.14 0 0 1-1.14-1.14z"/><path fill="#f1b282" d="M80.536 264.817h5.133v5.131h-5.133z"/><path fill="#0b224e" d="M102.284 267.945h-6.68l-7.723-68.641 16.818.416z"/><path fill="#102b5e" d="M80.336 269.565h5.392l3.417 1.14c1.721.61 3.17.859 3.17 2.768a.82.82 0 0 1-.725.889H81.475a1.14 1.14 0 0 1-1.14-1.14z"/><path fill="#221e41" d="m114.194 161.101-13.098 6.745-7.596-8.492 20.694-5.9z"/><path fill="#102b5e" d="M86.576 267.945h-6.68l2.288-68.641 16.818.416z"/><path fill="#1b90fb" d="M98.363 157.54c5.89.516 9.014 9.246 9.393 12.025.505 3.695-1.334 7.506-1.334 7.506l-1.682 24.913-23.081-2.02 2.821-33.598v-.035a9.97 9.97 0 0 1 10.8-9.062z"/><path fill="#f1b282" d="M101.702 159.505q-.788 2.695-3.206 1.634a5.12 5.12 0 0 1-3.075-3.367l.657-2.637c-.978-2.812-1.204-6.27.535-10.401s5.423-4.434 11.053-.903q-.677 3.784.779 5.187c1.456 1.402.75 2.197.083 2.333s-1.174.525-1.354 2.008-1.13 1.549-2.638 1.776q-1.51.228-2.834 4.37"/><g fill="#0b224e"><path d="M93.802 152.586q2.166 3.279 4.207 1.55c2.046-1.727 1.505-2.995.5-3.381s-1.208-2.459 0-2.774 1.95 1.343 2.294 0-.222-2.727 1.345-2.727 5.217.592 5.94-1.813-1.179-5.378-5.38-5.378-8.135 2.069-9.709 5.73q-1.57 3.661.803 8.793"/><path d="M93.818 144.866q-2.715-1.517-3.596 1.41c-.88 2.925 1.125 6.77-5.248 7.595s-6.553 6.757-3.276 9.345q-9.675-6.976-5.316-13.713c4.359-6.737 8.893-.377 10.978-5.452q2.085-5.075 7.643 0z"/></g><path fill="#1277d7" d="m106.153 182.824-.482-3.377-6.07-9.208-10.656 1.48 15.795 30.274z"/><path fill="#f1b282" d="m100.462 171.637 2.669 6.744q14.077 1.82 21.41 2.227a6.26 6.26 0 0 0 3.14-.508l.714-1.575a1.01 1.01 0 0 1 .936 1.076 1 1 0 0 1-.013.102l-.114.662q4.892.255 4.333 2.48t-5.61 2.347a6.6 6.6 0 0 1-2.893-.732q-11.507.33-22.857 1.235a5.7 5.7 0 0 1-5.235-2.588l-4.324-6.705z"/><path fill="#1b90fb" d="m99.342 167.92 3.789 10.461q14.077 1.82 21.41 2.227l.495 3.851q-11.575.333-22.992 1.246a5.7 5.7 0 0 1-5.127-2.42l-8.203-11.77z"/></g><g filter="url(#b)" transform="matrix(.60178 0 0 .60178 45.544 24.334)"><path fill="url(#c)" d="M12 111A12 12 0 0 1 0 99V12A12 12 0 0 1 12 0h87a12 12 0 0 1 12 12v87a12 12 0 0 1-12 12Z" transform="translate(426 197)"/></g><g fill-rule="evenodd"><path fill="#fff" d="M314.072 161.613h35.866l6.75 6.213v23.288h-11.166v-19.497H324.84v19.497h-10.768zm26.516 29.5h-10.813V177.68h10.813z"/><g clip-path="url(#d)" transform="matrix(.60178 0 0 .60178 314.105 161.613)"><path fill="gray" d="m40.472 16.63 28.052-.039-27.873 3.854z"/></g></g></svg>