<svg xmlns="http://www.w3.org/2000/svg" width="891" height="650" xmlns:v="https://vecta.io/nano"><style><![CDATA[.B{fill:#cde8fb}.C{fill:url(#P)}.D{mask:url(#AE)}.E{stroke-width:2}.F{stroke-linecap:round}.G{fill:url(#S)}.H{fill:url(#T)}.I{mask:url(#AD)}]]></style><defs><linearGradient x1="-2.55482891%" y1="97.6378243%" x2="69.9828247%" y2="100%" id="A"><stop stop-color="#9a97eb" offset="0%"/><stop stop-color="#bdbbe3" offset="100%"/></linearGradient><linearGradient x1="50%" y1="100%" x2="50%" y2="0%" id="B"><stop stop-color="#423dd5" offset="0%"/><stop stop-color="#7671ff" offset="100%"/></linearGradient><linearGradient x1="0%" y1="100%" x2="100%" y2="100%" id="C"><stop stop-color="#a3a0ff" offset="0%"/><stop stop-color="#6d96ff" offset="100%"/></linearGradient><linearGradient x1="54.203736%" y1="71.6469452%" x2="55.0058309%" y2="24.9110466%" id="D"><stop stop-color="#858fff" stop-opacity="0" offset="0%"/><stop stop-color="#858fff" offset="55.9755068%"/><stop stop-color="#6e56c9" stop-opacity="0" offset="100%"/></linearGradient><linearGradient x1="0%" y1="100%" x2="100%" y2="100%" id="E"><stop stop-color="#fe8590" offset="0%"/><stop stop-color="#ffa194" offset="100%"/></linearGradient><linearGradient x1="0%" y1="100%" x2="100%" y2="100%" id="F"><stop stop-color="#ff8589" offset="0%"/><stop stop-color="#c9568c" offset="100%"/></linearGradient><linearGradient x1="-81.5%" y1="66.6969966%" x2="100%" y2="67.5249362%" id="G"><stop stop-color="#e1eefb" stop-opacity="0" offset="0%"/><stop stop-color="#6d96bf" offset="100%"/></linearGradient><linearGradient x1="0%" y1="100%" x2="100%" y2="100%" id="H"><stop stop-color="#6eb3f3" offset="0%"/><stop stop-color="#e1eefc" offset="100%"/></linearGradient><linearGradient x1="0%" y1="100%" x2="100%" y2="100%" id="I"><stop stop-color="#b1c6f7" offset="0%"/><stop stop-color="#add3e9" offset="100%"/></linearGradient><linearGradient x1="0%" y1="100%" x2="100%" y2="100%" id="J"><stop stop-color="#abc9e6" offset="0%"/><stop stop-color="#6f9ef8" stop-opacity=".589" offset="100%"/></linearGradient><linearGradient x1="44.858774%" y1="51.4181942%" x2="70.076178%" y2="44.4185302%" id="K"><stop stop-color="#eff4fe" offset="0%"/><stop stop-color="#e8eefa" stop-opacity="0" offset="100%"/></linearGradient><linearGradient x1="34.3148481%" y1="53.5958905%" x2="71.8561086%" y2="44.1553191%" id="L"><stop stop-color="#edf1fb" offset=".972465035%"/><stop stop-color="#f5f8ff" stop-opacity="0" offset="100%"/></linearGradient><linearGradient x1="66.3466115%" y1="45.2739079%" x2="21.8000378%" y2="58.1512186%" id="M"><stop stop-color="#f8faff" stop-opacity="0" offset="0%"/><stop stop-color="#f4f8ff" offset="100%"/></linearGradient><linearGradient x1="11.5233391%" y1="97.6378243%" x2="64.6299091%" y2="100%" id="N"><stop stop-color="#3250a7" offset="0%"/><stop stop-color="#3956b1" offset="100%"/></linearGradient><linearGradient x1="0%" y1="100%" x2="100%" y2="100%" id="O"><stop stop-color="#234ead" offset="0%"/><stop stop-color="#6f9ef8" offset="100%"/></linearGradient><linearGradient x1="0%" y1="100%" x2="100%" y2="100%" id="P"><stop stop-color="#3d66c8" offset="0%"/><stop stop-color="#426acf" offset="100%"/></linearGradient><linearGradient x1="0%" y1="100%" x2="100%" y2="100%" id="Q"><stop stop-color="#fff4f5" offset="0%"/><stop stop-color="#fff" offset="100%"/></linearGradient><linearGradient x1="0%" y1="100%" x2="100%" y2="100%" id="R"><stop stop-color="#c8daff" offset="0%"/><stop stop-color="#dcb5ff" offset="100%"/></linearGradient><linearGradient x1="-1.3671875%" y1="97.6378243%" x2="69.53125%" y2="100%" id="S"><stop stop-color="#3250a7" offset="0%"/><stop stop-color="#3956b1" offset="100%"/></linearGradient><linearGradient x1="0%" y1="100%" x2="100%" y2="100%" id="T"><stop stop-color="#234ead" offset="0%"/><stop stop-color="#6f9ef8" offset="100%"/></linearGradient><linearGradient x1="-2.01534749%" y1="97.6378243%" x2="69.7776987%" y2="100%" id="U"><stop stop-color="#ff8589" offset="0%"/><stop stop-color="#c9568c" offset="100%"/></linearGradient><linearGradient x1="-3.25206612%" y1="97.6378243%" x2="70.2479339%" y2="100%" id="V"><stop stop-color="#3250a7" offset="0%"/><stop stop-color="#3956b1" offset="100%"/></linearGradient><linearGradient x1="43.8820421%" y1="25.9994104%" x2="69.8568886%" y2="100%" id="W"><stop stop-color="#c0defd" offset="0%"/><stop stop-color="#a0c8f1" stop-opacity="0" offset="100%"/></linearGradient><linearGradient x1="50%" y1="0%" x2="50%" y2="54.0742925%" id="X"><stop stop-color="#a1c7f9" stop-opacity="0" offset="0%"/><stop stop-color="#6896f1" offset="100%"/></linearGradient><linearGradient x1="0.437062937%" y1="100%" x2="100%" y2="100%" id="Y"><stop stop-color="#9fcaf5" offset="0%"/><stop stop-color="#f6faff" offset="100%"/></linearGradient><linearGradient x1="-3.67554012%" y1="97.6378243%" x2="70.4089506%" y2="100%" id="Z"><stop stop-color="#7495f7" offset="0%"/><stop stop-color="#a0b7ff" offset="100%"/></linearGradient><linearGradient x1="50%" y1="100%" x2="50%" y2="0%" id="a"><stop stop-color="#4674da" offset="0%"/><stop stop-color="#6593ec" offset="100%"/></linearGradient><linearGradient x1="0%" y1="100%" x2="100%" y2="100%" id="b"><stop stop-color="#8daeff" offset="0%"/><stop stop-color="#6a94ff" offset="100%"/></linearGradient><linearGradient x1="-3.67554012%" y1="97.6378243%" x2="70.4089506%" y2="100%" id="c"><stop stop-color="#bfc2ff" offset="0%"/><stop stop-color="#fff" offset="100%"/></linearGradient><linearGradient x1="0%" y1="100%" x2="100%" y2="100%" id="d"><stop stop-color="#fff" offset="0%"/><stop stop-color="#f2f3ff" offset="100%"/></linearGradient><linearGradient x1="0%" y1="100%" x2="100%" y2="100%" id="e"><stop stop-color="#c7daff" offset="0%"/><stop stop-color="#dcb5ff" offset="100%"/></linearGradient><linearGradient x1="25.565334%" y1="44.7617892%" x2="100%" y2="69.0034479%" id="f"><stop stop-color="#fff" offset="0%"/><stop stop-color="#3ffff0" offset="100%"/></linearGradient><linearGradient x1="25.565334%" y1="43.4413756%" x2="100%" y2="73.7937116%" id="g"><stop stop-color="#fff" offset="0%"/><stop stop-color="#3ffff0" offset="100%"/></linearGradient><path d="M17.989 54.65c9.814 5.672 17.833-1.48 17.833-15.906 0-14.656-8.019-31.079-17.833-36.751C8.019-3.77 0 3.383 0 18.039 0 32.465 8.019 48.888 17.989 54.65z" id="h"/><linearGradient x1="50%" y1="0%" x2="50%" y2="100%" id="i"><stop stop-color="#dbecf8" stop-opacity=".831" offset="0%"/><stop stop-color="#dbecf8" stop-opacity="0" offset="100%"/></linearGradient><linearGradient x1="554.501125%" y1="129.397058%" x2="554.501125%" y2="-13.6321779%" id="j"><stop stop-color="#f8fdff" offset="0%"/><stop stop-color="#ea5fbc" offset="100%"/></linearGradient><linearGradient x1="13.2265625%" y1="109.70809%" x2="13.2265625%" y2="50%" id="k"><stop stop-color="#e2ff98" offset="0%"/><stop stop-color="#66dff5" offset="100%"/></linearGradient><linearGradient x1="50%" y1="74.8391336%" x2="50%" y2="11.244448%" id="l"><stop stop-color="#fff" offset="0%"/><stop stop-color="#fff" stop-opacity="0" offset="100%"/></linearGradient><path id="m" d="M147.583 0L0 85.717V231l147.583-85.717z"/><radialGradient cx="0%" cy="50%" fx="0%" fy="50%" r="112.318177%" gradientTransform="translate(0, 0.5), scale(1, 0.9777), rotate(-27.0855), translate(-0, -0.5)" id="n"><stop stop-color="#1cc1f7" offset="0%"/><stop stop-color="#6bfa61" offset="100%"/></radialGradient><path d="M-12.666 246.556c11.436-11.028 22.034-7.022 40.779-24.225s56.646-89.754 81.744-112.967 31.227-21.078 41.561-30.636" id="o"/><filter x="-19.5%" y="-17.9%" width="139.0%" height="138.1%" id="p"><feMorphology radius="1" operator="dilate" in="SourceAlpha"/><feOffset dy="2" result="B"/><feMorphology radius="1" in="SourceAlpha"/><feOffset dy="2"/><feComposite in="B" operator="out" result="B"/><feGaussianBlur stdDeviation="10"/><feColorMatrix values="0 0 0 0 0.960784314   0 0 0 0 0.650980392   0 0 0 0 0.137254902  0 0 0 0.2 0"/></filter><radialGradient cx="100%" cy="6.5652725%" fx="100%" fy="6.5652725%" r="183.728081%" gradientTransform="translate(1, 0.0657), scale(0.6896, 1), rotate(145.686), translate(-1, -0.0657)" id="q"><stop stop-color="#fa70aa" offset="0%"/><stop stop-color="#661bdd" offset="100%"/></radialGradient><path d="M-12.666 173.567c11.436-11.028 26.726-8.284 40.474-21.603 13.595-11.971 21.007-27.29 41.177-46.039 36.537-33.7 61.327-26.004 82.354-45.452" id="r"/><filter x="-19.5%" y="-26.5%" width="139.0%" height="156.6%" id="s"><feMorphology radius="1" operator="dilate" in="SourceAlpha"/><feOffset dy="2" result="B"/><feMorphology radius="1" in="SourceAlpha"/><feOffset dy="2"/><feComposite in="B" operator="out" result="B"/><feGaussianBlur stdDeviation="10"/><feColorMatrix values="0 0 0 0 0.933333333   0 0 0 0 0.180392157   0 0 0 0 0.682352941  0 0 0 0.2 0"/></filter><radialGradient cx="100%" cy="6.5652725%" fx="100%" fy="6.5652725%" r="183.728081%" gradientTransform="translate(1, 0.0657), scale(0.6896, 1), rotate(145.686), translate(-1, -0.0657)" id="t"><stop stop-color="#70faf6" offset="0%"/><stop stop-color="#211bdd" offset="100%"/></radialGradient><path d="M-15.039 219.189c11.436-11.028 26.726-8.284 40.474-21.603 13.595-11.971 21.007-27.29 41.177-46.039 36.537-33.7 61.327-26.004 82.354-45.452" id="u"/><radialGradient cx="100%" cy="6.5652725%" fx="100%" fy="6.5652725%" r="179.532333%" gradientTransform="translate(1, 0.0657), scale(1, 0.71), rotate(125.653), translate(-1, -0.0657)" id="v"><stop stop-color="#fa70f0" offset="0%"/><stop stop-color="#e1e85b" offset="100%"/></radialGradient><path d="M-12.666 254.978C-1.23 243.95 14.06 210.199 27.808 196.88c13.595-11.971 21.007.783 41.177-17.966 36.537-33.7 61.327-135.488 82.354-154.936" id="w"/><filter x="-19.5%" y="-13.0%" width="139.0%" height="127.7%" id="x"><feMorphology radius="1" operator="dilate" in="SourceAlpha"/><feOffset dy="2" result="B"/><feMorphology radius="1" in="SourceAlpha"/><feOffset dy="2"/><feComposite in="B" operator="out" result="B"/><feGaussianBlur stdDeviation="10"/><feColorMatrix values="0 0 0 0 0.788235294   0 0 0 0 1   0 0 0 0 0.57254902  0 0 0 0.2 0"/></filter><linearGradient x1="100%" y1="38.1777197%" x2="0%" y2="75.7571829%" id="y"><stop stop-color="#fff" offset="0%"/><stop stop-color="#3ffff0" offset="100%"/></linearGradient><linearGradient x1="100%" y1="37.8197272%" x2="9.47895031%" y2="68.2273113%" id="z"><stop stop-color="#fff" offset="0%"/><stop stop-color="#3ffff0" offset="100%"/></linearGradient><path id="AA" d="M17.077 36.255l17.077 9.756v.883l-17.077-9.756z"/><path id="AB" d="M289.341 494.776l11.794 6.865v11.635l-11.794-6.865z"/><path id="AC" d="M494.943 393.842l-52.49 30.798a1.4 1.4 0 0 0-.692 1.208.46.46 0 0 0 .692.396l52.49-30.798a1.4 1.4 0 0 0 .692-1.208.46.46 0 0 0-.692-.396z"/></defs><g fill="none" fill-rule="evenodd"><g transform="translate(181.873 318.779)"><path fill="url(#A)" d="M0 32.337L55 0v54.663L0 87z"/><path fill="url(#B)" d="M0 87l55 33 54.888-33.013L55 54.663z"/><path fill="url(#C)" d="M110 32.337L55 0v54.663L110 87z"/></g><path fill="url(#D)" style="mix-blend-mode:screen" d="M452.761 298.217l-155 91.283v228.299l155-91.283z"/><g transform="translate(203.761 380.5)"><path fill="#e66f8b" d="M0 30l51 29.686V110L0 80.314z"/><path fill="url(#E)" d="M0 30l50 30 50-30L50 0z"/><path fill="url(#F)" d="M102 30L51 59.686V110l51-29.686z"/></g><g opacity=".444" transform="translate(536.52 482.899)"><path fill="url(#G)" d="M.408 83.275l143.578 85.244L0 165.187z"/><path fill="url(#H)" d="M.408 84.711l143.578 84.711 143.578-84.711L143.986 0z"/><path fill="url(#I)" d="M287.564 83.275l-143.578 85.244 143.578-.763z"/></g><path fill="url(#J)" opacity=".2" d="M888.102 652.035L666.239 518.5 449.797 644.941z"/><path fill="url(#K)" opacity=".326" d="M-.235 584.771l108.708 64.694 438.684 2.59L719 548.5l-390-230L-.235 512.384z"/><path fill="url(#L)" d="M-.235 551.952l165.2 98.337h284.84L626 543 305.5 354-.235 534.726z"/><path d="M38.656 544.479l172.926 106.388h0H349.82L533.251 541 283.126 393.5 38.72 537.627a4 4 0 0 0-.064 6.852z" fill="url(#M)" opacity=".8"/><g transform="translate(.022 312.5)"><path fill="url(#N)" d="M0 35.534l39.739 23.151V109L0 85.599z"/><path fill="url(#O)" d="M0 35.929L39.739 59l50-29.5-50-29.5L0 24.654z"/><path d="M89.739 29l-50 29.686V109l50-29.686z" class="C"/></g><g transform="translate(67.761 375.065)"><path fill="#eaebff" d="M0 17.944l30.504 17.756v30.094L0 48.038z"/><path fill="url(#Q)" d="M0 17.944l30.504 17.944 30.504-17.944L30.504 0z"/><path fill="url(#R)" d="M61.008 17.944L30.504 35.699v30.094l30.504-17.756z"/></g><g transform="translate(426.489 484.257)"><path fill="#e66f8b" d="M0 22.294l37.899 22.06v37.39L0 59.683z"/><path fill="url(#E)" d="M0 22.294l37.899 22.294 37.899-22.294L37.899 0z"/><path fill="url(#F)" d="M75.798 22.294l-37.899 22.06v37.39l37.899-22.06z"/></g><g transform="translate(457.81 419.09)"><path d="M0 29l50 29.686V109L0 79.314z" class="G"/><path d="M0 29.5L50 59l50-29.5L50 0z" class="H"/><path d="M100 29L50 58.686V109l50-29.686z" class="C"/></g><g transform="translate(241.761 280.5)"><path fill="url(#U)" d="M0 59l100 59v100L0 159z"/><path fill="url(#E)" d="M0 59l100 59 100-59L100 0z"/><path fill="url(#F)" d="M200 59l-100 59v100l100-59z"/></g><g transform="translate(390.81 222.835)"><path fill="url(#V)" d="M0 49l84 48.981V181L0 132.019z"/><path fill="url(#O)" d="M0 49l83.5 49L167 49 83.5 0z"/><path fill="url(#P)" d="M167 49L83 97.981V181l84-48.981z"/></g><g transform="translate(143.761)"><path d="M0.5,99.3746507 L166.5,197.119162 L166.5,362.625349 L0.5,264.880838 L0.5,99.3746507 Z" stroke="url(#X)" fill="url(#W)"/><path fill="url(#Y)" d="M0 98.5L167 197l167-98.5L167 0z"/><path fill-opacity="0" fill="url(#P)" d="M334 98.5l-167 98.333V363.5l167-98.333z"/></g><g transform="translate(241.761 116.5)"><path fill="url(#Z)" d="M0 40.142L69 0v67.858L0 108z"/><path fill="url(#a)" d="M0 108l68.5 40 68.5-40-68.5-40z"/><path fill="url(#b)" d="M137 40.142L68 0v67.858L137 108z"/></g><g transform="translate(103.761 221.5)"><path d="M0 29l50 29.686V109L0 79.314z" class="G"/><path d="M0 29.5L50 59l50-29.5L50 0z" class="H"/><path d="M100 29L50 58.686V109l50-29.686z" class="C"/></g><g transform="translate(310.761 156.5)"><path fill="url(#c)" d="M0 40l69 40.075V148L0 107.925z"/><path fill="url(#d)" d="M0 40l68.5 40L137 40 68.5 0z"/><path fill="url(#e)" d="M137 40L68 80.075V148l69-40.075z"/></g><g transform="translate(341.761 335.637)"><path d="M0 29l50 29.686V109L0 79.314z" class="G"/><path d="M0 29.5L50 59l50-29.5L50 0z" class="H"/><path d="M100 29L50 58.686V109l50-29.686z" class="C"/></g><g transform="translate(153.761 394.637)"><path d="M.692 4.941l52.49 30.798a1.4 1.4 0 0 1 .692 1.208.46.46 0 0 1-.692.396L.692 6.545A1.4 1.4 0 0 1 0 5.337a.46.46 0 0 1 .692-.396z" fill="url(#f)"/><path d="M.687.414l16.866 10.152a1.42 1.42 0 0 1 .687 1.215c0 .25-.203.453-.453.453-.082 0-.163-.022-.234-.065L.687 2.017A1.42 1.42 0 0 1 0 .802C0 .552.203.349.453.349c.082 0 .163.022.234.065z" fill="url(#g)"/><g fill="url(#f)"><path d="M.692 8.965l52.49 30.798a1.4 1.4 0 0 1 .692 1.208.46.46 0 0 1-.692.396L.692 10.568A1.4 1.4 0 0 1 0 9.361a.46.46 0 0 1 .692-.396z"/><path d="M.692 12.988l52.49 30.798a1.4 1.4 0 0 1 .692 1.208.46.46 0 0 1-.692.396L.692 14.592A1.4 1.4 0 0 1 0 13.385a.46.46 0 0 1 .692-.396z"/><path d="M.692 17.012l52.49 30.798a1.4 1.4 0 0 1 .692 1.208.46.46 0 0 1-.692.396L.692 18.616A1.4 1.4 0 0 1 0 17.408a.46.46 0 0 1 .692-.396z"/></g></g><g opacity=".3" transform="translate(199.1 450.822)"><mask id="AD" fill="#fff"><use href="#h"/></mask><use fill="#0a2b4c" href="#h"/><path d="M28.184 14.396c1.403 2.464 2.652 5.191 3.684 8.124 5.223 14.841 2.908 29.339-5.171 32.381S7.835 48.379 2.612 33.538c-3.45-9.803-3.611-19.455-.995-25.756l19.962 24.603 6.604-17.988z" fill="#fb76c4" class="I"/><path d="M17.989 1.993c9.814 5.672 17.833 22.095 17.833 36.751 0 14.426-8.019 21.579-17.833 15.906-3.205-1.852-6.208-4.806-8.808-8.441l8.495-13.837V1.816l.313.177z" fill="#0d67f5" class="I"/><path d="M17.042 46.894c5.547 4.031 10.043-1.012 10.043-11.263s-4.496-21.829-10.043-25.86S6.999 10.783 6.999 21.034s4.496 21.829 10.043 25.86z" fill="#3877d3" transform="matrix(.996195 -.087156 .087156 .996195 -2.404481 1.593122)" class="I"/></g><g transform="translate(200.81 295.94)"><g transform="translate(57.951)"><path fill="url(#i)" d="M0 0l17.077 9.756v48.581L0 48.581z"/><path d="M0 0l17.077 9.756v.883L0 .883z" class="B"/><path fill="url(#i)" d="M17.077 36.255l17.077 9.756v22.082l-17.077-9.756z"/><use href="#AA" class="B"/><path fill="url(#i)" d="M34.154 16.568l17.077 9.756V77.85l-17.077-9.756z"/><use href="#AA" x="17.077" y="-19.687" class="B"/><path fill="url(#i)" d="M51.231 61.656l17.077 9.756v16.194L51.231 77.85z"/><use href="#AA" x="34.154" y="25.401" class="B"/><path fill="url(#i)" d="M68.307 50.802l17.077 9.756v36.804l-17.077-9.756z"/><use href="#AA" x="51.23" y="14.547" class="B"/><path fill="url(#i)" d="M85.384 54.67l17.077 9.756v42.692l-17.077-9.756z"/><use href="#AA" x="68.307" y="18.415" class="B"/></g><g transform="translate(28.951 80.712)"><path fill="url(#j)" d="M5.3 3.028v44.164L0 44.164V0z"/><path fill="url(#j)" d="M90.684 59.465v36.509l-5.3-3.028V56.437z"/><path fill="url(#j)" d="M22.377 36.044v20.904l-5.3-3.028V33.016z"/><path fill="url(#j)" d="M39.453 48.745v17.96l-5.3-3.028v-17.96z"/><path fill="url(#j)" d="M56.53 45.841v30.621l-5.3-3.028V42.813z"/><path fill="url(#j)" d="M73.607 36.165v50.053l-5.3-3.028V33.137z"/></g><g style="mix-blend-mode:screen" transform="translate(0 101.312)" opacity=".9"><path fill="url(#k)" d="M5.3 3.028v23.554L0 23.554V0z"/><path fill="url(#k)" d="M90.684 50.632v24.732l-5.3-3.028V47.604z"/><path fill="url(#k)" d="M22.377 24.267v12.072l-5.3-3.028V21.239z"/><path fill="url(#k)" d="M39.453 19.302v26.793l-5.3-3.028V16.274z"/><path fill="url(#k)" d="M56.53 31.119v24.732l-5.3-3.028V28.091z"/><path fill="url(#k)" d="M73.607 53.83v11.777l-5.3-3.028V50.802z"/></g></g><g fill="#79acee"><use href="#AB" opacity=".4"/><use href="#AB" x="6.612" y="39.75" opacity=".8"/><path d="M254.467 494.776l23.269 13.544v22.956l-23.269-13.544z"/><path opacity=".6" d="M240.761 513.026l13.706 7.978v13.522l-13.706-7.978z"/></g><g style="mix-blend-mode:lighten" transform="translate(378.761 219.637)"><mask id="AE" fill="#fff"><use href="#m"/></mask><path stroke="url(#l)" d="M148.083333,-0.868617589 L148.083333,145.570833 L-0.5,231.868618 L-0.5,85.4291675 L148.083333,-0.868617589 Z"/><g class="D"><use fill="#000" filter="url(#p)" href="#o"/><use stroke="url(#n)" href="#o" class="E F"/><use fill="#000" filter="url(#s)" href="#r"/><use stroke="url(#q)" href="#r" class="E F"/><use fill="#000" filter="url(#s)" href="#u"/><use stroke="url(#t)" href="#u" class="E F"/><use fill="#000" filter="url(#x)" href="#w"/><use stroke="url(#v)" href="#w" class="E F"/></g></g><g fill="url(#y)"><use href="#AC"/><use href="#AC" y="4.024"/><use href="#AC" y="8.048"/><use href="#AC" y="12.072"/></g><g fill="url(#z)"><use href="#AC" x="39.049"/><use href="#AC" x="39.049" y="4.024"/><use href="#AC" x="39.049" y="8.048"/><use href="#AC" x="39.049" y="12.072"/></g></g></svg>