<svg xmlns="http://www.w3.org/2000/svg" width="22" height="22" viewBox="0 0 48 48"><path fill="#414141" d="M12.5 4C10 4 8 6 8 8.5v31C8 42 10 44 12.5 44h13.133a13 13 0 0 1-2.158-3H12.5c-.8 0-1.5-.7-1.5-1.5v-31c0-.8.7-1.5 1.5-1.5H24v8.5c0 2.5 2 4.5 4.5 4.5H37v2.17c1.045.162 2.053.433 3 .828v-4.5c0-.4-.174-.774-.45-1.049l.01-.01-13-13-.01.01A1.5 1.5 0 0 0 25.5 4zM27 9.121l7.877 7.877H28.5c-.8 0-1.5-.7-1.5-1.5zM23 22c-4.411 0-8 3.589-8 8 0 4.193 3.244 7.636 7.354 7.967A13 13 0 0 1 22 35c0-1.773.357-3.462 1-5.002V25a4.96 4.96 0 0 1 2.773.846 13 13 0 0 1 2.428-1.91A7.96 7.96 0 0 0 23 22m12 2c-6.075 0-11 4.925-11 11s4.925 11 11 11 11-4.925 11-11-4.925-11-11-11m-2.975 5c.176.005.35.054.504.15l8 5a1.001 1.001 0 0 1 0 1.697l-8 5A1 1 0 0 1 31 40V30a1 1 0 0 1 1.025-1"/></svg>