<svg xmlns="http://www.w3.org/2000/svg" width="30" height="31" fill-rule="evenodd"><path fill="#238ede" d="m1.973 7.114 14.885-1.798a1.98 1.98 0 0 1 2.201 1.72l2.462 19.729a1.98 1.98 0 0 1-1.719 2.209L4.909 30.773a1.98 1.98 0 0 1-2.201-1.72L.246 9.324a1.98 1.98 0 0 1 1.719-2.209z"/><path fill="#f57695" d="m13.11.238 14.914 1.543a1.98 1.98 0 0 1 1.765 2.172l-2.112 19.775a1.98 1.98 0 0 1-2.172 1.759l-14.914-1.543a1.98 1.98 0 0 1-1.765-2.172l2.112-19.775A1.98 1.98 0 0 1 13.11.238" opacity=".753"/></svg>