<?xml version="1.0" encoding="UTF-8"?><svg id="Capa_1" xmlns="http://www.w3.org/2000/svg" xmlns:xlink="http://www.w3.org/1999/xlink" viewBox="0 0 34 34"><defs><style>.cls-1{fill:url(#Degradado_sin_nombre_19-8);}.cls-2{fill:url(#Degradado_sin_nombre_19);}.cls-3{fill:url(#Degradado_sin_nombre_11);}.cls-4{fill:#fff;}.cls-5{fill:url(#Degradado_sin_nombre_19-5);}.cls-6{fill:url(#Degradado_sin_nombre_11-7);}.cls-7{fill:url(#Degradado_sin_nombre_11-5);}.cls-8{fill:url(#Degradado_sin_nombre_19-2);}.cls-9{fill:url(#Degradado_sin_nombre_11-2);}.cls-10{fill:url(#Degradado_sin_nombre_2);}.cls-11{fill:url(#Degradado_sin_nombre_19-4);}.cls-12{fill:url(#Degradado_sin_nombre_11-8);}.cls-13{fill:url(#Degradado_sin_nombre_19-6);}.cls-14{fill:url(#Degradado_sin_nombre_3);}.cls-15{fill:url(#Degradado_sin_nombre_11-6);}.cls-16{fill:url(#Degradado_sin_nombre_19-7);}.cls-17{fill:url(#Degradado_sin_nombre_19-3);}.cls-18{fill:url(#Degradado_sin_nombre_11-3);}.cls-19{fill:url(#Degradado_sin_nombre_11-4);}</style><linearGradient id="Degradado_sin_nombre_2" x1="0" y1="19" x2="27.24" y2="19" gradientTransform="translate(0 36) scale(1 -1)" gradientUnits="userSpaceOnUse"><stop offset="0" stop-color="#f7ab14"/><stop offset=".17" stop-color="#f07930"/><stop offset=".33" stop-color="#eb4f48"/><stop offset=".48" stop-color="#e83159"/><stop offset=".61" stop-color="#e51f64"/><stop offset=".7" stop-color="#e51968"/></linearGradient><linearGradient id="Degradado_sin_nombre_3" x1="24.06" y1="12.62" x2="43.72" y2="32.27" gradientTransform="translate(0 36) scale(1 -1)" gradientUnits="userSpaceOnUse"><stop offset="0" stop-color="#a31256"/><stop offset=".22" stop-color="#9c1458"/><stop offset=".5" stop-color="#8b1a60"/><stop offset=".82" stop-color="#6f256d"/><stop offset="1" stop-color="#5c2d77"/></linearGradient><linearGradient id="Degradado_sin_nombre_11" x1="-87.34" y1="21.56" x2="-81.68" y2="9.82" gradientTransform="translate(93.2 36) scale(1 -1) skewX(20)" gradientUnits="userSpaceOnUse"><stop offset="0" stop-color="#441b7a"/><stop offset=".31" stop-color="#6451a3"/><stop offset="1" stop-color="#2e0d5f"/></linearGradient><linearGradient id="Degradado_sin_nombre_11-2" x1="-82.97" y1="23.3" x2="-77.22" y2="11.36" xlink:href="#Degradado_sin_nombre_11"/><linearGradient id="Degradado_sin_nombre_11-3" x1="-83.25" y1="23.17" x2="-77.52" y2="11.29" xlink:href="#Degradado_sin_nombre_11"/><linearGradient id="Degradado_sin_nombre_11-4" x1="-84.18" y1="25.28" x2="-78.82" y2="13.82" xlink:href="#Degradado_sin_nombre_11"/><linearGradient id="Degradado_sin_nombre_11-5" x1="-83.74" y1="16.39" x2="-82.05" y2="12.89" xlink:href="#Degradado_sin_nombre_11"/><linearGradient id="Degradado_sin_nombre_11-6" x1="-83.81" y1="14.88" x2="-82.35" y2="11.86" xlink:href="#Degradado_sin_nombre_11"/><linearGradient id="Degradado_sin_nombre_11-7" x1="-88.63" y1="26.91" x2="-81.54" y2="11.73" xlink:href="#Degradado_sin_nombre_11"/><linearGradient id="Degradado_sin_nombre_11-8" x1="-88.48" y1="24.91" x2="-82.52" y2="12.17" xlink:href="#Degradado_sin_nombre_11"/><linearGradient id="Degradado_sin_nombre_19" x1="-4069.36" y1="23.42" x2="-4063.04" y2="10.28" gradientTransform="translate(-4066.95 36) rotate(-180) skewX(-20)" gradientUnits="userSpaceOnUse"><stop offset="0" stop-color="#f86e00"/><stop offset=".31" stop-color="#ffbb4a"/><stop offset="1" stop-color="#de5300"/></linearGradient><linearGradient id="Degradado_sin_nombre_19-2" x1="-4072.62" y1="22.11" x2="-4066.36" y2="9.11" xlink:href="#Degradado_sin_nombre_19"/><linearGradient id="Degradado_sin_nombre_19-3" x1="-4069.36" y1="23.42" x2="-4063.05" y2="10.32" xlink:href="#Degradado_sin_nombre_19"/><linearGradient id="Degradado_sin_nombre_19-4" x1="-4070.39" y1="25.55" x2="-4064.35" y2="13.03" xlink:href="#Degradado_sin_nombre_19"/><linearGradient id="Degradado_sin_nombre_19-5" x1="-93.06" y1="16.39" x2="-91.38" y2="12.89" gradientTransform="translate(93.2 36) scale(1 -1) skewX(20)" xlink:href="#Degradado_sin_nombre_19"/><linearGradient id="Degradado_sin_nombre_19-6" x1="-93.13" y1="14.88" x2="-91.68" y2="11.86" gradientTransform="translate(93.2 36) scale(1 -1) skewX(20)" xlink:href="#Degradado_sin_nombre_19"/><linearGradient id="Degradado_sin_nombre_19-7" x1="-97.96" y1="26.91" x2="-90.86" y2="11.73" gradientTransform="translate(93.2 36) scale(1 -1) skewX(20)" xlink:href="#Degradado_sin_nombre_19"/><linearGradient id="Degradado_sin_nombre_19-8" x1="-97.8" y1="24.91" x2="-91.85" y2="12.17" gradientTransform="translate(93.2 36) scale(1 -1) skewX(20)" xlink:href="#Degradado_sin_nombre_19"/></defs><polygon class="cls-10" points="0 7.17 0 30.39 9.31 30.38 9.31 34 17.65 30.38 27.24 30.38 27.24 0 0 7.17"/><polygon class="cls-14" points="30.79 0 30.79 30.11 34 30.11 34 .85 30.79 0"/><path class="cls-4" d="M25.01,15.3c0,4.87-5.29,9.67-11.82,10.71-6.53,1.05-11.82-2.05-11.82-6.93s5.29-9.67,11.82-10.72c6.53-1.05,11.82,2.05,11.82,6.93h0Z"/><polygon class="cls-3" points="14.37 19.04 14.35 19.08 13.91 19.99 14.26 19.99 14.72 19.04 14.37 19.04"/><path class="cls-9" d="M22.59,11.42h-.69l-1.59,3.26-1.89.5-1.4-.5,1.59-3.26h-.69l-2.92,1.73-1.02,2.1,1.49,1.58h0l.23.24.12-.24c.04-.07.03-.14-.02-.19l-1.41-1.51.92-1.89,2.65-1.57h.19l-1.46,3c-.05.11-.01.2.1.24l1.4.5s.08.02.12.02.09,0,.14-.02l1.89-.5c.15-.04.28-.13.33-.24l1.46-3h.19l1.12,1.57-.92,1.89-2.88,1.51c-.09.05-.17.12-.2.19l-1.54,3.16h.35l1.54-3.16,3.03-1.58,1.02-2.1-1.23-1.73h0Z"/><path class="cls-18" d="M19.62,16.64l2.88-1.51.92-1.89-1.12-1.57h-.19l-1.46,3c-.05.11-.18.2-.33.24l-1.89.5s-.1.02-.14.02-.09,0-.12-.02l-1.4-.5c-.11-.04-.15-.13-.1-.24l1.46-3h-.19l-2.65,1.57-.92,1.89,1.41,1.51s.05.12.02.19l-.12.24,1.85,1.97h-2.8l-.46.95h3.61l1.54-3.16c.04-.07.11-.14.2-.19h0Z"/><path class="cls-19" d="M19.62,16.64l2.88-1.51.92-1.89-1.12-1.57h-.19l-1.46,3c-.05.11-.18.2-.33.24l-1.89.5s-.1.02-.14.02-.09,0-.12-.02l-1.4-.5c-.11-.04-.15-.13-.1-.24l1.46-3h-.19l-2.65,1.57-.92,1.89,1.41,1.51s.05.12.02.19l-.12.24,1.85,1.97h-2.8l-.46.95h3.61l1.54-3.16c.04-.07.11-.14.2-.19h0Z"/><polygon class="cls-7" points="13.64 20.55 18.02 20.55 17.56 21.5 13.18 21.5 13.64 20.55"/><polygon class="cls-15" points="12.89 22.09 17.27 22.09 17.02 22.6 12.64 22.6 12.89 22.09"/><polygon class="cls-6" points="14.06 20.55 17.6 20.55 17.14 21.5 13.6 21.5 14.06 20.55"/><polygon class="cls-12" points="13.31 22.09 16.85 22.09 16.6 22.6 13.06 22.6 13.31 22.09"/><path class="cls-2" d="M6.46,16.64l-1.41-1.51.92-1.89,2.65-1.57h.19l-1.46,3c-.05.11-.01.2.1.24l1.4.5s.08.02.12.02.09,0,.14-.02l1.89-.5c.15-.04.28-.13.33-.24l1.46-3h.19l1.12,1.57-.92,1.89-2.88,1.51c-.09.05-.17.12-.2.19l-.12.24.47-.24h0l3.03-1.58,1.02-2.1-1.23-1.73h-.69l-1.59,3.26-1.89.5-1.4-.5,1.59-3.26h-.69l-2.92,1.73-1.02,2.1,1.49,1.58-1.54,3.16h.35l1.54-3.16c.04-.07.03-.14-.02-.19h0Z"/><polygon class="cls-8" points="8.56 19.99 8.9 19.99 9.35 19.08 9.37 19.04 9.02 19.04 8.56 19.99"/><path class="cls-17" d="M6.21,19.04l3.76-1.97.12-.24c.04-.07.11-.14.2-.19l2.88-1.51.92-1.89-1.12-1.57h-.19l-1.46,3c-.05.11-.18.2-.33.24l-1.89.5s-.1.02-.14.02-.09,0-.12-.02l-1.4-.5c-.11-.04-.15-.13-.1-.24l1.46-3h-.19l-2.65,1.57-.92,1.89,1.41,1.51s.05.12.02.19l-1.54,3.16h3.61l.46-.95h-2.8,0Z"/><path class="cls-11" d="M6.21,19.04l3.76-1.97.12-.24c.04-.07.11-.14.2-.19l2.88-1.51.92-1.89-1.12-1.57h-.19l-1.46,3c-.05.11-.18.2-.33.24l-1.89.5s-.1.02-.14.02-.09,0-.12-.02l-1.4-.5c-.11-.04-.15-.13-.1-.24l1.46-3h-.19l-2.65,1.57-.92,1.89,1.41,1.51s.05.12.02.19l-1.54,3.16h3.61l.46-.95h-2.8,0Z"/><polygon class="cls-5" points="4.32 20.55 8.7 20.55 8.23 21.5 3.85 21.5 4.32 20.55"/><polygon class="cls-13" points="3.57 22.09 7.95 22.09 7.7 22.6 3.32 22.6 3.57 22.09"/><polygon class="cls-16" points="4.74 20.55 8.27 20.55 7.81 21.5 4.28 21.5 4.74 20.55"/><polygon class="cls-1" points="3.99 22.09 7.52 22.09 7.27 22.6 3.74 22.6 3.99 22.09"/></svg>