<svg xmlns="http://www.w3.org/2000/svg" viewBox="0 0 48 48">
  <path d="M16.476562 3.9785156 A 1.50015 1.50015 0 0 0 15 5.5L15 7L12.5 7C10.032499 7 8 9.0324991 8 11.5L8 34L4.5 34C3.1364058 34 2 35.136406 2 36.5L2 38.5C2 40.967501 4.0324991 43 6.5 43L35.5 43C37.967501 43 40 40.967501 40 38.5L40 11.5C40 9.0324991 37.967501 7 35.5 7L35 7L35 10L35.5 10C36.346499 10 37 10.653501 37 11.5L37 38.5C37 39.346499 36.346499 40 35.5 40C34.653501 40 34 39.346499 34 38.5L34 36.5C34 35.136406 32.863594 34 31.5 34L11 34L11 11.5C11 10.653501 11.653501 10 12.5 10L15 10L15 11.5 A 1.50015 1.50015 0 1 0 18 11.5L18 5.5 A 1.50015 1.50015 0 0 0 16.476562 3.9785156 z M 31.476562 3.9785156 A 1.50015 1.50015 0 0 0 30 5.5L30 7L20 7L20 10L30 10L30 11.5 A 1.50015 1.50015 0 1 0 33 11.5L33 5.5 A 1.50015 1.50015 0 0 0 31.476562 3.9785156 z M 16.5 19 A 1.50015 1.50015 0 1 0 16.5 22L31.5 22 A 1.50015 1.50015 0 1 0 31.5 19L16.5 19 z M 16.5 26 A 1.50015 1.50015 0 1 0 16.5 29L27.5 29 A 1.50015 1.50015 0 1 0 27.5 26L16.5 26 z M 5 37L31 37L31 38.5C31 39.030591 31.134564 39.52552 31.306641 40L6.5 40C5.6535009 40 5 39.346499 5 38.5L5 37 z" fill="#1375B8" />
</svg>