<svg xmlns="http://www.w3.org/2000/svg" width="100" height="100"><path fill="#0d47a1" d="M10 10v73.333h35.734C50.438 87.471 56.582 90 63.333 90 78.061 90 90 78.061 90 63.333c0-13.598-10.184-24.793-23.333-26.435V10z"/><g fill="#e3f2fd"><path d="M60 16.667H16.667v60h23.596A26.6 26.6 0 0 1 37.539 70H23.333v-6.667h13.334c0-2.308.325-4.53.872-6.666H23.333V50h16.93a26.7 26.7 0 0 1 5.471-6.667H23.333v-6.667H60z"/><circle cx="63.333" cy="63.333" r="20"/></g><path fill="#0d47a1" d="M23.333 23.333h20V30h-20zM66.667 60V48.333H60v15a3.334 3.334 0 0 0 3.333 3.334h15V60zm0 15A3.334 3.334 0 1 1 60 75c0-1.836 1.491-3.333 3.333-3.333s3.334 1.497 3.334 3.333M55 63.333a3.33 3.33 0 0 1-3.333 3.334 3.33 3.33 0 0 1-3.334-3.334 3.335 3.335 0 0 1 6.667 0"/></svg>