<svg xmlns="http://www.w3.org/2000/svg" width="100" height="100"><path fill="#e3f2fd" d="M60 70V60c0-5.521 4.479-10 10-10 1.171 0 2.289.211 3.333.581V16.667A6.69 6.69 0 0 0 66.667 10H20a6.69 6.69 0 0 0-6.667 6.667v60A6.69 6.69 0 0 0 20 83.333h33.333v-6.666A6.67 6.67 0 0 0 60 70"/><path fill="#0d47a1" d="M46.667 83.333H20a6.69 6.69 0 0 1-6.667-6.666v-60A6.69 6.69 0 0 1 20 10h46.667a6.69 6.69 0 0 1 6.666 6.667v26.667h-6.666V16.667H20v60h26.667zm6.666-6.666v6.666h10C63.333 87.02 66.318 90 70 90s6.667-2.98 6.667-6.667h10v-6.666A6.67 6.67 0 0 1 80 70V60c0-5.521-4.479-10-10-10s-10 4.479-10 10v10a6.67 6.67 0 0 1-6.667 6.667M26.667 50h26.666v6.667H26.667zm0 13.333h20V70h-20zm0-26.666H60v6.667H26.667zm0-13.334h26.666V30H26.667z"/><path fill="#e3f2fd" d="M64.816 76.667h10.369c-1.146-1.97-1.849-4.226-1.849-6.667h-.004V60a3.33 3.33 0 0 0-3.333-3.333A3.33 3.33 0 0 0 66.667 60v10c0 2.441-.703 4.697-1.851 6.667"/></svg>