<svg xmlns="http://www.w3.org/2000/svg" width="100" height="100"><path fill="#0d47a1" d="M69.736 90 54.238 67.868a5 5 0 1 1 8.192-5.736l4.237 6.052V16.667H20v66.666h36.667V90H13.333V10h60v33.333l11.381 11.38a6.65 6.65 0 0 1 1.953 4.714V90z"/><path fill="#e3f2fd" d="M56.667 90v-6.667H20V16.667h46.667v51.517l-4.237-6.052a5 5 0 1 0-8.192 5.736L69.736 90z"/><path fill="#0d47a1" d="M26.666 56.667h20v6.666h-20zm0 13.333h20v6.667h-20zm25.287-44.713L40 37.237l-5.287-5.284L30 36.667l10 10L56.667 30z"/></svg>