<svg xmlns="http://www.w3.org/2000/svg" width="32" height="32" viewBox="0 0 48 48"><linearGradient id="a" x1="24" x2="24" y1="12.063" y2="42.063" gradientUnits="userSpaceOnUse"><stop offset="0" stop-color="#f0f0f0"/><stop offset="1" stop-color="#bbc1c4"/></linearGradient><path fill="url(#a)" d="M6 40V12h36v28c0 1.1-.9 2-2 2H8c-1.1 0-2-.9-2-2"/><linearGradient id="b" x1="6.42" x2="41.198" y1="6.608" y2="13.68" gradientUnits="userSpaceOnUse"><stop offset="0" stop-color="#0077d2"/><stop offset="1" stop-color="#0b59a2"/></linearGradient><path fill="url(#b)" d="M42 8v6H6V8c0-1.1.9-2 2-2h32c1.1 0 2 .9 2 2"/><use href="#c" opacity=".05"/><use href="#d" opacity=".07"/><use x="-23" href="#c" opacity=".05"/><use x="-23" href="#d" opacity=".07"/><path fill="#3ccbf4" d="M12.5 11A1.5 1.5 0 0 1 11 9.5v-4A1.5 1.5 0 0 1 12.5 4 1.5 1.5 0 0 1 14 5.5v4a1.5 1.5 0 0 1-1.5 1.5"/><path fill="#33c481" d="M22 19.5v3a.5.5 0 0 1-.5.5h-11a.5.5 0 0 1-.5-.5v-3a.5.5 0 0 1 .5-.5h11a.5.5 0 0 1 .5.5"/><use fill="#107c42" href="#e"/><use x="8" y="-7" fill="#21a366" href="#e"/><path fill="#3ccbf4" d="M35.5 11A1.5 1.5 0 0 1 34 9.5v-4A1.5 1.5 0 0 1 35.5 4 1.5 1.5 0 0 1 37 5.5v4a1.5 1.5 0 0 1-1.5 1.5"/><defs><path id="c" d="M35.5 12.5a3 3 0 0 1-3-3V6h6v3.5a3 3 0 0 1-3 3"/><path id="d" d="M35.5 11.75a2.25 2.25 0 0 1-2.25-2.25V6h4.5v3.5a2.25 2.25 0 0 1-2.25 2.25"/><path id="e" d="M30 33.5v3a.5.5 0 0 1-.5.5h-19a.5.5 0 0 1-.5-.5v-3a.5.5 0 0 1 .5-.5h19a.5.5 0 0 1 .5.5"/></defs></svg>